<?xml version="1.0" encoding="UTF-8"?>
<svg id="Analysis_object_" width="949.43" height="790.73" data-name="Analysis (object)" version="1.1" viewBox="0 0 949.43 790.73" xmlns="http://www.w3.org/2000/svg" xmlns:cc="http://creativecommons.org/ns#" xmlns:dc="http://purl.org/dc/elements/1.1/" xmlns:rdf="http://www.w3.org/1999/02/22-rdf-syntax-ns#">
 <metadata>
  <rdf:RDF>
   <cc:Work rdf:about="">
    <dc:format>image/svg+xml</dc:format>
    <dc:type rdf:resource="http://purl.org/dc/dcmitype/StillImage"/>
    <dc:title/>
   </cc:Work>
  </rdf:RDF>
 </metadata>
 <defs>
  <style>.cls-1{fill:#ffecd2;}.cls-2{fill:#4d4d4d;}.cls-3{fill:#5e8e73;}.cls-4{fill:none;stroke:#f99f38;stroke-miterlimit:10;}.cls-5{fill:#e27329;}.cls-6{fill:#f99f38;}.cls-7{fill:#fab857;}.cls-8{fill:#98d9c2;}.cls-9{fill:#772e25;}.cls-10{fill:#655;}.cls-11{fill:#197278;}</style>
 </defs>
 <polygon class="cls-1" transform="translate(-174.14,-138.1)" points="1123.6 689.92 700.89 928.83 242.47 672.57 665.15 433.66"/>
 <path class="cls-2" d="m327.33 299.01-171.61 109.2v12l-8.4-6.61v-275.35a11.44 11.44 0 0 1 5.41-9.73l155.54-96.15a11.43 11.43 0 0 1 17.42 9.66z"/>
 <path class="cls-3" d="m335.73 305.84-180 114.33v-274.77a11.42 11.42 0 0 1 5.42-9.72l155.52-96a11.43 11.43 0 0 1 17.43 9.65z"/>
 <polygon class="cls-4" transform="translate(-174.14,-138.1)" points="350.59 294.37 489.62 210.25 491.01 421.96 350.59 509.42"/>
 <path class="cls-5" d="m246.67 66.22-5.46 2.24a3.7 3.7 0 0 0 0-0.47c0-9-5.51-16.27-12.31-16.27s-12.31 7.27-12.31 16.27a19.41 19.41 0 0 0 2.48 9.73l-25.41 32.07v16.46l83.46-48.74v-18.28zm-11.81 4.87c-0.93 3.12-3.25 5.32-5.92 5.32a5.36 5.36 0 0 1-3.53-1.43 9.41 9.41 0 0 1-2.82-7c0-4.65 2.87-8.42 6.37-8.42s6.37 3.77 6.37 8.42a10.7 10.7 0 0 1-0.47 3.11z"/>
 <path class="cls-4" d="m235.29 67.99a10.7 10.7 0 0 1-0.45 3.1c-0.93 3.12-3.25 5.32-5.92 5.32a5.36 5.36 0 0 1-3.53-1.43 9.41 9.41 0 0 1-2.82-7c0-4.65 2.87-8.42 6.37-8.42s6.35 3.78 6.35 8.43z"/>
 <polygon class="cls-2" transform="translate(-174.14,-138.1)" points="359.07 259.09 367.8 253.71 368.32 247.22 393.23 215.82 391.16 210.25 359.07 248.7"/>
 <path class="cls-2" d="m269.2 61.05v-4.67l-28.94 5.25a21.76 21.76 0 0 1 1 6.83s20.17-5.63 27.94-7.41z"/>
 <polygon class="cls-2" transform="translate(-174.14,-138.1)" points="359.07 299.26 381.51 286.35 382.21 315.81 359.07 329.2"/>
 <polygon class="cls-6" transform="translate(-174.14,-138.1)" points="359.07 346.71 381.51 333.8 382.21 363.26 359.07 376.65"/>
 <polygon class="cls-6" transform="translate(-174.14,-138.1)" points="390.06 284.03 467.92 238.3 468.62 247.58 390.06 293.8"/>
 <polygon class="cls-6" transform="translate(-174.14,-138.1)" points="391.16 329.27 469.02 283.54 469.72 292.82 391.16 339.03"/>
 <polygon class="cls-6" transform="translate(-174.14,-138.1)" points="390.06 301.53 434.93 275.97 435.63 285.25 390.06 311.29"/>
 <polygon class="cls-7" transform="translate(-174.14,-138.1)" points="374.71 397.13 386.24 377.92 390.06 383.12 376.3 408.3 362.53 394.09 367.1 389.52"/>
 <circle class="cls-5" cx="269.3" cy="234.37" r="26.17"/>
 <circle class="cls-8" cx="269.3" cy="234.37" r="20"/>
 <path class="cls-5" d="m266.52 261.18 1.94 23.63a2.67 2.67 0 0 0 2.89 2.44l4.36-0.36a2.68 2.68 0 0 0 2.46-2.88l-1.94-23.63h-0.47l-3.57 0.28-1.09 0.1h-0.12l-3.43 0.28z"/>
 <path class="cls-9" d="m274.98 265.12-6.4483 0.52902a1.56 1.56 0 0 1-1.6823-1.4272l-0.34014-4.1461 9.5679-0.78494 0.34014 4.1461a1.56 1.56 0 0 1-1.4272 1.6823z"/>
 <polygon class="cls-9" transform="translate(-174.14,-138.1)" points="694.86 826.7 696.82 621.62 428.41 470.28 428.41 675.94"/>
 <path class="cls-9" d="m508.23 461.9s-1.52-5.69 17.36-6-11 31.67-36.25 29.24c0 0-11.83-5.77 3.2-19.5z"/>
 <polygon class="cls-8" transform="translate(-174.14,-138.1)" points="306.5 522.19 258.14 549.19 256.86 615.21 307.84 584.59"/>
 <polygon class="cls-3" transform="translate(-174.14,-138.1)" points="259.61 417.72 199.82 451.1 198.24 532.72 261.27 494.86"/>
 <polygon class="cls-2" transform="translate(-174.14,-138.1)" points="212.65 354.69 175.13 375.64 174.14 426.86 213.69 403.1"/>
 <polygon class="cls-5" transform="translate(-174.14,-138.1)" points="298.53 267.22 238.74 300.6 237.17 382.22 300.19 344.36"/>
 <polygon class="cls-2" transform="translate(-174.14,-138.1)" points="611.27 204.33 538.17 245.15 536.24 344.95 613.3 298.65"/>
 <polygon class="cls-3" transform="translate(-174.14,-138.1)" points="743.51 464.75 826.78 512.71 802.32 528.1 719.01 479.78"/>
 <polygon class="cls-3" transform="translate(-174.14,-138.1)" points="1044.3 302.98 753.52 138.1 732.84 148.66 1027.5 315.54"/>
 <polygon class="cls-9" transform="translate(-174.14,-138.1)" points="1044.3 559.17 1025.1 570.6 1027.5 315.54 1044.3 302.98"/>
 <polygon class="cls-5" transform="translate(-174.14,-138.1)" points="1025.1 570.6 1027.5 315.54 732.84 148.66 732.84 404.44"/>
 <polygon class="cls-3" transform="translate(-174.14,-138.1)" points="677.87 793.09 679.44 628.91 443.44 496.43 443.44 661.07"/>
 <polygon class="cls-2" transform="translate(-174.14,-138.1)" points="1027.5 350.23 1027.5 315.54 732.84 148.66 732.84 181.49"/>
 <line class="cls-4" x1="833.74" x2="840.24" y1="178.7" y2="194.54"/>
 <line class="cls-4" x1="831.26" x2="842.42" y1="191.01" y2="181.1"/>
 <polygon class="cls-3" transform="translate(-174.14,-138.1)" points="958.03 289.19 969.97 296.9 969.92 302.47 958.03 295.08"/>
 <polygon class="cls-2" transform="translate(-174.14,-138.1)" points="644.42 654.87 731.87 700.22 731.59 709.63 644.42 664.55"/>
 <polygon class="cls-5" transform="translate(-174.14,-138.1)" points="648.24 724.81 707.17 755.37 708.86 765.83 639.29 729.85"/>
 <polygon class="cls-6" transform="translate(-174.14,-138.1)" points="469.72 558.27 523.7 588.44 523.45 662.12 469.72 633.72"/>
 <polygon class="cls-2" transform="translate(-174.14,-138.1)" points="546.01 599.32 599.98 629.49 599.73 703.17 546.01 674.77"/>
 <polygon class="cls-10" transform="translate(-174.14,-138.1)" points="949.66 354.59 1061 418.86 1060.6 501.91 949.66 440.39"/>
 <polygon class="cls-7" transform="translate(-174.14,-138.1)" points="684.99 189.81 711.86 207.05 711.78 218.85 684.99 202.16"/>
 <polygon class="cls-4" transform="translate(-174.14,-138.1)" points="958.03 376.48 979.76 390.34 979.71 397.69 958.03 384.18"/>
 <polygon class="cls-4" transform="translate(-174.14,-138.1)" points="958.03 390 972.75 399.12 972.71 406.47 958.03 397.69"/>
 <polygon class="cls-3" transform="translate(-174.14,-138.1)" points="684.99 208.11 702.11 220.05 702.03 228.33 684.99 216.94"/>
 <polygon class="cls-4" transform="translate(-174.14,-138.1)" points="928.22 320.45 964.04 342.79 963.96 350.89 928.22 329.11"/>
 <polygon class="cls-4" transform="translate(-174.14,-138.1)" points="928.18 334.33 943.54 343.69 943.47 351.79 928.18 342.99"/>
 <polygon class="cls-4" transform="translate(-174.14,-138.1)" points="904.91 449.3 940.72 471.64 940.64 479.74 904.91 457.96"/>
 <polygon class="cls-4" transform="translate(-174.14,-138.1)" points="925.36 446.82 940.72 456.18 940.64 464.28 925.36 455.48"/>
 <polygon class="cls-4" transform="translate(-174.14,-138.1)" points="688.48 301.58 724.29 323.92 724.21 332.02 688.48 310.24"/>
 <polygon class="cls-4" transform="translate(-174.14,-138.1)" points="688.16 287.1 703.52 296.45 703.44 304.56 688.16 295.75"/>
 <polyline class="cls-4" transform="translate(-174.14,-138.1)" points="695.84 233.72 695.84 248.19 743.05 273.78"/>
 <polyline class="cls-4" transform="translate(-174.14,-138.1)" points="912.77 445.75 912.77 431.29 879.2 414.12"/>
 <polyline class="cls-4" transform="translate(-174.14,-138.1)" points="700.68 323.04 700.68 329.11 747.89 354.69"/>
 <line class="cls-4" x1="793.55" x2="862.34" y1="293.19" y2="330.91"/>
 <polygon class="cls-4" transform="translate(-174.14,-138.1)" points="1021.1 460.59 1021.5 421.5 1013.3 416.63 1013.3 456.32"/>
 <polygon class="cls-4" transform="translate(-174.14,-138.1)" points="1013 455.55 1013.3 431.29 1005.2 426.42 1005.2 451.29"/>
 <polygon class="cls-4" transform="translate(-174.14,-138.1)" points="996.65 446.98 997.02 422.72 988.87 417.85 988.87 442.72"/>
 <polygon class="cls-4" transform="translate(-174.14,-138.1)" points="1004.8 451.27 1005.2 416.63 997.02 411.75 997.02 447.01"/>
 <polygon class="cls-3" transform="translate(-174.14,-138.1)" points="801.23 319.2 808.84 283.54 773.2 263.42 771.99 255.5 756.15 247.89 763.46 297.23"/>
 <polygon class="cls-9" transform="translate(-174.14,-138.1)" points="816.96 310.83 801.23 319.2 808.84 283.54 833.61 270.02"/>
 <polygon class="cls-6" transform="translate(-174.14,-138.1)" points="808.84 283.54 808.84 273.17 760.62 245.15 760.62 250.04 771.99 255.5 773.2 263.42"/>
 <polygon class="cls-2" transform="translate(-174.14,-138.1)" points="833.61 270.02 808.84 283.54 808.84 273.17 776.83 254.57 792.39 245.15"/>
 <polygon class="cls-8" transform="translate(-174.14,-138.1)" points="772.29 275.67 791.02 287.1 791.02 295.83 772.9 285.04"/>
 <polygon class="cls-1" transform="translate(-174.14,-138.1)" points="769.83 323.33 769.83 368.56 817.42 393.22 817.98 350.44"/>
 <polygon class="cls-3" transform="translate(-174.14,-138.1)" points="882.74 434.02 890.35 398.37 854.72 378.25 853.5 370.32 837.66 362.71 844.97 412.05"/>
 <polygon class="cls-9" transform="translate(-174.14,-138.1)" points="898.48 425.66 882.74 434.02 890.35 398.37 915.13 384.84"/>
 <polygon class="cls-6" transform="translate(-174.14,-138.1)" points="890.35 398.37 890.35 387.99 842.13 359.97 842.13 364.86 853.5 370.32 854.72 378.25"/>
 <polygon class="cls-2" transform="translate(-174.14,-138.1)" points="915.13 384.84 890.35 398.37 890.35 387.99 855.84 368.08 873.91 359.97"/>
 <polygon class="cls-8" transform="translate(-174.14,-138.1)" points="853.8 390.5 872.53 401.92 872.53 410.65 854.41 399.86"/>
 <polygon class="cls-7" transform="translate(-174.14,-138.1)" points="810.78 397.34 810.78 358.75 778.29 340.48 778.49 332.58 761.44 323.83 761.44 370.13"/>
 <polygon class="cls-9" transform="translate(-174.14,-138.1)" points="826.43 387.33 810.59 397.68 810.59 359.1 826.43 351.18"/>
 <polygon class="cls-1" transform="translate(-174.14,-138.1)" points="854.9 282.46 854.9 327.69 903.59 355.06 903.06 309.57"/>
 <polygon class="cls-2" transform="translate(-174.14,-138.1)" points="772.95 351.79 795.97 365.09 795.97 374.43 772.95 361.86"/>
 <polygon class="cls-10" transform="translate(-174.14,-138.1)" points="759 419.31 786.79 435.12 786.79 509.25 759 493.41"/>
 <polygon class="cls-9" transform="translate(-174.14,-138.1)" points="795.97 440.33 786.79 435.12 786.79 509.25 795.97 504.97"/>
 <polygon class="cls-3" transform="translate(-174.14,-138.1)" points="938.31 575.62 1021.6 623.58 997.11 638.97 913.81 590.64"/>
 <polygon class="cls-9" transform="translate(-174.14,-138.1)" points="1021.6 634.71 1021.6 623.58 997.11 638.97 997.11 649.93"/>
 <polygon class="cls-5" transform="translate(-174.14,-138.1)" points="997.11 649.93 997.11 638.97 913.81 590.64 913.81 602.22"/>
 <polygon class="cls-9" transform="translate(-174.14,-138.1)" points="826.78 523.84 826.78 512.71 802.32 528.1 802.32 539.07"/>
 <polygon class="cls-5" transform="translate(-174.14,-138.1)" points="802.32 539.07 802.32 528.1 719.01 479.78 719.01 491.35"/>
 <polygon class="cls-4" transform="translate(-174.14,-138.1)" points="544.64 281.11 558.61 273.07 559.04 291.41 544.64 299.75"/>
 <polygon class="cls-4" transform="translate(-174.14,-138.1)" points="565.95 269.65 579.92 261.61 580.36 279.95 565.95 288.29"/>
 <polygon class="cls-4" transform="translate(-174.14,-138.1)" points="587.48 257.57 601.44 249.53 601.88 267.87 587.48 276.21"/>
 <polygon class="cls-4" transform="translate(-174.14,-138.1)" points="544.64 308.05 558.61 300.01 559.04 318.35 544.64 326.69"/>
 <polygon class="cls-4" transform="translate(-174.14,-138.1)" points="565.95 296.59 579.92 288.55 580.36 306.89 565.95 315.23"/>
 <polygon class="cls-4" transform="translate(-174.14,-138.1)" points="587.48 284.51 601.44 276.47 601.88 294.81 587.48 303.15"/>
 <polygon class="cls-7" transform="translate(-174.14,-138.1)" points="544.07 251.71 602.45 218.85 602.18 240.99 544.07 273.78"/>
 <polygon class="cls-2" transform="translate(-174.14,-138.1)" points="245.9 327.1 275.94 309.92 276.63 319.2 245.9 336.86"/>
 <polygon class="cls-6" transform="translate(-174.14,-138.1)" points="180.71 382.19 204.21 368.75 203.84 377.23 180.71 389.83"/>
 <polygon class="cls-6" transform="translate(-174.14,-138.1)" points="245.9 309.1 290.76 283.54 291.46 292.82 245.9 318.86"/>
 <polygon class="cls-3" transform="translate(-174.14,-138.1)" points="611.27 204.33 592.99 197.66 522.74 238.3 538.17 245.15"/>
 <polygon class="cls-9" transform="translate(-174.14,-138.1)" points="522.74 333.8 522.74 238.3 538.17 245.15 536.24 344.95"/>
 <polygon class="cls-6" transform="translate(-174.14,-138.1)" points="206.97 477.6 237.01 460.42 237.71 469.7 206.97 487.36"/>
 <polygon class="cls-6" transform="translate(-174.14,-138.1)" points="206.97 459.6 251.84 434.04 252.54 443.32 206.97 469.36"/>
 <polygon class="cls-2" transform="translate(-174.14,-138.1)" points="984.05 302.47 995.99 310.19 995.95 319.2 984.05 311.81"/>
 <polygon class="cls-7" transform="translate(-174.14,-138.1)" points="265.32 557.64 295.62 540.31 295.14 551.25 265.32 567.48"/>
 <line class="cls-4" x1="359.36" x2="359.36" y1="437.52" y2="556.3"/>
 <polygon class="cls-4" transform="translate(-174.14,-138.1)" points="665.68 675.54 667.51 703.17 646.8 692.58 660.48 672.85"/>
 <path class="cls-2" d="m493.37 565.07c-2.48 6.53-8.08 9-14.62 6.46s-8.57-10.52-6.09-17z"/>
 <polygon class="cls-4" transform="translate(-174.14,-138.1)" points="707.02 698.12 708.86 725.75 688.15 715.16 701.83 695.43"/>
 <path class="cls-2" d="m539.6 216.38c0.47 2.62-0.79 7.59-3.18 8.76-24.42 11.91-63.09 10.32-63.09 10.32l-0.56-6.35c2.53-1.55 3.65-0.42 6.18-2a84.23 84.23 0 0 1-0.64-13.94c0-4.15 2.81-7.93 5.74-10.87 2.25-2.26 5.27-3.54 8.24-4.66a41.65 41.65 0 0 1 10.57-2.74c3.41-0.32 6.69 0.13 10.11 0.27a3.27 3.27 0 0 1 1.67 0.36c2 1.27-0.11 5.21 1.9 6.47a3.08 3.08 0 0 0 1.38 0.36c3.91 0.35 8.24-0.19 11.38 2.16s3.88 7 4.23 11.06z"/>
 <polygon class="cls-7" transform="translate(-174.14,-138.1)" points="895.14 360.58 895.14 322 862.65 303.73 862.85 295.83 845.8 287.08 845.8 333.37"/>
 <polygon class="cls-2" transform="translate(-174.14,-138.1)" points="858.96 313.4 881.98 326.7 881.98 336.04 858.96 323.47"/>
 <polygon class="cls-9" transform="translate(-174.14,-138.1)" points="910.98 350.23 895.14 360.58 895.14 322 910.98 314.08"/>
 <polygon class="cls-7" transform="translate(-174.14,-138.1)" points="980.61 303.73 992.55 311.44 992.51 320.45 980.61 313.07"/>
 <polygon class="cls-2" transform="translate(-174.14,-138.1)" points="949.66 527.71 977.45 543.51 977.45 617.65 949.66 601.81"/>
 <polygon class="cls-9" transform="translate(-174.14,-138.1)" points="986.63 548.73 977.45 543.51 977.45 617.65 986.63 613.37"/>
 <polygon class="cls-2" transform="translate(-174.14,-138.1)" points="682.23 746.62 683.02 683.98 674.65 679.03 673.43 741.85"/>
 <path class="cls-2" d="m534.72 587.65c-2.48 6.53-8.09 9-14.62 6.46s-8.58-10.52-6.09-17.05z"/>
 <path class="cls-7" d="m530.3 226.9s2.53 21.94-16 23l1.83 6.29s-12.8 2.6-14 0.79 0-6.07 0-6.07l-8.27-6.36-4.71-9.65z"/>
 <path class="cls-7" d="m303.57 265.9s-2.52 21.94 16 23l-1.83 6.29s12.8 2.6 14 0.79 0-6.07 0-6.07l8.33-6.29 4.66-9.65z"/>
 <ellipse class="cls-7" transform="rotate(-45)" cx="231.77" cy="519.54" rx="3.17" ry="4.7"/>
 <polygon class="cls-6" transform="translate(-174.14,-138.1)" points="668.46 591.39 683.02 585.6 683.02 605.09 668.46 605.09"/>
 <path class="cls-2" d="m479.19 355.01 12.29 103.76 18.3-1.22 4.23-90.78s-28.83-1.3-34.82-11.76z"/>
 <path class="cls-9" d="m492.59 255.99s14.7 7.5 33.95-2c0 0 15.43 4.26 18.77 8.15 0 0-18.6 3.73-10.89 20.67l19.09 30v47.09s-54.82 21.05-74.32-3.31c0 0-8-66.12-5.28-76.49 2.95-11.4-2.05-12.26 18.68-24.11z"/>
 <path class="cls-2" d="m483.57 235.24 25.29-4.19s3.9 14.11 0 18.37-16.79 3.16-16.79 3.16a27.3 27.3 0 0 1-8.5-17.34z"/>
 <path class="cls-2" d="m351.13 268.83-25.27-4.19s-3.9 14.11 0 18.37 16.8 3.16 16.8 3.16a27.31 27.31 0 0 0 8.47-17.34z"/>
 <path class="cls-9" d="m546 485.48s-1.53-5.69 17.36-6-11 31.68-36.25 29.24c0 0-11.83-5.76 3.2-19.49z"/>
 <polygon class="cls-9" transform="translate(-174.14,-138.1)" points="746.1 433.66 752.24 423.54 739.33 416.63 732.84 428.86"/>
 <path class="cls-6" d="m537.59 498.97a7.28 7.28 0 0 1-7.28-7.28v-1.48a7.29 7.29 0 0 1 4.59-6.77l10-4v12.21a7.28 7.28 0 0 1-7.31 7.32z"/>
 <path class="cls-2" d="m513.86 368.31 14.93 117.17s7.49 6.52 16.13-3.29l8.59-122.29s-21.22 7.9-39.65 8.41z"/>
 <polygon class="cls-3" transform="translate(-174.14,-138.1)" points="724.7 362.04 761.4 372.45 761.4 424.4 724.7 412.97"/>
 <path class="cls-9" d="m530.31 273.65s11 41.15 26.45 41.15l15.2-19.24-11.65-5.41-15-28s-14.64-3.25-15 11.5z"/>
 <path class="cls-9" d="m298.43 251.36s-19.89-3.91-12.54 5.16 47.97 23.38 70.23 13.83l3.24-8.34s0-21.12-3.24-22.18-20.51-11.53-20.51-11.53-32.43 6.1-34.59 11.53a44.24 44.24 0 0 0-2.59 11.53z"/>
 <polygon class="cls-7" transform="translate(-174.14,-138.1)" points="440.94 408.64 445.4 419.31 451.09 421.23 452.31 413.57 458.4 419.31 453.93 438.69 440.94 438.69 435.25 419.31"/>
 <path class="cls-2" d="m371.86 326.19-5.9 9.52s-4.27 40.15-9.66 54.3l-65.44-37.2v-11.14c-9.26 14.94-10 13-14.84 13.43s-11.79-54.51-11.79-54.51h16.77l3.25 14.22 13.5-20.81a20.19 20.19 0 0 1 6 4.77l4.63-7.23s38.87-8.87 53.71 5.47 9.77 29.18 9.77 29.18z"/>
 <path class="cls-11" d="m297.76 293.99a44.31 44.31 0 0 1 10.66-2.44c6.17-0.53 6.09 28.94 6.09 28.94s28 8.22 34.09 0 1.14-33.52-11-30.62c0 0 13.45-2.58 16.5 3.51s8.36 8.53 8 28-5.79 68.6-5.79 68.6l-65.45-37.17v-11.13s25.79-31.55 6.9-47.69z"/>
 <ellipse class="cls-7" transform="rotate(-45)" cx="44.794" cy="387.33" rx="4.7" ry="3.17"/>
 <ellipse class="cls-7" transform="rotate(-30)" cx="322.1" cy="459.87" rx="3.13" ry="3.91"/>
 <polygon class="cls-7" transform="translate(-174.14,-138.1)" points="749.17 422.67 742.45 420.32 738.68 418.94 738.04 414.56 740.72 409.56 743.05 412.26 741.61 415.42 747.89 417.28 748.75 420.46 748.76 420.46 753.16 421.84 752.24 423.54"/>
 <path class="cls-7" d="m492.59 255.99s19.62-1.68 33.95-2c0 0-12.43 15.4-33.95 2.59"/>
</svg>
