<svg id="Layer_13" data-name="Layer 13" xmlns="http://www.w3.org/2000/svg" xmlns:xlink="http://www.w3.org/1999/xlink" viewBox="0 0 1280 1024"><defs><style>.cls-1{fill:#f9d9b2;}.cls-2{fill:#ffecd2;}.cls-3{fill:#f9785a;}.cls-4{fill:#ffb685;}.cls-21,.cls-5{fill:#fab464;}.cls-12,.cls-5,.cls-7{isolation:isolate;}.cls-6{fill:#8e4b42;}.cls-7{fill:#476754;}.cls-8{fill:#f7b772;}.cls-9{fill:#d86a4c;}.cls-10{fill:#ffeda1;}.cls-11{fill:#f78f5c;}.cls-12,.cls-19{fill:#5e8e73;}.cls-13{fill:#a5efcd;}.cls-14{fill:url(#linear-gradient);}.cls-15{fill:#514342;}.cls-16{fill:#ead8c1;}.cls-17{fill:url(#linear-gradient-2);}.cls-18{fill:#ffeea4;}.cls-20{fill:#eda133;}.cls-22{fill:none;stroke:#fab464;stroke-miterlimit:10;stroke-width:5px;}.cls-23{fill:#ed9774;}.cls-24{fill:#e4fcb6;}</style><linearGradient id="linear-gradient" x1="243.03" y1="536.36" x2="226.51" y2="587" gradientUnits="userSpaceOnUse"><stop offset="0" stop-color="#ff928e"/><stop offset="1" stop-color="#feb3b1"/></linearGradient><linearGradient id="linear-gradient-2" x1="2015.32" y1="515.16" x2="1998.81" y2="565.8" gradientTransform="matrix(-1, 0, 0, 1, 2998.19, 0)" xlink:href="#linear-gradient"/></defs><path class="cls-1" d="M1071,521.53c-16.5-17.09-36-33.76-41.11-57-8.81-40.17,28.85-74.41,41.18-113.64A95.63,95.63,0,0,0,988.52,227c-48.71-4.47-96.39,28.35-144.37,18.85-38.43-7.62-68.79-41.19-107.8-44.79-45.89-4.23-84,33.65-127.8,47.92-52.43,17.06-109.27-.77-160.81-20.34s-105.77-41.4-160.1-32c-60.48,10.42-111.18,63.12-119.27,124-8,60.29,59.21,108.68,2,181.07-17.88,22.62-29.78,54.12-21.87,81.85,7.68,27,40.37,44,40.61,72,.18,22.12-20.67,39.72-22.35,61.77-1.44,18.93,12.17,36.43,28.91,45.41s36.14,11.16,55,13.19l-5.57,6c95.08,8.53,190.75,6.63,286.2,4.72l451.54-9c15.46-.31,31.31-.69,45.72-6.31s27.34-17.67,29.54-33c3.73-26.07-23.51-48.69-21-74.9,3.21-33.47,50.34-46.38,59.31-78.78C1102.76,561.7,1087.45,538.63,1071,521.53Z"/><rect class="cls-2" x="666.06" y="350.32" width="265.52" height="191.7" rx="17.52"/><circle class="cls-3" cx="711.39" cy="410.3" r="23.92"/><rect class="cls-4" x="753.95" y="396.26" width="135" height="11.21" rx="3.9"/><rect class="cls-4" x="753.95" y="420.88" width="135" height="11.21" rx="3.9"/><rect class="cls-4" x="691.23" y="457.4" width="197.72" height="11.21" rx="3.9"/><rect class="cls-4" x="691.23" y="485.7" width="197.72" height="11.21" rx="3.9"/><path class="cls-5" d="M457.81,737.37s-123-113-102.66-291.38L590.9,386S572.49,589,691.23,646.43Z"/><path class="cls-6" d="M242.15,846.74s-1.39,7.88-2.08,15.68a5.39,5.39,0,0,0,5.15,5.83c10.38.43,32.61,1.27,40.58.92a1.76,1.76,0,0,0,1.54-2.4h0a3.93,3.93,0,0,0-2-2.11l-36.71-16.87Z"/><path class="cls-4" d="M241,842.11l1.12,9.43s6.43,3,10.82-.38l-2.66-10.5Z"/><path class="cls-6" d="M178.83,851.79s-2.22,4-4.36,14.55a3.27,3.27,0,0,0,2.88,3.92c3.43.34,8.72.78,13,.75a3.26,3.26,0,0,0,3.23-3.65c-.47-3.86-1.93-10.19-6.44-15.12Z"/><path class="cls-4" d="M176.88,839.66l2.62,14.26s2.58,1.92,7.69.53L186,839.11Z"/><path class="cls-7" d="M236.88,549.19c-31.54-.52-66.33,8.28-66.33,8.28-9.4,54.85-1.65,118.12-1.65,118.12,24.42,6.4,73.76-5.14,73.76-5.14,4.06-22.93,1.19-86.23,1.19-86.23A103.86,103.86,0,0,0,282.41,572c-8-9.24-11.74-21-13.37-28C257.89,547.5,246.61,549.35,236.88,549.19Z"/><path class="cls-7" d="M330,502.74a6,6,0,0,0-7-2c-4.64,19.61-29,35.5-54,43.27,1.63,7,5.39,18.72,13.37,28C323.9,548.66,330,502.74,330,502.74Z"/><path class="cls-8" d="M329.29,503.69c.32,1-3.43,2.6-5.64-1.62-.08-2-1.31-10.67-.1-12.32C330,481,342.44,470,342.44,470a3,3,0,0,1,.37,4.12l-6.05,6.3c1.27,2.29,2.81,4.21,3.53,7a8.46,8.46,0,0,1-.84,6.24c-1.06,1.91-2.51,4.39-3.88,6.34A8.37,8.37,0,0,1,329.29,503.69Z"/><path class="cls-8" d="M334.12,484.51l-5.51,4.67-1.73,4.65,4.91,5.45s1.65-9.23,2.88-11.23S335.26,485.09,334.12,484.51Z"/><path class="cls-9" d="M204.94,523.59l-10,29a1,1,0,0,0,.48,1.26c2.73,1.52,12.59,5.89,24.46-1.64a5,5,0,0,0,2.27-3.52l3.25-25.11Z"/><path class="cls-4" d="M216.94,498.19h19.67a0,0,0,0,1,0,0v36.05a0,0,0,0,1,0,0H218.67a11.48,11.48,0,0,1-11.48-11.48V507.94a9.75,9.75,0,0,1,9.75-9.75Z" transform="translate(-157.66 101.91) rotate(-19.23)"/><path class="cls-10" d="M471.19,699.74s-123-113-102.66-291.39l235.75-60s-18.41,203,100.32,260.45Z"/><polygon class="cls-4" points="496.96 378.44 488.79 414.41 508.91 383.52 496.96 378.44"/><rect class="cls-11" x="484.69" y="370.99" width="38.19" height="12.55" rx="2.64" transform="translate(170.59 -156.69) rotate(21.21)"/><path class="cls-3" d="M503,336.84h20a5.42,5.42,0,0,1,5.42,5.42v31.79a0,0,0,0,1,0,0H497.54a0,0,0,0,1,0,0V342.26A5.42,5.42,0,0,1,503,336.84Z" transform="translate(163.32 -161.49) rotate(21.21)"/><ellipse class="cls-12" cx="414.65" cy="474.92" rx="22.27" ry="29.87"/><ellipse class="cls-3" cx="582.01" cy="506.3" rx="22.27" ry="29.87" transform="translate(-66.87 89.13) rotate(-8.28)"/><rect class="cls-13" x="446.01" y="431.91" width="127.49" height="13.45" rx="4.68" transform="translate(-103.49 162.63) rotate(-16.48)"/><rect class="cls-13" x="452.41" y="456.28" width="127.49" height="13.45" rx="4.68" transform="translate(-110.14 165.45) rotate(-16.48)"/><rect class="cls-4" x="470.17" y="511.35" width="75.48" height="13.45" rx="4.68" transform="translate(-126.1 165.37) rotate(-16.48)"/><rect class="cls-4" x="430.04" y="542.18" width="126.13" height="13.45" rx="4.68" transform="translate(-135.46 162.44) rotate(-16.48)"/><path class="cls-7" d="M182.64,588l-12.09-30.54s-29.46,20-34.31,45.39a69.78,69.78,0,0,1,25.61,6.86C164,597.74,182.64,588,182.64,588Z"/><path class="cls-7" d="M208.39,616.74s-33.08,18.69-44.24,2.73a12.57,12.57,0,0,1-2.3-9.75,69.78,69.78,0,0,0-25.61-6.86,35.06,35.06,0,0,0,3.81,24c19.55,35.76,72.71-2,72.71-2Z"/><path class="cls-14" d="M208.77,625.16s-2.51-10.34-1.5-14,3-8.38,9.53-7.34a96.07,96.07,0,0,1,14.28,3.81s-.39,4.78-5.37,3.24l3.09,2.39s-.44,3.82-4.65,1.78L227,618.2a3.34,3.34,0,0,1-4.9,1.12C219,617.31,217.55,626.4,208.77,625.16Z"/><path class="cls-2" d="M188.39,553.74l3.69,123.71s35.15-1.13,36.59-4.19,0-124,0-124l-6.77.35s-15,12.82-27,3Z"/><path class="cls-9" d="M249.58,568.19,262.66,566a.94.94,0,0,1,1,1.22l-1.3,3.92a.94.94,0,0,1-.76.64l-12.6,1.68a.94.94,0,0,1-1-1.14l.81-3.43A.92.92,0,0,1,249.58,568.19Z"/><path class="cls-15" d="M201.69,533s-24.12-13.43-13.3-30.53,17-32.17,38.4-22.22,6.71,24.56,6.71,24.56l-3.65-10.44s-4.68,14.91-16.25,18.22-8.26,3.64-8.26,3.64l2.9,5.5,1.93,5.53Z"/><path class="cls-4" d="M211.17,517.1s-7.85-5.39-8.42-.85,7.06,6.56,10.85,4.87Z"/><path class="cls-16" d="M188.39,554.79l14,19.65,7.93-11.08v-7.74s-13.83-.86-15.39-3S188.39,554.79,188.39,554.79Z"/><polygon class="cls-16" points="210.28 555.62 210.28 563.37 219.06 573.48 224.15 569.17 225.36 549.42 222.61 549.56 210.28 555.62"/><path class="cls-15" d="M983.75,825.55s1.39,7.88,2.07,15.68a5.37,5.37,0,0,1-5.14,5.82c-10.39.43-32.61,1.27-40.58.92a1.75,1.75,0,0,1-1.54-2.4h0a3.93,3.93,0,0,1,2-2.11l36.71-16.87Z"/><path class="cls-4" d="M984.89,820.92l-1.12,9.42s-6.43,3-10.82-.38l2.66-10.5Z"/><path class="cls-15" d="M984,644.64c.49,2.46,2.6,122.83-10.27,176.78a1.84,1.84,0,0,0,1.07,2.13,32.25,32.25,0,0,0,10.48,2.13,3.15,3.15,0,0,0,3.13-2.27c3.68-12.51,21.3-75.22,23.6-135.12,2.57-66.94,0-2.28,0-2.28l-1.5-41.38Z"/><path class="cls-15" d="M1047.07,830.59s2.21,4,4.36,14.55a3.29,3.29,0,0,1-2.89,3.93c-3.43.33-8.71.77-12.94.74a3.27,3.27,0,0,1-3.24-3.65c.47-3.86,1.93-10.19,6.44-15.12Z"/><path class="cls-4" d="M1049,818.47l-2.61,14.25s-2.58,1.92-7.7.53l1.25-15.34Z"/><path class="cls-15" d="M1056.25,649.44c10,62.33-2,152.61-6.54,173.09a4.35,4.35,0,0,1-3.75,3.4,19.43,19.43,0,0,1-5.68-.17,4.06,4.06,0,0,1-3.26-3.89c-.45-14.89.12-63.9-6.7-99.09a34.72,34.72,0,0,0-14-21.68h0a26.64,26.64,0,0,1-11.18-20.93l-1-36.74a1.51,1.51,0,0,1,1.69-1.54l49.13,6.3A1.49,1.49,0,0,1,1056.25,649.44Z"/><path class="cls-6" d="M1060.56,540c7.36,46.61,2.84,98.18,1.46,111.49a4.61,4.61,0,0,1-3.77,4c-21.33,3.91-56.68-3-67.27-5.21-1.89-.41-6.74-3.7-7-5.62-2.09-15.79,1.6-42.85,2.08-62A11.18,11.18,0,0,0,967,574.43l-.29.28a4.57,4.57,0,0,1-7.45-5c3.18-7.93,6.18-18.67,8.51-28a20.28,20.28,0,0,1,22.92-15.07c21.88,3.55,55.35,8,66,9.42A4.55,4.55,0,0,1,1060.56,540Z"/><path class="cls-15" d="M992.44,483.78a.65.65,0,0,1-.13-.16c-.95-1.9-17-27.26-.33-29.3,18.33-2.24,24.62,12.37,25.1,12.6l.09,0,14.67,2.47a.51.51,0,0,1,.41.62l-8.88,38a.52.52,0,0,1-.83.29Z"/><path class="cls-9" d="M1021,502.39l10,29a1,1,0,0,1-.47,1.26c-2.74,1.51-12.59,5.88-24.47-1.65a4.91,4.91,0,0,1-2.27-3.52l-3.25-25.11Z"/><path class="cls-4" d="M1000.77,477h17.94a0,0,0,0,1,0,0V513a0,0,0,0,1,0,0H999a9.75,9.75,0,0,1-9.75-9.75V488.47A11.48,11.48,0,0,1,1000.77,477Z" transform="translate(1788.89 1293.13) rotate(-160.77)"/><path class="cls-17" d="M1017.12,604s2.52-10.34,1.5-14-3-8.38-9.53-7.33a96.34,96.34,0,0,0-14.27,3.8s.39,4.78,5.37,3.24l-3.09,2.39s.44,3.83,4.64,1.78L998.87,597a3.35,3.35,0,0,0,4.9,1.13C1006.87,596.11,1008.35,605.21,1017.12,604Z"/><path class="cls-2" d="M1037.5,532.55l-3.68,123.7s-35.15-1.13-36.59-4.19-.64-125.18-.64-125.18l7.41,1.52s15,12.82,27,3Z"/><path class="cls-4" d="M1014.73,495.9s7.85-5.39,8.42-.85-7.07,6.56-10.85,4.87Z"/><path class="cls-16" d="M1037.5,533.59l-14,19.65-8.45-11.79.2-7.19s14.14-.69,15.7-2.85S1037.5,533.59,1037.5,533.59Z"/><polygon class="cls-16" points="1015.61 534.42 1015.61 542.17 1006.84 552.28 1001.75 547.97 1000.53 528.22 1003.29 528.36 1015.61 534.42"/><path class="cls-6" d="M1036.7,555.33,1055.55,536s22.23,30.78,22.63,66.21L1061.07,608C1057.6,595.6,1050.48,578.53,1036.7,555.33Z"/><path class="cls-8" d="M1044.42,653.18a3.73,3.73,0,0,0,3.74-1.34c2.32-2.93,6.82-8.5,8.87-10.16a7.77,7.77,0,0,0-4.73-1.28c-3.22,0-5.5-1.9-5.18-3.61l15.72-2.66c.87-1.33,4.91-9-.73-29.11l17.12-5.75a73.19,73.19,0,0,1-11,40.39s-6.75,15.64-13.22,17.57-14-4.8-14-4.8Z"/><polygon class="cls-18" points="115.44 369.59 115.44 454.54 145.08 454.54 162.7 472.17 159.97 454.54 238.32 454.54 238.32 369.59 115.44 369.59"/><circle class="cls-19" cx="138.99" cy="396.9" r="10.68"/><path class="cls-15" d="M232.23,531.7s7.27-6.38,7.17-10,2.33,6.68,2.33,6.68Z"/><path class="cls-15" d="M168.9,675.59s-14.09,150.48,8,164.07c0,0,8.21,4.71,16.68-.55L213.9,709.49l3.92-32Z"/><path class="cls-15" d="M212,721.5s11,125.39,23.87,122.39,21.45-2,24.17-8.51-17.4-164.93-17.4-164.93l-35.63,7Z"/><rect class="cls-20" x="128.31" y="430.12" width="89.51" height="5.7" rx="1.93"/><rect class="cls-20" x="128.31" y="416.02" width="46.24" height="5.7" rx="1.93"/><circle class="cls-3" cx="923.81" cy="346.45" r="44.17"/><path class="cls-21" d="M930.43,353.74H931V361H917v-7.23h.56a11.3,11.3,0,1,1,12.86,0Z"/><rect class="cls-21" x="917.05" y="364.94" width="13.88" height="2.8"/><rect class="cls-21" x="920.29" y="369.67" width="7.41" height="2.8"/><line class="cls-22" x1="901.07" y1="331.71" x2="908.48" y2="334.67"/><line class="cls-22" x1="923.89" y1="320.42" x2="923.89" y2="328.3"/><line class="cls-22" x1="946.55" y1="331.95" x2="939.51" y2="336.67"/><polygon class="cls-15" points="210.28 563.37 204.85 570.96 208.16 575.93 202.72 654.62 208.85 669.79 214.79 653.6 212.02 575.93 215.89 570.57 210.28 563.37"/><path class="cls-23" d="M219.06,581.71l-12.69,81a3.94,3.94,0,0,0,3.72,4.55l56.38,2.51a3.94,3.94,0,0,0,4-3.18l16.84-86a3.94,3.94,0,0,0-4-4.7l-60.53,2.44A3.94,3.94,0,0,0,219.06,581.71Z"/><path class="cls-9" d="M239.78,579.26l1.08-5.61a1.3,1.3,0,0,1,1.14-1l26.43-2.68a1.31,1.31,0,0,1,1.4,1.59l-1.69,7a1.3,1.3,0,0,1-1.19,1l-25.83,1.3A1.3,1.3,0,0,1,239.78,579.26Z"/><polygon class="cls-15" points="1015.09 541.45 1009.65 549.04 1012.96 554.02 1004.89 630.13 1013.65 647.87 1023.18 632.4 1017.13 554.09 1020.7 548.66 1015.09 541.45"/><rect class="cls-24" x="904.91" y="562.5" width="265.52" height="62.54" rx="17.52" transform="translate(-74.71 155.68) rotate(-8.28)"/><circle class="cls-12" cx="940.13" cy="607.97" r="14.1"/><rect class="cls-13" x="960.2" y="580.17" width="182.72" height="11.21" rx="3.9" transform="translate(-73.42 157.6) rotate(-8.28)"/><rect class="cls-13" x="962.81" y="598.13" width="182.72" height="11.21" rx="3.9" transform="translate(-75.98 158.16) rotate(-8.28)"/></svg>