<?xml version="1.0" encoding="UTF-8" standalone="no"?>
<svg
   xmlns:dc="http://purl.org/dc/elements/1.1/"
   xmlns:cc="http://creativecommons.org/ns#"
   xmlns:rdf="http://www.w3.org/1999/02/22-rdf-syntax-ns#"
   xmlns:svg="http://www.w3.org/2000/svg"
   xmlns="http://www.w3.org/2000/svg"
   xmlns:sodipodi="http://sodipodi.sourceforge.net/DTD/sodipodi-0.dtd"
   xmlns:inkscape="http://www.inkscape.org/namespaces/inkscape"
   inkscape:version="1.0beta2 (2b71d25, 2019-12-03)"
   height="1725.1313"
   width="1361.1128"
   sodipodi:docname="Language.svg"
   id="svg3001"
   version="1.1"
   viewBox="0 0 1361.1128 1725.1313">
  <metadata
     id="metadata3005">
    <rdf:RDF>
      <cc:Work
         rdf:about="">
        <dc:format>image/svg+xml</dc:format>
        <dc:type
           rdf:resource="http://purl.org/dc/dcmitype/StillImage" />
        <dc:title></dc:title>
      </cc:Work>
    </rdf:RDF>
  </metadata>
  <sodipodi:namedview
     fit-margin-bottom="0"
     fit-margin-right="0"
     fit-margin-left="0"
     fit-margin-top="0"
     inkscape:current-layer="svg3001"
     inkscape:window-maximized="0"
     inkscape:window-y="23"
     inkscape:window-x="0"
     inkscape:cy="789.16317"
     inkscape:cx="900.02687"
     inkscape:zoom="0.31591797"
     showgrid="false"
     id="namedview3003"
     inkscape:window-height="844"
     inkscape:window-width="1440"
     inkscape:pageshadow="2"
     inkscape:pageopacity="0"
     guidetolerance="10"
     gridtolerance="10"
     objecttolerance="10"
     borderopacity="1"
     inkscape:document-rotation="0"
     bordercolor="#666666"
     pagecolor="#ffffff" />
  <defs
     id="defs2864">
    <style
       id="style2862">.cls-1,.cls-10{fill:none;}.cls-1,.cls-2{stroke:#000;}.cls-1,.cls-10,.cls-2,.cls-8,.cls-9{stroke-miterlimit:10;stroke-width:2px;}.cls-2,.cls-4,.cls-8{fill:#fff;}.cls-3{fill:#7aa4f3;}.cls-5,.cls-9{fill:#514342;}.cls-6{fill:#ef5947;}.cls-7{fill:#73af00;}.cls-10,.cls-8,.cls-9{stroke:#514342;}.cls-11{fill:#0052b4;}.cls-12{fill:#f0f0f0;}.cls-13{fill:#464655;}.cls-14{fill:#f5f5f5;}</style>
  </defs>
  <g
     transform="translate(-360.85318,-300.71097)"
     data-name="clause rewind"
     id="clause_rewind">
    <rect
       id="rect2866"
       height="11.03"
       width="113.86"
       y="627.19"
       x="644.97998"
       class="cls-1" />
    <rect
       id="rect2868"
       height="11.04"
       width="113.86"
       y="649.92999"
       x="644.97998"
       class="cls-1" />
    <path
       inkscape:connector-curvature="0"
       id="path2870"
       d="M 775.43,600.21 H 566.94 v 100.17 h 110 L 721.06,728 709.27,700.34 h 66.16 z m -180,53.67 c -12.23,-16 -1.1,-33.58 14.15,-33.58 A 19.36,19.36 0 0 1 629,639.66 c 0,15.22 -17.57,26.34 -33.54,14.22 z"
       class="cls-2" />
    <rect
       id="rect2872"
       height="11.03"
       width="113.86"
       y="627.19"
       x="644.97998"
       class="cls-3" />
    <rect
       id="rect2874"
       height="11.04"
       width="113.86"
       y="649.92999"
       x="644.97998"
       class="cls-3" />
    <circle
       id="circle2876"
       r="49.880001"
       cy="945.02002"
       cx="963.16998"
       class="cls-4" />
    <path
       inkscape:connector-curvature="0"
       id="path2878"
       d="m 1075.24,1259.18 c 0,0 7.77,216.68 -8.75,263.32 -16.52,46.64 -23.32,197.25 -24.29,202.1 -4,20.1 -46.64,7.78 -56.36,2 -9.72,-5.78 1.95,-142.84 11.66,-179.76 9.71,-36.92 -1.94,-173 -6.8,-185.58 -4.86,-12.58 -22.35,-39.84 -35,72.87 -12.65,112.71 -108.8,293.71 -108.8,293.71 -26.24,15.55 -51.82,-12 -51.82,-12 5.83,-62.19 79,-250.69 72.22,-274 0,0 1,-96.19 -32.71,-151.25 z"
       class="cls-1" />
    <path
       inkscape:connector-curvature="0"
       id="path2880"
       d="m 797.67,1718.13 c 0,0 -5.67,14.09 -4.54,53.76 0,0 25.91,9.72 40.17,3.24 0,0 0.64,-38.87 9.06,-45.34 0,0 -15.76,12.74 -44.69,-11.66 z"
       class="cls-1" />
    <path
       inkscape:connector-curvature="0"
       id="path2882"
       d="m 987.46,1728.17 c 0,0 1.43,29.11 3.42,39 0,0 22,7.28 42.28,-2.32 0,0 -7.21,-27.3 -2.06,-29.58 0,0.02 -17.83,2.87 -43.64,-7.1 z"
       class="cls-1" />
    <path
       inkscape:connector-curvature="0"
       id="path2884"
       d="m 833.3,1775.13 c 0,0 65.18,18.8 73.19,16.19 7,-2.26 38.38,35.47 -49.71,32.23 0,0 -63,1.46 -66.88,-8.26 -3,-7.39 -1.3,-29.76 -0.33,-40 a 4.2,4.2 0 0 1 5.45,-3.62 c 8.19,2.51 25.07,6.76 38.28,3.46 z"
       class="cls-5" />
    <path
       inkscape:connector-curvature="0"
       id="path2886"
       d="m 1028.74,1822.74 c -30.72,1 -32.53,-1 -32.53,-1 -11.9,-27 -5.33,-54.58 -5.33,-54.58 0,0 24,6.69 42.28,-2.31 0,0 22.7,8.67 40.92,6.64 18.22,-2.03 36.2,-5.43 47.44,15.51 11.24,20.94 -62.04,34.72 -92.78,35.74 z"
       class="cls-5" />
    <path
       inkscape:connector-curvature="0"
       id="path2888"
       d="m 788.82,1808.81 c 0,0 82,24.62 128.69,-5.61 0,0 12.09,19.22 -35.2,25.69 -47.29,6.47 -91.12,-1.94 -93.49,-6.9 -2.37,-4.96 0,-13.18 0,-13.18 z"
       class="cls-2" />
    <path
       inkscape:connector-curvature="0"
       id="path2890"
       d="m 994.59,1816.59 c 0,0 86.77,10.94 127.42,-26.95 0,0 15.26,16.81 -30.18,31.43 -45.44,14.62 -90.06,14 -93.26,9.49 -3.2,-4.51 -3.98,-13.97 -3.98,-13.97 z"
       class="cls-2" />
    <polygon
       id="polygon2892"
       points="1525.19,763.59 1466.6,800.29 1482.23,763.59 1292.57,763.59 1292.57,656.05 1633.28,656.05 1633.28,763.59 "
       class="cls-2" />
    <circle
       id="circle2894"
       r="21.540001"
       cy="694.76001"
       cx="1337.42"
       class="cls-6" />
    <rect
       id="rect2896"
       height="9.9300003"
       width="202.97"
       y="678.08002"
       x="1387.13"
       class="cls-7" />
    <rect
       id="rect2898"
       height="9.9300003"
       width="202.97"
       y="697.08002"
       x="1387.13"
       class="cls-7" />
    <rect
       id="rect2900"
       height="9.9300003"
       width="109.67"
       y="717.15997"
       x="1387.13"
       class="cls-7" />
    <circle
       id="circle2902"
       r="26.129999"
       cy="637.13"
       cx="615.76001"
       class="cls-4" />
    <circle
       id="circle2904"
       r="19.360001"
       cy="644.40997"
       cx="598.81"
       class="cls-6" />
    <circle
       id="circle2906"
       r="116.44"
       cy="893.01001"
       cx="1029.34"
       class="cls-8" />
    <path
       inkscape:connector-curvature="0"
       id="path2908"
       d="m 1029.35,827.6 a 65.41,65.41 0 1 0 65.4,65.4 65.4,65.4 0 0 0 -65.4,-65.4 z M 1023,951.34 a 51.16,51.16 0 1 1 51.16,-51.15 51.15,51.15 0 0 1 -51.16,51.15 z"
       class="cls-9" />
    <path
       inkscape:connector-curvature="0"
       id="path2910"
       d="m 1015.81,776.69 c 0,0 20.9,-12.57 30.58,-23.34 l 14.67,2.75 c 0,0 -8.18,21.9 -14.56,22.15 -6.38,0.25 -30.69,-1.56 -30.69,-1.56 z"
       class="cls-9" />
    <path
       inkscape:connector-curvature="0"
       id="path2912"
       d="m 1113.56,782.59 c 4,4.51 -10.3,17.86 -0.67,29.34 0,0 -19.28,-26.51 -75.21,-35.31 0,0 12.56,-7.42 17.23,-20.69 0,0 40.29,5.88 58.65,26.66 z"
       class="cls-10" />
    <path
       inkscape:connector-curvature="0"
       id="path2914"
       d="m 1164.19,930.59 c -2.67,5.38 -21.65,-2.57 -28.66,10.68 0,0 18.53,-28.1 5.63,-83.23 0,0 11.61,8.85 25.66,8.17 0,0 9.71,39.54 -2.63,64.38 z"
       class="cls-8" />
    <path
       inkscape:connector-curvature="0"
       id="path2916"
       d="m 1064.21,1028.45 c -6,0.39 -8.63,-20 -23.61,-19.44 0,0 33.6,2 74.84,-36.84 0,0 -1.84,14.47 5.79,26.29 0,0 -29.35,28.23 -57.02,29.99 z"
       class="cls-8" />
    <path
       inkscape:connector-curvature="0"
       id="path2918"
       d="m 914.12,873.75 c 0,0 -7.91,-23.08 -16.4,-34.8 L 904,825.64 c 0,0 19.2,12.14 18.11,18.43 -1.09,6.29 -7.99,29.68 -7.99,29.68 z"
       class="cls-9" />
    <path
       inkscape:connector-curvature="0"
       id="path2920"
       d="m 946,779.68 c 5.55,-2.59 16.23,15.44 30.25,9.34 0,0 -32.74,10.67 -56.41,62.14 0,0 -4,-14.16 -16,-22.34 -0.1,0 16.49,-37.21 42.16,-49.14 z"
       class="cls-10" />
    <path
       inkscape:connector-curvature="0"
       id="path2922"
       d="m 954.3,983.64 c 0,0 -23.89,-4.95 -38.3,-3.64 l -8.27,-12.16 c 0,0 20.22,-10.34 25.08,-6.2 4.86,4.14 21.49,22 21.49,22 z"
       class="cls-9" />
    <path
       inkscape:connector-curvature="0"
       id="path2924"
       d="m 889.54,908.35 c 0.6,-6.1 21.55,-6.11 23.44,-21.28 0,0 -7.49,33.61 24.77,80.18 0,0 -14.26,-3.71 -27.4,2.45 0,0 -23.58,-33.23 -20.81,-61.35 z"
       class="cls-10" />
    <path
       inkscape:connector-curvature="0"
       id="path2926"
       d="M 1074.15,900.19 A 51.16,51.16 0 1 1 1023,849 a 51.15,51.15 0 0 1 51.15,51.19 z"
       class="cls-8" />
    <rect
       id="rect2928"
       height="73.790001"
       width="60.029999"
       y="889.03998"
       x="858.77002"
       class="cls-8" />
    <path
       inkscape:connector-curvature="0"
       id="path2930"
       d="m 954.43,885.85 c -2.19,-0.06 -1.48,6.93 -0.22,33.36 0,0 1.51,22.89 -36.92,14.9 -38.43,-7.99 -39.51,-41.67 -39.51,-41.67 -6,-0.43 -8.21,-10.8 -8.21,-10.8 -4.75,-24.61 16,-12.95 16,-12.95 a 110.92,110.92 0 0 0 39.3,-21.49 c 12.89,-11.08 19.91,-22.62 23.75,-20.83 6.69,3.11 -3.62,43.28 3.67,45.77 0.92,0.32 2.6,0.19 5.83,1.3 a 16,16 0 0 1 2,0.81 6.21,6.21 0 0 1 3.4,6.88 c -0.52,2.37 -2.64,4.87 -9.09,4.72 z"
       class="cls-2" />
    <path
       inkscape:connector-curvature="0"
       id="path2932"
       d="m 851.72,925.26 c -15,-0.49 -27.88,-36.43 -28.6,-64.7 -0.29,-11.23 -0.47,-27.55 10.21,-43.58 12.41,-18.61 31.27,-24.52 38.14,-26.56 3.2,-0.95 33,-9.27 61.29,8.17 7.85,4.84 25.23,15.57 25.88,30 1.2,27 -44.23,55.63 -66.06,46.31 -7.76,-3.32 -11.77,-9.83 -18.3,-7.87 -5.1,1.53 -5.46,8.87 -4.71,14.64 0.78,6 1.87,5.13 3.94,10.25 4.55,11.2 -9.74,33.73 -21.79,33.34 z"
       class="cls-5" />
    <path
       inkscape:connector-curvature="0"
       id="path2934"
       d="m 1075.83,906.67 c 0,0 -7.09,-20 -4.65,-32.75 2.44,-12.75 -0.49,-21.51 3.18,-21.51 3.67,0 3.62,4.19 4.89,12.22 1.17,7.4 6.45,10.88 8.4,7.94 1.95,-2.94 -0.27,-9.91 -0.27,-9.91 l 0.18,-9.76 -0.25,-5.38 c 0,0 2.69,-10 14.91,2.2 12.22,12.2 16.38,11.49 16.38,11.49 0,0 9.77,0 8.31,5.37 -1.46,5.37 -18.33,41.06 -18.33,41.06 0,0 -22.98,6.11 -32.75,-0.97 z"
       class="cls-8" />
    <path
       inkscape:connector-curvature="0"
       id="path2936"
       d="m 1088.35,845.91 -9.65,11.41 8.24,11 c 0,0 -2.86,-20.46 1.41,-22.41 z"
       class="cls-8" />
    <path
       inkscape:connector-curvature="0"
       id="path2938"
       d="m 838.78,1411.25 c 0,0 191.52,12.09 268.6,-57.87 0,0 -15.63,-178.08 -30.52,-196.87 0,0 36.27,6.48 38.86,-86.15 2.59,-92.63 -6.48,-163.24 -6.48,-163.24 0,0 -20.89,3.08 -32,-0.43 -16.21,-5.14 -21.16,93.06 -21.16,93.06 0,0 -0.7,-17.23 -77.73,-29.15 -54.42,-8.42 -59.28,-17.16 -59.28,-17.16 l -63.8,-0.54 a 50.18,50.18 0 0 1 -24.13,18.1 49.43,49.43 0 0 1 -22.89,2.15 c 0,0 -46.86,-11 -56.57,93.28 0,0 -18.79,48.59 25.91,78.38 l 25.26,13.61 c 0,0 15.84,230.81 35.93,252.83 z"
       class="cls-5" />
    <path
       inkscape:connector-curvature="0"
       id="path2940"
       d="m 1057.51,988.28 c 0,0 27.12,39.65 29.06,86.94 0,0 -21.7,-72.55 -35.62,-82.92 z"
       class="cls-4" />
    <path
       inkscape:connector-curvature="0"
       id="path2942"
       d="m 853.7,949 c 0,0 32.06,-8.1 68.66,1.48 l 25.91,21 c 0,0 -59.16,-15.09 -89.5,-6.26 -30.34,8.83 -27.63,9.33 -27.63,9.33 z"
       class="cls-8" />
    <path
       inkscape:connector-curvature="0"
       id="path2944"
       d="m 1026.63,990.18 c 0,0 20.9,12.57 30.57,23.34 l 14.68,-2.75 c 0,0 -8.18,-21.9 -14.56,-22.15 -6.38,-0.25 -30.69,1.56 -30.69,1.56 z"
       class="cls-9" />
    <rect
       id="rect2946"
       height="114.2"
       width="150.47"
       y="595.69"
       x="915.41998"
       class="cls-4" />
    <rect
       id="rect2948"
       height="114.2"
       width="78.900002"
       y="595.69"
       x="1065.89"
       class="cls-3" />
    <rect
       id="rect2950"
       height="114.2"
       width="78.900002"
       y="595.69"
       x="915.41998"
       class="cls-6" />
    <path
       inkscape:connector-curvature="0"
       id="path2952"
       d="m 762.18,876.93 c -1.77,0 -5.92,-2.35 -8.94,-4.07 -4.85,-2.76 -9.43,-5.36 -13.81,-5.36 -4.38,0 -9,2.6 -13.82,5.36 -3,1.72 -7.17,4.07 -8.94,4.07 -1.77,0 -5.93,-2.35 -8.95,-4.07 -4.85,-2.76 -9.43,-5.36 -13.81,-5.36 -4.38,0 -9,2.6 -13.81,5.36 -3,1.72 -7.17,4.07 -9,4.07 -1.83,0 -5.92,-2.35 -8.95,-4.07 -4.85,-2.76 -9.43,-5.36 -13.81,-5.36 -4.38,0 -9,2.6 -13.81,5.36 -3,1.72 -7.17,4.07 -9,4.07 -1.83,0 -5.92,-2.35 -9,-4.07 -4.85,-2.76 -9.43,-5.36 -13.81,-5.36 -4.38,0 -9,2.6 -13.81,5.36 -3,1.72 -7.17,4.07 -8.95,4.07 -1.78,0 -5.92,-2.35 -8.94,-4.07 -4.68,-2.66 -9.1,-5.16 -13.34,-5.34 v 9.88 c 2,0.33 5.69,2.45 8.47,4 4.85,2.75 9.43,5.35 13.81,5.35 4.38,0 9,-2.6 13.81,-5.35 3,-1.72 7.17,-4.07 9,-4.07 1.83,0 5.92,2.35 9,4.07 4.85,2.75 9.43,5.35 13.81,5.35 4.38,0 9,-2.6 13.81,-5.35 3,-1.72 7.17,-4.07 8.95,-4.07 1.78,0 5.92,2.35 9,4.07 4.85,2.75 9.43,5.35 13.81,5.35 4.38,0 9,-2.6 13.81,-5.35 3,-1.72 7.17,-4.07 8.95,-4.07 1.78,0 5.92,2.35 8.94,4.07 4.85,2.75 9.43,5.35 13.81,5.35 4.38,0 9,-2.6 13.82,-5.35 3,-1.72 7.17,-4.07 8.94,-4.07 1.77,0 5.93,2.35 9,4.07 4.85,2.75 9.43,5.35 13.81,5.35 4.38,0 9,-2.6 13.82,-5.35 2.78,-1.58 6.5,-3.7 8.46,-4 v -9.88 c -4.23,0.18 -8.66,2.68 -13.33,5.34 -3.07,1.72 -7.18,4.07 -9,4.07 z"
       class="cls-11" />
    <path
       inkscape:connector-curvature="0"
       id="path2954"
       d="m 557.83,803.5 c 2,0.33 5.69,2.44 8.47,4 4.85,2.76 9.43,5.36 13.81,5.36 4.38,0 9,-2.6 13.81,-5.36 3,-1.71 7.17,-4.07 9,-4.07 1.83,0 5.92,2.36 9,4.07 4.85,2.76 9.43,5.36 13.81,5.36 4.38,0 9,-2.6 13.81,-5.36 3,-1.71 7.17,-4.07 8.95,-4.07 1.78,0 5.92,2.36 9,4.07 4.85,2.76 9.43,5.36 13.81,5.36 4.38,0 9,-2.6 13.81,-5.36 3,-1.71 7.17,-4.07 8.95,-4.07 1.78,0 5.92,2.36 8.94,4.07 4.85,2.76 9.43,5.36 13.81,5.36 4.38,0 9,-2.6 13.82,-5.36 3,-1.71 7.17,-4.07 8.94,-4.07 1.77,0 5.93,2.36 9,4.07 4.85,2.76 9.43,5.36 13.81,5.36 4.38,0 9,-2.6 13.82,-5.36 2.78,-1.58 6.5,-3.69 8.46,-4 v -9.88 c -4.23,0.18 -8.66,2.68 -13.33,5.34 -3,1.71 -7.17,4.07 -9,4.07 -1.83,0 -5.92,-2.36 -8.94,-4.07 -4.85,-2.76 -9.44,-5.36 -13.82,-5.36 -4.38,0 -9,2.6 -13.81,5.36 -3,1.71 -7.17,4.07 -9,4.07 -1.83,0 -5.92,-2.36 -8.94,-4.07 -4.85,-2.76 -9.43,-5.36 -13.81,-5.36 -4.38,0 -9,2.6 -13.82,5.36 -3,1.71 -7.17,4.07 -8.94,4.07 -1.77,0 -5.92,-2.36 -8.95,-4.07 -4.85,-2.76 -9.43,-5.36 -13.81,-5.36 -4.38,0 -9,2.6 -13.81,5.36 -3,1.71 -7.17,4.07 -9,4.07 -1.83,0 -5.92,-2.36 -9,-4.07 -4.85,-2.76 -9.43,-5.36 -13.81,-5.36 -4.38,0 -9,2.6 -13.81,5.36 -3,1.71 -7.17,4.07 -8.95,4.07 -1.78,0 -5.92,-2.36 -8.94,-4.07 -4.68,-2.66 -9.1,-5.16 -13.34,-5.34 z"
       class="cls-11" />
    <path
       inkscape:connector-curvature="0"
       id="path2956"
       d="m 762.18,827.66 c -1.77,0 -5.92,-2.35 -8.94,-4.07 -4.85,-2.75 -9.43,-5.36 -13.81,-5.36 -4.38,0 -9,2.61 -13.82,5.36 -3,1.72 -7.17,4.07 -8.94,4.07 -1.77,0 -5.93,-2.35 -8.95,-4.07 -4.85,-2.75 -9.43,-5.36 -13.81,-5.36 -4.38,0 -9,2.61 -13.81,5.36 -3,1.72 -7.17,4.07 -9,4.07 -1.83,0 -5.92,-2.35 -8.95,-4.07 -4.85,-2.75 -9.43,-5.36 -13.81,-5.36 -4.38,0 -9,2.61 -13.81,5.36 -3,1.72 -7.17,4.07 -9,4.07 -1.83,0 -5.92,-2.35 -9,-4.07 -4.85,-2.75 -9.43,-5.36 -13.81,-5.36 -4.38,0 -9,2.61 -13.81,5.36 -3,1.72 -7.17,4.07 -8.95,4.07 -1.78,0 -5.92,-2.35 -8.94,-4.07 -4.68,-2.65 -9.1,-5.16 -13.34,-5.34 v 9.89 c 2,0.33 5.69,2.44 8.47,4 4.85,2.75 9.43,5.35 13.81,5.35 4.38,0 9,-2.6 13.81,-5.35 3,-1.72 7.17,-4.07 9,-4.07 1.83,0 5.92,2.35 9,4.07 4.85,2.75 9.43,5.35 13.81,5.35 4.38,0 9,-2.6 13.81,-5.35 3,-1.72 7.17,-4.07 8.95,-4.07 1.78,0 5.92,2.35 9,4.07 4.85,2.75 9.43,5.35 13.81,5.35 4.38,0 9,-2.6 13.81,-5.35 3,-1.72 7.17,-4.07 8.95,-4.07 1.78,0 5.92,2.35 8.94,4.07 4.85,2.75 9.43,5.35 13.81,5.35 4.38,0 9,-2.6 13.82,-5.35 3,-1.72 7.17,-4.07 8.94,-4.07 1.77,0 5.93,2.35 9,4.07 4.85,2.75 9.43,5.35 13.81,5.35 4.38,0 9,-2.6 13.82,-5.35 2.78,-1.58 6.5,-3.69 8.46,-4 v -9.89 c -4.23,0.18 -8.66,2.69 -13.33,5.34 -3.07,1.72 -7.18,4.07 -9,4.07 z"
       class="cls-11" />
    <path
       inkscape:connector-curvature="0"
       id="path2958"
       d="m 784.47,842.89 c -4.24,0.17 -8.67,2.68 -13.34,5.33 -3,1.72 -7.17,4.08 -9,4.08 -1.83,0 -5.92,-2.36 -8.94,-4.08 -4.85,-2.75 -9.43,-5.35 -13.81,-5.35 -4.38,0 -9,2.6 -13.82,5.35 -3,1.72 -7.17,4.08 -8.94,4.08 -1.77,0 -5.93,-2.36 -8.95,-4.08 -4.85,-2.75 -9.43,-5.35 -13.81,-5.35 -4.38,0 -9,2.6 -13.81,5.35 -3,1.72 -7.17,4.08 -9,4.08 -1.83,0 -5.92,-2.36 -8.95,-4.08 -4.85,-2.75 -9.43,-5.35 -13.81,-5.35 -4.38,0 -9,2.6 -13.81,5.35 -3,1.72 -7.17,4.08 -9,4.08 -1.83,0 -5.92,-2.36 -9,-4.08 -4.85,-2.75 -9.43,-5.35 -13.81,-5.35 -4.38,0 -9,2.6 -13.81,5.35 -3,1.72 -7.17,4.08 -8.95,4.08 -1.78,0 -5.92,-2.36 -8.94,-4.08 -4.68,-2.65 -9.1,-5.16 -13.34,-5.33 v 9.88 c 2,0.33 5.69,2.44 8.47,4 4.85,2.76 9.43,5.36 13.81,5.36 4.38,0 9,-2.6 13.81,-5.36 3,-1.72 7.17,-4.07 9,-4.07 1.83,0 5.92,2.35 9,4.07 4.85,2.76 9.43,5.36 13.81,5.36 4.38,0 9,-2.6 13.81,-5.36 3,-1.72 7.17,-4.07 8.95,-4.07 1.78,0 5.92,2.35 9,4.07 4.85,2.76 9.43,5.36 13.81,5.36 4.38,0 9,-2.6 13.81,-5.36 3,-1.72 7.17,-4.07 8.95,-4.07 1.78,0 5.92,2.35 8.94,4.07 4.85,2.76 9.43,5.36 13.81,5.36 4.38,0 9,-2.6 13.82,-5.36 3,-1.72 7.17,-4.07 8.94,-4.07 1.77,0 5.93,2.35 9,4.07 4.85,2.76 9.43,5.36 13.81,5.36 4.38,0 9,-2.6 13.82,-5.36 2.78,-1.58 6.5,-3.69 8.46,-4 v -9.88 z"
       class="cls-11" />
    <rect
       id="rect2960"
       height="113.32"
       width="226.63"
       y="788.46002"
       x="557.83002"
       class="cls-12" />
    <polygon
       id="polygon2962"
       points="561.73,867.29 620.68,867.29 581.25,896.86 574.7,901.78 595.6,901.78 641.58,867.29 641.59,867.29 641.59,877.74 609.54,901.78 616.51,901.78 641.59,882.97 641.59,901.78 656.37,901.78 656.37,856.21 557.83,856.21 557.83,867.29 "
       class="cls-12" />
    <polygon
       id="polygon2964"
       points="784.47,856.21 685.93,856.21 685.93,901.78 700.71,901.78 700.71,882.97 725.78,901.78 746.69,901.78 700.71,867.29 714.64,867.29 760.62,901.78 767.6,901.78 761.03,896.86 721.61,867.29 784.47,867.29 "
       class="cls-12" />
    <polygon
       id="polygon2966"
       points="574.7,788.46 557.83,788.46 557.83,822.95 561.73,822.95 620.68,822.95 581.25,793.38 "
       class="cls-3" />
    <polygon
       id="polygon2968"
       points="725.79,788.46 700.71,788.46 700.71,807.27 "
       class="cls-3" />
    <polygon
       id="polygon2970"
       points="616.5,788.46 641.59,807.27 641.59,788.46 "
       class="cls-3" />
    <polygon
       id="polygon2972"
       points="780.56,822.95 784.47,822.95 784.47,788.46 767.59,788.46 761.04,793.38 721.61,822.95 "
       class="cls-3" />
    <polygon
       id="polygon2974"
       points="557.83,867.29 557.83,901.78 574.7,901.78 581.25,896.86 620.68,867.29 561.73,867.29 "
       class="cls-3" />
    <polygon
       id="polygon2976"
       points="641.59,882.97 616.51,901.78 641.59,901.78 "
       class="cls-3" />
    <polygon
       id="polygon2978"
       points="700.71,882.97 700.71,901.78 725.78,901.78 "
       class="cls-3" />
    <polygon
       id="polygon2980"
       points="767.6,901.78 784.47,901.78 784.47,867.29 721.61,867.29 761.03,896.86 "
       class="cls-3" />
    <polygon
       id="polygon2982"
       points="656.37,788.46 656.37,834.04 557.83,834.04 557.83,841.74 557.83,856.21 656.37,856.21 656.37,901.78 685.93,901.78 685.93,856.21 784.47,856.21 784.47,841.74 784.47,834.04 685.93,834.04 685.93,788.46 "
       class="cls-6" />
    <polygon
       id="polygon2984"
       points="760.62,901.78 714.64,867.29 700.71,867.29 746.69,901.78 "
       class="cls-6" />
    <polygon
       id="polygon2986"
       points="595.6,901.78 609.54,901.78 641.59,877.74 641.59,867.29 641.58,867.29 "
       class="cls-6" />
    <polygon
       id="polygon2988"
       points="627.65,822.95 641.59,822.95 641.59,822.95 595.6,788.46 581.67,788.46 584.36,790.48 "
       class="cls-6" />
    <polygon
       id="polygon2990"
       points="700.71,812.5 700.71,822.95 700.71,822.95 746.69,788.46 732.75,788.46 "
       class="cls-6" />
    <path
       inkscape:connector-curvature="0"
       id="path2992"
       d="m 1428.06,853 h -161 V 813.51 H 1424 c 2.22,0 4,1.4 4,3.12 V 853 Z"
       class="cls-7" />
    <path
       inkscape:connector-curvature="0"
       id="path2994"
       d="m 1424,932.1 h -156.89 v -39.53 h 161 V 929 c -0.05,1.71 -1.85,3.1 -4.11,3.1 z"
       class="cls-13" />
    <rect
       id="rect2996"
       height="39.529999"
       width="160.96001"
       y="853.03998"
       x="1267.11"
       class="cls-14" />
    <path
       inkscape:connector-curvature="0"
       id="path2998"
       d="m 1267.11,932.1 h -68.41 c -2.22,0 -4,-1.39 -4,-3.12 V 816.63 c 0,-1.72 1.8,-3.12 4,-3.12 h 68.41 z"
       class="cls-6" />
  </g>
</svg>
