<svg xmlns="http://www.w3.org/2000/svg" viewBox="0 0 792.51 751.34"><defs><style>.cls-1{fill:#98d9c2;}.cls-2{fill:#197278;}.cls-3{fill:#fab857;}.cls-23,.cls-4{fill:#ffecd2;}.cls-20,.cls-5{fill:#e27329;}.cls-6{fill:#fcd462;}.cls-7{fill:#772e25;}.cls-8{fill:#5e8e73;}.cls-9{fill:#655;}.cls-10{fill:#4d4d4d;}.cls-11{fill:#f99f38;}.cls-12,.cls-13,.cls-18,.cls-19,.cls-22,.cls-24{fill:none;}.cls-12,.cls-19,.cls-23,.cls-24{stroke:#197278;}.cls-12,.cls-13,.cls-18,.cls-19,.cls-22,.cls-23,.cls-24{stroke-miterlimit:10;}.cls-13{stroke:#e27329;}.cls-14{fill:#e3a76f;}.cls-15{fill:#b26632;}.cls-16,.cls-21{fill:#3c8258;}.cls-17{fill:#6aa080;}.cls-18{stroke:#fcd462;}.cls-18,.cls-24{stroke-width:0.5px;}.cls-19{stroke-width:3px;}.cls-20,.cls-21{opacity:0.5;}.cls-22{stroke:#3c8258;}.cls-25{isolation:isolate;}.cls-26{fill:#4285f4;}.cls-27{fill:#34a853;}.cls-28{fill:#fbbc04;}.cls-29{fill:#ea4335;}</style></defs><g id="Layer_3" data-name="Layer 3"><ellipse class="cls-1" cx="88.57" cy="475.47" rx="7.76" ry="7.62"/><ellipse class="cls-2" cx="88.57" cy="475.47" rx="5.16" ry="5.06"/></g><g id="text"><rect class="cls-2" x="331.52" y="120.84" width="15.54" height="21.61"/><rect class="cls-3" x="333.92" y="124.02" width="9.13" height="0.69"/><rect class="cls-3" x="333.92" y="126.11" width="10.48" height="0.69"/><rect class="cls-3" x="333.92" y="132.4" width="10.48" height="0.69"/><rect class="cls-3" x="333.92" y="128.21" width="5.87" height="0.69"/><rect class="cls-3" x="333.92" y="130.3" width="9.32" height="0.69"/><rect class="cls-2" x="369.61" y="120.84" width="15.54" height="21.61"/><rect class="cls-3" x="372.01" y="124.02" width="9.13" height="0.69"/><rect class="cls-3" x="372.01" y="126.11" width="10.48" height="0.69"/><rect class="cls-3" x="372.01" y="132.4" width="10.48" height="0.69"/><rect class="cls-3" x="372.01" y="128.21" width="5.87" height="0.69"/><rect class="cls-3" x="372.01" y="130.3" width="9.32" height="0.69"/><rect class="cls-4" x="331.52" y="145.71" width="15.54" height="21.61"/><rect class="cls-3" x="333.92" y="148.89" width="9.13" height="0.69"/><rect class="cls-3" x="333.92" y="150.99" width="10.48" height="0.69"/><rect class="cls-3" x="333.92" y="157.27" width="10.48" height="0.69"/><rect class="cls-3" x="333.92" y="153.08" width="5.87" height="0.69"/><rect class="cls-3" x="333.92" y="155.18" width="9.32" height="0.69"/><rect class="cls-4" x="369.48" y="145.71" width="15.54" height="21.61"/><rect class="cls-3" x="371.88" y="148.89" width="9.13" height="0.69"/><rect class="cls-3" x="371.88" y="150.99" width="10.48" height="0.69"/><rect class="cls-3" x="371.88" y="157.27" width="10.48" height="0.69"/><rect class="cls-3" x="371.88" y="153.08" width="5.87" height="0.69"/><rect class="cls-3" x="371.88" y="155.18" width="9.32" height="0.69"/><rect class="cls-2" x="331.52" y="172.54" width="15.54" height="21.61"/><rect class="cls-3" x="333.92" y="175.72" width="9.13" height="0.69"/><rect class="cls-3" x="333.92" y="177.82" width="10.48" height="0.69"/><rect class="cls-3" x="333.92" y="184.11" width="10.48" height="0.69"/><rect class="cls-3" x="333.92" y="179.92" width="5.87" height="0.69"/><rect class="cls-3" x="333.92" y="182.01" width="9.32" height="0.69"/><rect class="cls-2" x="369.61" y="172.54" width="15.54" height="21.61"/><rect class="cls-3" x="372.01" y="175.72" width="9.13" height="0.69"/><rect class="cls-3" x="372.01" y="177.82" width="10.48" height="0.69"/><rect class="cls-3" x="372.01" y="184.11" width="10.48" height="0.69"/><rect class="cls-3" x="372.01" y="179.92" width="5.87" height="0.69"/><rect class="cls-3" x="372.01" y="182.01" width="9.32" height="0.69"/><rect class="cls-5" x="312.48" y="131.82" width="15.54" height="21.61"/><rect class="cls-3" x="314.88" y="135" width="9.13" height="0.69"/><rect class="cls-3" x="314.88" y="137.1" width="10.48" height="0.69"/><rect class="cls-3" x="314.88" y="143.39" width="10.48" height="0.69"/><rect class="cls-3" x="314.88" y="139.19" width="5.87" height="0.69"/><rect class="cls-3" x="314.88" y="141.29" width="9.32" height="0.69"/><rect class="cls-4" x="312.48" y="158.65" width="15.54" height="21.61"/><rect class="cls-3" x="314.88" y="161.84" width="9.13" height="0.69"/><rect class="cls-3" x="314.88" y="163.93" width="10.48" height="0.69"/><rect class="cls-3" x="314.88" y="170.22" width="10.48" height="0.69"/><rect class="cls-3" x="314.88" y="166.03" width="5.87" height="0.69"/><rect class="cls-3" x="314.88" y="168.12" width="9.32" height="0.69"/><rect class="cls-5" x="312.48" y="183.53" width="15.54" height="21.61"/><rect class="cls-3" x="314.88" y="186.71" width="9.13" height="0.69"/><rect class="cls-3" x="314.88" y="188.81" width="10.48" height="0.69"/><rect class="cls-3" x="314.88" y="195.09" width="10.48" height="0.69"/><rect class="cls-3" x="314.88" y="190.9" width="5.87" height="0.69"/><rect class="cls-3" x="314.88" y="193" width="9.32" height="0.69"/><rect class="cls-4" x="331.52" y="197.42" width="15.54" height="21.61"/><rect class="cls-3" x="333.92" y="200.6" width="9.13" height="0.69"/><rect class="cls-3" x="333.92" y="202.7" width="10.48" height="0.69"/><rect class="cls-3" x="333.92" y="208.98" width="10.48" height="0.69"/><rect class="cls-3" x="333.92" y="204.79" width="5.87" height="0.69"/><rect class="cls-3" x="333.92" y="206.89" width="9.32" height="0.69"/><rect class="cls-4" x="350.57" y="107.06" width="15.54" height="21.61"/><rect class="cls-3" x="352.97" y="118.62" width="10.48" height="0.69"/><rect class="cls-3" x="352.97" y="116.53" width="9.32" height="0.69"/><rect class="cls-5" x="350.57" y="131.94" width="15.54" height="21.61"/><rect class="cls-3" x="352.97" y="135.12" width="9.13" height="0.69"/><rect class="cls-3" x="352.97" y="137.21" width="10.48" height="0.69"/><rect class="cls-3" x="352.97" y="143.5" width="10.48" height="0.69"/><rect class="cls-3" x="352.97" y="139.31" width="5.87" height="0.69"/><rect class="cls-3" x="352.97" y="141.41" width="9.32" height="0.69"/><rect class="cls-4" x="350.57" y="158.77" width="15.54" height="21.61"/><rect class="cls-3" x="352.97" y="161.95" width="9.13" height="0.69"/><rect class="cls-3" x="352.97" y="164.05" width="10.48" height="0.69"/><rect class="cls-3" x="352.97" y="170.33" width="10.48" height="0.69"/><rect class="cls-3" x="352.97" y="166.14" width="5.87" height="0.69"/><rect class="cls-3" x="352.97" y="168.24" width="9.32" height="0.69"/><rect class="cls-5" x="350.57" y="183.65" width="15.54" height="21.61"/><rect class="cls-3" x="352.97" y="186.83" width="9.13" height="0.69"/><rect class="cls-3" x="352.97" y="188.92" width="10.48" height="0.69"/><rect class="cls-3" x="352.97" y="195.21" width="10.48" height="0.69"/><rect class="cls-3" x="352.97" y="191.02" width="5.87" height="0.69"/><rect class="cls-3" x="352.97" y="193.11" width="9.32" height="0.69"/><rect class="cls-5" x="388.42" y="183.65" width="15.54" height="21.61"/><rect class="cls-3" x="390.82" y="186.83" width="9.13" height="0.69"/><rect class="cls-3" x="390.82" y="188.92" width="10.48" height="0.69"/><rect class="cls-3" x="390.82" y="195.21" width="10.48" height="0.69"/><rect class="cls-3" x="390.82" y="191.02" width="5.87" height="0.69"/><rect class="cls-3" x="390.82" y="193.11" width="9.32" height="0.69"/><rect class="cls-4" x="369.48" y="197.42" width="15.54" height="21.61"/><rect class="cls-3" x="371.88" y="200.6" width="9.13" height="0.69"/><rect class="cls-3" x="371.88" y="202.7" width="10.48" height="0.69"/><rect class="cls-3" x="371.88" y="208.98" width="10.48" height="0.69"/><rect class="cls-3" x="371.88" y="204.79" width="5.87" height="0.69"/><rect class="cls-3" x="371.88" y="206.89" width="9.32" height="0.69"/><rect class="cls-5" x="388.55" y="131.82" width="15.54" height="21.61"/><rect class="cls-3" x="390.95" y="135" width="9.13" height="0.69"/><rect class="cls-3" x="390.95" y="137.1" width="10.48" height="0.69"/><rect class="cls-3" x="390.95" y="143.39" width="10.48" height="0.69"/><rect class="cls-3" x="390.95" y="139.19" width="5.87" height="0.69"/><rect class="cls-3" x="390.95" y="141.29" width="9.32" height="0.69"/><rect class="cls-4" x="388.55" y="158.65" width="15.54" height="21.61"/><rect class="cls-3" x="390.95" y="161.84" width="9.13" height="0.69"/><rect class="cls-3" x="390.95" y="163.93" width="10.48" height="0.69"/><rect class="cls-3" x="390.95" y="170.22" width="10.48" height="0.69"/><rect class="cls-3" x="390.95" y="166.03" width="5.87" height="0.69"/><rect class="cls-3" x="390.95" y="168.12" width="9.32" height="0.69"/><rect class="cls-4" x="489.66" y="185.73" width="24.41" height="33.93"/><rect class="cls-3" x="493.43" y="190.73" width="14.33" height="1.09"/><rect class="cls-3" x="493.43" y="194.02" width="16.45" height="1.09"/><rect class="cls-3" x="493.43" y="203.89" width="16.45" height="1.09"/><rect class="cls-3" x="493.43" y="197.31" width="9.22" height="1.09"/><rect class="cls-3" x="493.43" y="200.6" width="14.63" height="1.09"/><rect class="cls-4" x="105.9" y="391.45" width="21.93" height="30.49"/><rect class="cls-3" x="109.28" y="395.94" width="12.88" height="0.98"/><rect class="cls-3" x="109.28" y="398.89" width="14.79" height="0.98"/><rect class="cls-3" x="109.28" y="407.77" width="14.79" height="0.98"/><rect class="cls-3" x="109.28" y="401.85" width="8.29" height="0.98"/><rect class="cls-3" x="109.28" y="404.81" width="13.15" height="0.98"/><rect class="cls-5" x="173.67" y="391.91" width="21.98" height="30.55"/><rect class="cls-3" x="177.06" y="396.41" width="12.91" height="0.98"/><rect class="cls-3" x="177.06" y="399.37" width="14.82" height="0.98"/><rect class="cls-3" x="177.06" y="408.26" width="14.82" height="0.98"/><rect class="cls-3" x="177.06" y="402.33" width="8.3" height="0.98"/><rect class="cls-3" x="177.06" y="405.29" width="13.18" height="0.98"/><rect class="cls-2" x="250.72" y="392.86" width="21.98" height="30.55"/><rect class="cls-3" x="254.11" y="397.35" width="12.91" height="0.98"/><rect class="cls-3" x="254.11" y="400.32" width="14.82" height="0.98"/><rect class="cls-3" x="254.11" y="409.21" width="14.82" height="0.98"/><rect class="cls-3" x="254.11" y="403.28" width="8.3" height="0.98"/><rect class="cls-3" x="254.11" y="406.24" width="13.18" height="0.98"/><path class="cls-6" d="M651.12,330.81a2.16,2.16,0,0,0-.71.12l-6.78,2.38a2.12,2.12,0,0,0,0-.44,2.17,2.17,0,0,0-2.17-2.17h-6.33a7.33,7.33,0,0,0-5.2,2.15l-1.36,1.36v4.43h15.69l7.75-3.77a2.14,2.14,0,0,0-.94-4.06Zm.3,2.76L644,337.2H630.07v-2.39l.94-.93a5.82,5.82,0,0,1,4.17-1.73h6.33a.72.72,0,1,1,0,1.44h-4.59V335h6.16l7.81-2.75a.62.62,0,0,1,.23,0,.69.69,0,0,1,.3,1.32Z"/><path class="cls-6" d="M637.42,324.14a1.58,1.58,0,0,1,.61,1.25v1.86l.9,1.86h4l.89-1.86v-1.86a1.61,1.61,0,0,1,.62-1.25A5.69,5.69,0,0,0,640.94,314h-.22a5.68,5.68,0,0,0-3.3,10.14Zm4.63,3.53h-2.22l-.35-.75v-.81h2.93v.81Zm-4.16-10.92a4.23,4.23,0,0,1,2.89-1.31h.16a4.24,4.24,0,0,1,2.63,7.57,3,3,0,0,0-1.07,1.66h-3.11a3,3,0,0,0-1.07-1.66,4.22,4.22,0,0,1-.43-6.26Z"/><path class="cls-6" d="M631.67,319h2.15v1.44h-2.15Z"/><path class="cls-6" d="M632.55,315.68l.72-1.25,1.86,1.07-.72,1.25Z"/><path class="cls-6" d="M632.55,323.7l1.86-1.07.72,1.25L633.27,325Z"/><path class="cls-6" d="M648.07,319h2.14v1.44h-2.14Z"/><path class="cls-6" d="M646.75,315.5l1.86-1.07.72,1.25-1.86,1.07Z"/><path class="cls-6" d="M646.75,323.88l.72-1.25,1.86,1.07-.72,1.25Z"/><path class="cls-5" d="M483.29,217.13,475,231.55a1.88,1.88,0,0,1-2.57.68l-2.67-1.53a1.88,1.88,0,0,1-.69-2.57l8.33-14.43.28.17,2.18,1.26.66.39.08,0,2.09,1.21Z"/><path class="cls-7" d="M479.79,219.75,476.73,218a1.72,1.72,0,0,1-.62-2.35l1.34-2.41,6,3.45-1.35,2.45A1.72,1.72,0,0,1,479.79,219.75Z"/><path class="cls-8" d="M486.69,191.1a13,13,0,0,0-8.76,22.59,13.37,13.37,0,0,0,1.9,1.44l.66.39.08,0a12.24,12.24,0,0,0,2.11.89,13,13,0,1,0,4-25.35Zm0,22.49a9.5,9.5,0,1,1,9.5-9.5A9.5,9.5,0,0,1,486.69,213.59Z"/><path class="cls-1" d="M725.21,540.57V399.3A25.39,25.39,0,0,0,699.89,374H638.17a25.39,25.39,0,0,0-25.32,25.31V540.57Z"/><rect class="cls-2" x="629.66" y="443.89" width="77.59" height="22.7"/><rect class="cls-6" x="558.66" y="221.19" width="19.34" height="19.34" transform="translate(1136.65 461.73) rotate(-180)"/><rect class="cls-6" x="558.66" y="173.98" width="19.34" height="19.34" transform="translate(1136.65 367.29) rotate(-180)"/><rect class="cls-6" x="558.66" y="364.31" width="19.34" height="19.34" transform="translate(1136.65 747.97) rotate(-180)"/><rect class="cls-6" x="558.66" y="304.55" width="19.34" height="19.34" transform="translate(1136.65 628.44) rotate(-180)"/><rect class="cls-6" x="558.66" y="258.15" width="19.34" height="19.34" transform="translate(1136.65 535.64) rotate(-180)"/><path class="cls-2" d="M391.91,449h131a70.22,70.22,0,0,0,70.22-70.22V233.42a12.45,12.45,0,0,0,8.26-11.65v-8.26A12.43,12.43,0,0,0,589,201.11H547.67a12.43,12.43,0,0,0-12.39,12.4v8.26a12.43,12.43,0,0,0,8.26,11.65V378.74a20.65,20.65,0,0,1-20.65,20.65l-131-1.26v8.05l131,1.48a28.92,28.92,0,0,0,28.91-28.92V234.16h33.05V378.74a62,62,0,0,1-62,62l-131-.09ZM589,225.9H547.67a4.13,4.13,0,0,1-4.13-4.13v-8.26a4.13,4.13,0,0,1,4.13-4.14H589a4.13,4.13,0,0,1,4.13,4.14v8.26A4.13,4.13,0,0,1,589,225.9Z"/><path class="cls-2" d="M552.58,423.49a53.45,53.45,0,0,1-29.69,8.95v-8.26A45.27,45.27,0,0,0,548,416.61Z"/><path class="cls-2" d="M515.3,423.55l-1.36,8.15a53,53,0,0,1-9-2.32l2.75-7.78A45.86,45.86,0,0,0,515.3,423.55Z"/><rect class="cls-5" x="626.92" y="389.05" width="84.91" height="49.02"/><path class="cls-2" d="M503.11,536.92V354.35a27.26,27.26,0,0,0-27.26-27.26H350a29.11,29.11,0,0,0-29.11,29.11V536.92S419.05,568.62,503.11,536.92Z"/><rect class="cls-4" x="373.21" y="356.39" width="111.4" height="67.27"/><rect class="cls-6" x="229.37" y="371.35" width="10.71" height="10.71" transform="translate(-141.98 611.42) rotate(-90)"/><rect class="cls-5" x="249.78" y="371.35" width="10.71" height="10.71" transform="translate(-121.56 631.84) rotate(-90)"/><rect class="cls-2" x="271.78" y="371.35" width="10.71" height="10.71" transform="translate(-99.56 653.84) rotate(-90)"/><rect class="cls-1" x="293.78" y="371.35" width="10.71" height="10.71" transform="translate(-77.57 675.83) rotate(-90)"/><path class="cls-2" d="M312,358.57h9.79a2.81,2.81,0,0,1,2.81,2.81v29.84a2.81,2.81,0,0,1-2.81,2.81H312a0,0,0,0,1,0,0V358.57A0,0,0,0,1,312,358.57Z" transform="translate(636.66 752.6) rotate(180)"/><rect class="cls-2" x="284.28" y="379.68" width="3.42" height="3.42"/><g id="Pipe-Industry-Water_Pipe-Oil-Gas" data-name="Pipe-Industry-Water Pipe-Oil-Gas"><path class="cls-2" d="M312.35,362.58h-93A6.89,6.89,0,0,0,213,358h-4.58a6.88,6.88,0,0,0-6.86,6.86v22.87a6.88,6.88,0,0,0,6.86,6.86H213A6.91,6.91,0,0,0,219.4,390h93ZM213,390h-4.58a2.29,2.29,0,0,1-2.29-2.28V364.87a2.29,2.29,0,0,1,2.29-2.29H213a2.28,2.28,0,0,1,2.28,2.29v22.87A2.28,2.28,0,0,1,213,390Zm99.4-4.57H219.81v-18.3h92.54"/><path class="cls-2" d="M320.82,365.05l3.81,2.54"/></g><g id="Pipe-Industry-Water_Pipe-Oil-Gas-2" data-name="Pipe-Industry-Water Pipe-Oil-Gas"><path class="cls-2" d="M613.2,473H505.88a5.93,5.93,0,0,0-5.56-3.94h-3.95a5.92,5.92,0,0,0-5.91,5.91v19.72a5.92,5.92,0,0,0,5.91,5.92h3.95a5.93,5.93,0,0,0,5.56-3.94H613.2ZM500.32,496.64h-3.95a2,2,0,0,1-2-2V474.94a2,2,0,0,1,2-2h3.95a2,2,0,0,1,2,2v19.72A2,2,0,0,1,500.32,496.64Zm110.58-4.87H507.15V478.53H610.9"/></g><rect class="cls-2" x="290.73" y="379.68" width="18.14" height="3.42"/><path class="cls-7" d="M396.32,247.88a3.44,3.44,0,0,1,0,.46c-.87,5-16.2,9-35,9s-34.12-4-35-9a2.32,2.32,0,0,1,0-.46c0-5.23,15.68-9.49,35-9.49S396.32,242.65,396.32,247.88Z"/><path class="cls-3" d="M396.32,248.34V264a1,1,0,0,1,0,.17,2.69,2.69,0,0,1-1.76,2.37l-.9,1.27c-5.27,3.44-17.77,5.85-32.35,5.85-14.35,0-26.68-2.34-32.09-5.68l-1.08-1.41a2.69,2.69,0,0,1-1.34-1,2.62,2.62,0,0,1-.5-1.43.52.52,0,0,1,0-.17V248.34h0c.87,5,16.19,9,35,9s34.12-4,35-9Z"/><path class="cls-5" d="M393.65,267.82l-23,32.25H353.77L329.21,268c5.41,3.34,17.74,5.68,32.09,5.68C375.88,273.67,388.38,271.26,393.65,267.82Z"/><rect class="cls-5" x="353.26" y="294.94" width="18.33" height="33.63"/><circle class="cls-4" cx="348.78" cy="371.43" r="10.41"/><circle class="cls-4" cx="348.78" cy="401.85" r="10.41"/><rect class="cls-3" x="630.58" y="392.93" width="77.59" height="41.26"/><rect class="cls-9" x="635.47" y="454.31" width="68.29" height="3.35"/><path class="cls-3" d="M681.53,457.41c.41,3.54.41,50.24.41,50.24l-37-1.69v-49c.05-.08.1-.18.16-.26a5.72,5.72,0,0,1,1.21-1.23c3.07-2.49,8.54-3.81,12.31-4.1s7.42.32,11.14.46c7.27.27,15.26-1.23,20.65,2.07"/><polygon class="cls-7" points="687.1 489.56 698.42 502.85 703.86 501.66 691.92 486.63 687.1 489.56"/><path class="cls-7" d="M681.64,457.66a5.2,5.2,0,1,1,10.4,0Z"/><rect class="cls-3" x="377.76" y="360.32" width="102.3" height="59.4"/><rect class="cls-7" x="649.81" y="463.78" width="28.08" height="4.41"/><rect class="cls-5" x="649.81" y="471.01" width="19.8" height="4.41"/><rect class="cls-7" x="27.65" y="535.55" width="725.96" height="18.86"/><path class="cls-7" d="M713.62,575.34s.39-2.27-7-1.7,5.42,11.91,15.15,10c0,0,4.39-2.67-1.95-7.46h0Z"/><path class="cls-10" d="M692.44,481.07c-.08,1,.59,2.92,1.56,3.28,9.93,3.74,24.9,1.7,24.9,1.7v-2.48c-1-.51-1.44,0-2.48-.54a33.12,33.12,0,0,0-.26-5.45,6.46,6.46,0,0,0-2.63-4,8.51,8.51,0,0,0-3.37-1.51,16,16,0,0,0-4.22-.67,28.72,28.72,0,0,0-3.92.47,1.34,1.34,0,0,0-.63.2c-.74.57.23,2-.51,2.59a1.36,1.36,0,0,1-.52.19c-1.51.28-3.21.22-4.35,1.25s-1.25,2.87-1.24,4.46Z"/><path class="cls-3" d="M696.44,484.8s-.17,8.62,7,8.34l-.48,2.51s5.07.54,5.48-.2-.22-2.36-.22-2.36l3-2.75,1.46-3.93Z"/><ellipse class="cls-3" cx="697.17" cy="475.59" rx="2.41" ry="1.63" transform="translate(-144.39 538.94) rotate(-38.61)"/><polygon class="cls-11" points="713.56 577.35 719.22 576.82 718.72 571.49 712.85 569.78 713.56 577.35"/><path class="cls-10" d="M721,532.74l-1,40.78-7.16.2-5-35.14S719.05,537,721,532.74Z"/><path class="cls-7" d="M712.17,494.74s-5.44,3.45-13.27.48c0,0-5.84,2.21-7,3.85,0,0,7.37.77,5,7.63l-6.32,12.36,1.72,18.32s22.08,6.17,28.77-4c0,0,.67-26-.75-29.92C718.74,499.11,720.65,498.59,712.17,494.74Z"/><path class="cls-10" d="M714.91,486.35l-10-.71s-1,5.63.68,7.14,6.64.62,6.64.62A10.63,10.63,0,0,0,714.91,486.35Z"/><path class="cls-7" d="M699.81,585.9s.38-2.27-7-1.7,5.42,11.91,15.16,10c0,0,4.39-2.67-2-7.46h0Z"/><path class="cls-11" d="M703.57,590.83h0a2.83,2.83,0,0,0,2.56-3.09l0-.58a2.85,2.85,0,0,0-2-2.46l-4-1.18.45,4.75A2.85,2.85,0,0,0,703.57,590.83Z"/><path class="cls-10" d="M708,539.18l-1.51,46.08s-2.68,2.82-6.4-.68l-7.83-47.2S700.83,539.65,708,539.18Z"/><path class="cls-7" d="M698.15,503s-2.77,16.39-8.77,17L682.76,513l4.33-2.53,4.81-11.43S697.47,497.26,698.15,503Z"/><ellipse class="cls-3" cx="705.15" cy="488.04" rx="1.53" ry="1.22" transform="translate(-32.29 925.75) rotate(-65.38)"/><polygon class="cls-3" points="685.2 505.3 685.11 507.04 683.7 507.7 681.17 508.86 680.01 509.31 679.59 508.69 676.13 505.46 680.01 500.42 683.26 504.46 683.98 503.46 685.2 505.3"/><path class="cls-3" d="M712.17,494.74s-7.69.07-13.27.48c0,0,5.39,5.52,13.29-.24"/><polygon class="cls-7" points="682.76 513.03 680.01 509.32 685.11 507.03 687.1 510.5 682.76 513.03"/><path class="cls-2" d="M613.2,500.51h0a5,5,0,0,1-5.11-4.73V474.69A5,5,0,0,1,613.2,470h0"/><path class="cls-12" d="M312.65,490.06H83.25c-7,0-12.75-6-12.75-13.34v-2.6c0-7.34,5.74-13.34,12.75-13.34h229.4"/><path class="cls-12" d="M308.59,483.21H87.91a7.6,7.6,0,0,1-7.4-7.74h0a7.6,7.6,0,0,1,7.4-7.74H308.59"/><rect class="cls-2" x="104.7" y="472.57" width="195.95" height="5.66" rx="2.38"/><rect class="cls-7" x="128.51" y="535.55" width="8.38" height="4.32"/><rect class="cls-7" x="267.59" y="535.55" width="8.39" height="4.32"/><rect class="cls-2" x="510.15" y="485.65" width="19.62" height="3.45"/><rect class="cls-2" x="534.08" y="485.65" width="3.45" height="3.45"/><circle class="cls-12" cx="348.69" cy="371.26" r="10.12"/><circle class="cls-12" cx="348.69" cy="371.26" r="8.27"/><line class="cls-12" x1="348.79" y1="364.23" x2="348.79" y2="366.51"/><line class="cls-12" x1="345.27" y1="365.18" x2="345.85" y2="366.17"/><line class="cls-12" x1="342.7" y1="367.75" x2="343.7" y2="368.32"/><line class="cls-12" x1="341.76" y1="371.26" x2="343.98" y2="371.26"/><line class="cls-12" x1="342.7" y1="374.78" x2="343.7" y2="374.2"/><line class="cls-12" x1="345.27" y1="377.35" x2="345.85" y2="376.35"/><line class="cls-12" x1="348.79" y1="378.29" x2="348.79" y2="376.08"/><line class="cls-12" x1="352.3" y1="377.35" x2="351.73" y2="376.35"/><line class="cls-12" x1="354.87" y1="374.78" x2="353.88" y2="374.2"/><line class="cls-12" x1="355.82" y1="371.26" x2="353.74" y2="371.26"/><line class="cls-12" x1="354.87" y1="367.75" x2="353.88" y2="368.32"/><line class="cls-12" x1="352.3" y1="365.18" x2="351.73" y2="366.17"/><circle class="cls-2" cx="348.78" cy="371.43" r="0.34"/><line class="cls-13" x1="348.78" y1="367.05" x2="348.78" y2="370.46"/><line class="cls-13" x1="349.92" y1="371.09" x2="352.01" y2="369.41"/><circle class="cls-12" cx="348.69" cy="401.85" r="10.12"/><circle class="cls-12" cx="348.69" cy="401.85" r="8.27"/><line class="cls-12" x1="348.79" y1="394.83" x2="348.79" y2="397.1"/><line class="cls-12" x1="345.27" y1="395.77" x2="345.85" y2="396.77"/><line class="cls-12" x1="342.7" y1="398.34" x2="343.7" y2="398.92"/><line class="cls-12" x1="341.76" y1="401.85" x2="343.98" y2="401.85"/><line class="cls-12" x1="342.7" y1="405.37" x2="343.7" y2="404.79"/><line class="cls-12" x1="345.27" y1="407.94" x2="345.85" y2="406.94"/><line class="cls-12" x1="348.79" y1="408.88" x2="348.79" y2="406.67"/><line class="cls-12" x1="352.3" y1="407.94" x2="351.73" y2="406.94"/><line class="cls-12" x1="354.87" y1="405.37" x2="353.88" y2="404.79"/><line class="cls-12" x1="355.82" y1="401.85" x2="353.74" y2="401.85"/><line class="cls-12" x1="354.87" y1="398.34" x2="353.88" y2="398.92"/><line class="cls-12" x1="352.3" y1="395.77" x2="351.73" y2="396.77"/><circle class="cls-2" cx="348.78" cy="402.02" r="0.34"/><line class="cls-13" x1="348.78" y1="397.65" x2="348.78" y2="401.05"/><line class="cls-13" x1="346.04" y1="404.64" x2="348.14" y2="402.96"/><path class="cls-2" d="M308.07,410.75h3.27a20.34,20.34,0,0,1,20.34,20.34v62.34a0,0,0,0,1,0,0H308.07a0,0,0,0,1,0,0V410.75A0,0,0,0,1,308.07,410.75Z"/><path class="cls-7" d="M259.42,496.63v33.81h6.35a4.94,4.94,0,0,1,4.73,5.11H240a4.94,4.94,0,0,1,4.73-5.11H251V496.63H120.33v33.81h6.35a4.94,4.94,0,0,1,4.73,5.11H100.87a4.93,4.93,0,0,1,4.72-5.11H112V496.63H76.87v-8.38H320.92v8.38Z"/><rect class="cls-3" x="92.36" y="426.65" width="34.64" height="33.75"/><rect class="cls-5" x="127" y="426.65" width="16.94" height="33.75"/><path class="cls-6" d="M116.84,438.18l9.8-11.53H92L85.4,438.18Z"/><path class="cls-7" d="M133.8,438.18l-6.8-11.4,16.94-.13,8.1,11.53Z"/><rect class="cls-5" x="165.58" y="426.65" width="34.64" height="33.75"/><rect class="cls-7" x="200.22" y="426.65" width="16.94" height="33.75"/><path class="cls-14" d="M190.06,438.18l9.8-11.53H165.21l-6.6,11.53Z"/><path class="cls-15" d="M207,438.18l-6.79-11.4,16.93-.13,8.11,11.53Z"/><rect class="cls-2" x="240.31" y="426.65" width="34.64" height="33.75"/><rect class="cls-16" x="274.95" y="426.65" width="16.94" height="33.75"/><path class="cls-1" d="M264.79,438.18l9.8-11.53H239.94l-6.6,11.53Z"/><path class="cls-17" d="M282,438.18l-6.8-11.4,16.93-.13,8.11,11.53Z"/><path class="cls-6" d="M474.38,292.41v34.36a4.32,4.32,0,0,1-.55,2.12,3.74,3.74,0,0,1-.32.49l0,0a6.15,6.15,0,0,1-1.75,1.36h0c-4.16,2.33-13.5,4-24.35,4s-20.19-1.62-24.35-4h0a5.94,5.94,0,0,1-1.76-1.37s0,0-.05-.05-.15-.22-.21-.33a.47.47,0,0,1-.07-.12,4.27,4.27,0,0,1-.56-2.14V292.41a27,27,0,1,1,54,0Z"/><path class="cls-7" d="M420.37,326.82s25.11,10.9,54-.3c0,0,2,4.79-7.09,7.11,0,0-19.85,5.08-40.91-.32C426.38,333.31,419.7,332.08,420.37,326.82Z"/><path class="cls-5" d="M458.76,299.13l-.23,2.13c7.4-.43,7.65-4.15,7.65-4.15.92-2.61.66-4,.33-4.72-.16-.36-.45-.78-.86-1.76a4.62,4.62,0,0,0-.78-1.56,3.24,3.24,0,0,0-1.48-.78c-1.31-.49-1.3-1.31-2.75-2.59-.39-.34-2.67-2.35-5.25-2.33a6.64,6.64,0,0,1-1.64-.09c-1.23-.24-1.27-.66-2.26-.86-.41-.08-.46,0-3.12.29-1,.11-1.46.17-1.64.16-1.35,0-1.77-.45-2.42-.12s-.61.72-1.15.78c-.35,0-.39-.14-.86-.21a2.08,2.08,0,0,0-1.73.54c-.32.34-.23.61-.41.94-.66,1.25-3.51-.3-5,1.36-.52.57-.69,1.17-1.89,2.54a6.06,6.06,0,0,0-1.19,1.48c-.43.87-.27,1.37-.66,2.34a12.74,12.74,0,0,1-1.18,2.08h0l-.16.21c-.48.69-.35,1.45-.25,2.66.12,1.49.31,1.45.43,3.43.06.92,0,1.9.68,2.52.37.35.58.23.86.56.67.76-.15,1.77.25,2.83.52,1.42,2.93,2.23,4,1.54a1.24,1.24,0,0,0,.22-.18m8-3.4s-6.28-1-8,3.4a3.76,3.76,0,0,0-.41,1.72,3.64,3.64,0,0,0,1.24,2.4,4.81,4.81,0,0,0,3.57.92c1.1,0,3.79-.09,5.17-2,.71-1,.76-2.14.86-4.49,0-.53,0-1,0-1.48m-6.17-.21"/><path class="cls-18" d="M458.76,299.13l-.23,2.13L456.81,303l-6.06,2.66-4-.12,0,0,0,0v2.53l-1.79-.32-1.15-5h0a5.84,5.84,0,0,1,.61-4.63c2.3-4.45,11.69-4.19,14.07,1Z"/><path class="cls-18" d="M444.45,298.4c-.22,0-1.13.52-1.87-1.12s-2.94.12-3.54-1.32a17.31,17.31,0,0,1-.9-3"/><path class="cls-18" d="M449.48,290c-2,1.89-.27,5.12-.27,5.12l-1.62,5.85-3.71,2.24"/><path class="cls-18" d="M443.16,283.53s1.11,3.9,2.83,4.84,2.54,5.17,2.54,5.17"/><path class="cls-18" d="M447.14,282.85s2.45,2,1.39,3.14"/><path class="cls-18" d="M446.94,285.09s4.67,1.39,4.63,5.91"/><path class="cls-18" d="M448.8,284.42s2.13-3.1,13.51,3.16"/><path class="cls-18" d="M454.24,285.09s1.32,1.51,2.57,1.49,1.59,2.08.91,2.24"/><path class="cls-18" d="M455.1,289s3-1.23,3.66,1.31"/><path class="cls-18" d="M460.48,294.61s2.38-.29,2.54-1.38c0,0,2.22.45,1.11-1.85s-5.86-2-5.86-2"/><path class="cls-18" d="M451.15,293s-.59-3,1.91-1.42c0,0,2.19-.78,2.77,1,0,0,1.94-.95,2.93,1.58,0,0,2.89-.07,1.44,1.52l-3,1.85"/><path class="cls-18" d="M435.55,289.28s.43-4.38,4.67-2,3.14,3.94,4.75,4.12-.39,3.39-1.43,2.77-4.1-1.2-3.25-3.77-12.81-2.32-8.87,9.13c0,0-2.09,4.66.92,4.62,0,0,4.31-5.92,6.41-4.69a15.17,15.17,0,0,0,4.25,1.67l.55-.2"/><path class="cls-4" d="M426.36,282.89a22.32,22.32,0,0,1,8.87-9.44l1.72,3a18.88,18.88,0,0,0-7.5,8Z"/><path class="cls-4" d="M439,275.08l-1.2-3.23a21.82,21.82,0,0,1,3.72-1l.63,3.39A19.37,19.37,0,0,0,439,275.08Z"/><path class="cls-2" d="M542.93,271.67h49.74a5.21,5.21,0,0,1,5.21,5.21v13.56a5.21,5.21,0,0,1-5.21,5.21H542.94a5.21,5.21,0,0,1-5.21-5.21V276.86a5.19,5.19,0,0,1,5.19-5.19Z"/><path class="cls-2" d="M542.93,332.45h49.74a5.21,5.21,0,0,1,5.21,5.21v13.52a5.21,5.21,0,0,1-5.21,5.21H542.94a5.21,5.21,0,0,1-5.21-5.21V337.64A5.19,5.19,0,0,1,542.93,332.45Z"/><rect class="cls-4" x="405.4" y="365.58" width="16.2" height="22.52"/><rect class="cls-3" x="407.9" y="368.89" width="9.52" height="0.72"/><rect class="cls-3" x="407.9" y="371.08" width="10.92" height="0.72"/><rect class="cls-3" x="407.9" y="377.63" width="10.92" height="0.72"/><rect class="cls-3" x="407.9" y="373.26" width="6.12" height="0.72"/><rect class="cls-3" x="407.9" y="375.45" width="9.71" height="0.72"/><rect class="cls-4" x="385.55" y="365.77" width="16.2" height="22.52"/><rect class="cls-3" x="388.05" y="369.09" width="9.52" height="0.72"/><rect class="cls-3" x="388.05" y="371.27" width="10.92" height="0.72"/><rect class="cls-3" x="388.05" y="377.82" width="10.92" height="0.72"/><rect class="cls-3" x="388.05" y="373.45" width="6.12" height="0.72"/><rect class="cls-3" x="388.05" y="375.64" width="9.71" height="0.72"/><rect class="cls-4" x="425.25" y="365.1" width="16.2" height="22.52"/><rect class="cls-3" x="427.75" y="368.41" width="9.52" height="0.72"/><rect class="cls-3" x="427.75" y="370.6" width="10.92" height="0.72"/><rect class="cls-3" x="427.75" y="377.15" width="10.92" height="0.72"/><rect class="cls-3" x="427.75" y="372.78" width="6.12" height="0.72"/><rect class="cls-3" x="427.75" y="374.97" width="9.71" height="0.72"/><rect class="cls-5" x="405.4" y="390.29" width="16.2" height="22.52"/><rect class="cls-3" x="407.9" y="393.61" width="9.52" height="0.72"/><rect class="cls-3" x="407.9" y="395.79" width="10.92" height="0.72"/><rect class="cls-3" x="407.9" y="402.34" width="10.92" height="0.72"/><rect class="cls-3" x="407.9" y="397.97" width="6.12" height="0.72"/><rect class="cls-3" x="407.9" y="400.16" width="9.71" height="0.72"/><rect class="cls-5" x="385.55" y="390.48" width="16.2" height="22.52"/><rect class="cls-3" x="388.05" y="393.8" width="9.52" height="0.72"/><rect class="cls-3" x="388.05" y="395.98" width="10.92" height="0.72"/><rect class="cls-3" x="388.05" y="402.53" width="10.92" height="0.72"/><rect class="cls-3" x="388.05" y="398.17" width="6.12" height="0.72"/><rect class="cls-3" x="388.05" y="400.35" width="9.71" height="0.72"/><rect class="cls-5" x="425.25" y="389.81" width="16.2" height="22.52"/><rect class="cls-3" x="427.75" y="393.13" width="9.52" height="0.72"/><rect class="cls-3" x="427.75" y="395.31" width="10.92" height="0.72"/><rect class="cls-3" x="427.75" y="401.86" width="10.92" height="0.72"/><rect class="cls-3" x="427.75" y="397.49" width="6.12" height="0.72"/><rect class="cls-3" x="427.75" y="399.68" width="9.71" height="0.72"/><line class="cls-19" x1="451.75" y1="382.87" x2="463.83" y2="382.87"/><polygon class="cls-2" points="462.52 387.36 470.29 382.87 462.52 378.38 462.52 387.36"/><line class="cls-19" x1="458.21" y1="393.71" x2="470.29" y2="393.71"/><polygon class="cls-2" points="459.53 398.2 451.75 393.71 459.53 389.23 459.53 398.2"/><rect class="cls-20" x="551.8" y="234.16" width="33.05" height="37.51"/><rect class="cls-21" x="551.8" y="294.97" width="33.05" height="37.48"/><line class="cls-22" x1="581.41" y1="313.24" x2="621.14" y2="295.64"/><line class="cls-22" x1="582.27" y1="319.28" x2="620.29" y2="331.16"/><line class="cls-22" x1="515.3" y1="229.01" x2="561.55" y2="248.34"/><polygon class="cls-5" points="628.48 277.34 628.48 298 635.69 298 639.97 302.29 639.31 298 658.37 298 658.37 277.34 628.48 277.34"/><polygon class="cls-1" points="667.28 269.02 667.28 289.69 660.07 289.69 655.79 293.98 656.45 289.69 637.39 289.69 637.39 269.02 667.28 269.02"/><circle class="cls-3" cx="642.53" cy="274.76" r="2.88"/><rect class="cls-4" x="640.56" y="279.88" width="21.66" height="0.76"/><rect class="cls-4" x="640.56" y="281.5" width="14.88" height="0.76"/><polygon class="cls-2" points="681.17 416.6 681.17 428.46 690.1 431.25 690.1 413.84 681.17 416.6"/><rect class="cls-23" x="690.1" y="416.26" width="8.32" height="11.68"/><line class="cls-24" x1="691.28" y1="418.93" x2="696.96" y2="418.93"/><line class="cls-24" x1="691.28" y1="420.25" x2="696.96" y2="420.25"/><line class="cls-24" x1="691.28" y1="421.56" x2="696.96" y2="421.56"/><line class="cls-24" x1="691.29" y1="422.88" x2="696.97" y2="422.88"/><line class="cls-24" x1="691.28" y1="424.29" x2="696.96" y2="424.29"/><g class="cls-25"><polygon class="cls-4" points="683.13 419.5 683.46 419.47 684.19 419.7 683.86 419.73 683.13 419.5"/><polygon class="cls-4" points="683.86 419.73 684.19 419.7 684.98 423.82 684.65 423.86 683.86 419.73"/><polygon class="cls-4" points="685.38 422.01 685.71 421.98 685.42 425.54 685.09 425.58 685.38 422.01"/><polygon class="cls-4" points="684.92 420.06 685.26 420.02 685.88 420.22 685.54 420.25 684.92 420.06"/><polygon class="cls-4" points="685.54 420.25 685.88 420.22 686.77 424.38 686.44 424.42 685.54 420.25"/><polygon class="cls-4" points="687.34 420.8 687.67 420.77 687.31 426.13 686.98 426.16 687.34 420.8"/><polygon class="cls-4" points="686.61 420.58 686.94 420.54 687.67 420.77 687.34 420.8 686.61 420.58"/><polygon class="cls-4" points="686.61 420.58 687.34 420.8 686.98 426.16 686.25 425.94 685.38 422.01 685.09 425.58 684.35 425.35 683.13 419.5 683.86 419.73 684.65 423.86 684.92 420.06 685.54 420.25 686.44 424.42 686.61 420.58"/></g><rect class="cls-1" x="633.82" y="396.16" width="34.64" height="34.64"/><path class="cls-5" d="M639.4,406.76a5,5,0,0,0,5.05,5.05v3a8,8,0,0,1,0-16v3A5,5,0,0,0,639.4,406.76Z"/><path class="cls-4" d="M648.45,413.69a7.61,7.61,0,0,1-4,1.08v-3a5,5,0,0,0,4.37-7.58l2.56-1.48A8,8,0,0,1,648.45,413.69Z"/><path class="cls-2" d="M651.38,402.75l-2.56,1.48a5,5,0,0,0-4.37-2.52v-3A7.8,7.8,0,0,1,651.38,402.75Z"/><rect class="cls-5" x="654.7" y="400.38" width="10.93" height="2.38"/><rect class="cls-3" x="636.95" y="417.37" width="28.67" height="2.38"/><rect class="cls-4" x="636.95" y="421.4" width="16.83" height="2.38"/><rect class="cls-7" x="654.7" y="403.85" width="6.81" height="2.1"/><path class="cls-26" d="M697,404.38a7.59,7.59,0,0,0-.1-1.27H691v2.4h3.38a2.87,2.87,0,0,1-1.25,1.9V409h2a6.08,6.08,0,0,0,1.86-4.59Z"/><path class="cls-27" d="M691,410.48A5.94,5.94,0,0,0,695.1,409l-2-1.56a3.78,3.78,0,0,1-5.63-2h-2.08V407A6.24,6.24,0,0,0,691,410.48Z"/><path class="cls-28" d="M687.45,405.43a3.76,3.76,0,0,1,0-2.39v-1.61h-2.07a6.23,6.23,0,0,0,0,5.61Z"/><path class="cls-29" d="M691,400.46a3.4,3.4,0,0,1,2.4.93l1.78-1.78A6.05,6.05,0,0,0,691,398a6.25,6.25,0,0,0-5.58,3.45l2.07,1.61A3.75,3.75,0,0,1,691,400.46Z"/><path class="cls-5" d="M680.62,478.06l5.41,9.37a1.22,1.22,0,0,0,1.67.44l1.73-1a1.22,1.22,0,0,0,.45-1.67l-5.41-9.37-.18.11-1.42.82-.43.25-.05,0-1.36.78Z"/><path class="cls-7" d="M682.89,479.76l2-1.14a1.12,1.12,0,0,0,.41-1.53l-.88-1.56-3.92,2.24.88,1.59A1.11,1.11,0,0,0,682.89,479.76Z"/><path class="cls-8" d="M670,469.59a8.44,8.44,0,0,0,8.44,8.44,8.47,8.47,0,0,0,4-1l.05,0,.43-.25a8.1,8.1,0,0,0,1.23-.93A8.44,8.44,0,1,0,670,469.59Zm2.27,0a6.18,6.18,0,1,1,6.17,6.17A6.17,6.17,0,0,1,672.24,469.59Z"/><polygon class="cls-3" points="687.1 489.56 685.78 487 686.15 484.04 687.1 484.59 687.62 486.1 688.58 485.94 688.64 484.27 688.14 482.19 690.39 482.64 691.62 485.64 690.94 487.23 687.1 489.56"/><path class="cls-3" d="M366.73,294.15a3.24,3.24,0,0,1-3.61-.34,3.18,3.18,0,0,1-3.46.49c-1.53-.89-1.78-3.3-.57-5.4,1.05-1.82,2.87-2.81,4.33-2.45a4.77,4.77,0,0,1,3.52,2.27C368.29,290.73,368.19,293.16,366.73,294.15Z"/><ellipse class="cls-3" cx="364.87" cy="282.78" rx="2.27" ry="1.69" transform="translate(12.66 581.17) rotate(-78.05)"/><ellipse class="cls-3" cx="360.1" cy="283.1" rx="1.69" ry="2.27" transform="translate(-71.31 129.13) rotate(-18.53)"/><ellipse class="cls-3" cx="356.84" cy="286.37" rx="1.69" ry="2.27" transform="translate(-97.98 336.2) rotate(-45)"/><ellipse class="cls-3" cx="368.86" cy="285.89" rx="2.27" ry="1.69" transform="translate(-88.67 377.85) rotate(-49.14)"/><path class="cls-3" d="M711.54,522.48a3.52,3.52,0,0,1-4-.38,3.47,3.47,0,0,1-3.8.54c-1.68-1-2-3.62-.64-5.93,1.16-2,3.16-3.08,4.76-2.69a5.26,5.26,0,0,1,3.87,2.49C713.25,518.73,713.15,521.4,711.54,522.48Z"/><ellipse class="cls-3" cx="709.5" cy="509.99" rx="2.49" ry="1.86" transform="translate(63.62 1098.48) rotate(-78.05)"/><ellipse class="cls-3" cx="704.25" cy="510.34" rx="1.86" ry="2.49" transform="translate(-125.69 250.3) rotate(-18.53)"/><ellipse class="cls-3" cx="700.67" cy="513.94" rx="1.86" ry="2.49" transform="translate(-158.19 645.98) rotate(-45)"/><ellipse class="cls-3" cx="713.88" cy="513.41" rx="2.49" ry="1.86" transform="translate(-141.44 717.47) rotate(-49.14)"/></g></svg>