<?xml version="1.0" encoding="UTF-8" standalone="no"?>
<svg
   viewBox="0 0 792.51 751.34"
   version="1.1"
   id="svg40"
   sodipodi:docname="RuleLaws.svg"
   inkscape:export-filename="RuleLaws.svg"
   inkscape:export-xdpi="96"
   inkscape:export-ydpi="96"
   inkscape:version="1.3.2 (091e20e, 2023-11-25)"
   xmlns:inkscape="http://www.inkscape.org/namespaces/inkscape"
   xmlns:sodipodi="http://sodipodi.sourceforge.net/DTD/sodipodi-0.dtd"
   xmlns="http://www.w3.org/2000/svg"
   xmlns:svg="http://www.w3.org/2000/svg">
  <sodipodi:namedview
     id="namedview40"
     pagecolor="#ffffff"
     bordercolor="#000000"
     borderopacity="0.25"
     inkscape:showpageshadow="2"
     inkscape:pageopacity="0.0"
     inkscape:pagecheckerboard="0"
     inkscape:deskcolor="#d1d1d1"
     inkscape:zoom="0.95897842"
     inkscape:cx="396.255"
     inkscape:cy="375.39948"
     inkscape:window-width="1920"
     inkscape:window-height="1027"
     inkscape:window-x="0"
     inkscape:window-y="25"
     inkscape:window-maximized="1"
     inkscape:current-layer="svg40" />
  <defs
     id="defs1">
    <style
       id="style1">.cls-1{fill:none;}.cls-1,.cls-8{stroke:#98d9c2;}.cls-1,.cls-8,.cls-9{stroke-miterlimit:10;stroke-width:4px;}.cls-2{fill:#f5efca;}.cls-3{fill:#5e8e73;}.cls-4{fill:#e64c3c;}.cls-5{fill:#cbb292;}.cls-6{fill:#fff;}.cls-7{fill:#e27329;}.cls-8{fill:#98d9c2;}.cls-9{fill:#197278;stroke:#197278;}.cls-10{fill:#f29c1f;}.cls-11{fill:#805333;}.cls-12{fill:#a56a43;}.cls-13{fill:#cf976a;}.cls-14{fill:#cb8252;}.cls-15{fill:#655;}.cls-16{fill:#ffecd2;}</style>
  </defs>
  <g
     id="text">
    <polyline
       class="cls-1"
       points="233.55 524.68 564.91 524.68 564.91 228.17"
       id="polyline1" />
    <path
       id="Shape"
       class="cls-2"
       d="M481.61,330.2c0,4.95,1.65,6.6,1.65,6.6h-9.89v-6.6H456.88v6.6h-33a6.6,6.6,0,1,1,0-13.19h59.35S481.61,325.26,481.61,330.2Z" />
    <path
       class="cls-3"
       d="M456.89,336.8v1.65H417.31V330.2a6,6,0,0,0,.05.74,2.4,2.4,0,0,0,.06.4.6.6,0,0,0,0,.2.65.65,0,0,0,0,.2c0,.14.07.27.11.39a1.51,1.51,0,0,0,.11.32s0,0,0,0a9.66,9.66,0,0,0,.35.79,6,6,0,0,0,1.17,1.59,3,3,0,0,0,.37.34l.09.09.23.17s0,0,0,0a2.21,2.21,0,0,0,.4.28,2.51,2.51,0,0,0,.45.26.07.07,0,0,0,.06,0,1.26,1.26,0,0,0,.35.17s0,0,0,0a2.33,2.33,0,0,0,.33.14l.09,0,.4.14a3.63,3.63,0,0,0,.57.13,3.12,3.12,0,0,0,.52.08,6.27,6.27,0,0,0,.74.05Z"
       id="path1" />
    <path
       class="cls-4"
       d="M461.84,394.51a1.65,1.65,0,0,1-1.65,1.65H447a1.65,1.65,0,1,1,0-3.3h13.21A1.65,1.65,0,0,1,461.84,394.51Z"
       id="path2" />
    <path
       class="cls-4"
       d="M434,394.22h-1.79v-.16A10.54,10.54,0,0,0,434,394.22Z"
       id="path3" />
    <path
       class="cls-4"
       d="M463.48,383v3.29a1.64,1.64,0,0,1-1.64,1.65H445.33a1.64,1.64,0,0,1-1.64-1.65V383a1.65,1.65,0,0,1,1.64-1.65h16.51A1.65,1.65,0,0,1,463.48,383Z"
       id="path4" />
    <path
       class="cls-4"
       d="M483.27,336.8v1.63a.44.44,0,0,1-.16,0h-9.73V336.8Z"
       id="path5" />
    <path
       id="Shape-2"
       data-name="Shape"
       class="cls-5"
       d="M427.21,331.85h-1.65a1.65,1.65,0,1,1,0-3.3h1.65a1.65,1.65,0,0,1,0,3.3Z" />
    <path
       id="Shape-3"
       data-name="Shape"
       class="cls-5"
       d="M450.29,331.85H433.8a1.65,1.65,0,0,1,0-3.3h16.49a1.65,1.65,0,0,1,0,3.3Z" />
    <path
       class="cls-2"
       d="M463.48,383v3.29a1.64,1.64,0,0,1-1.64,1.65H445.33a1.64,1.64,0,0,1-1.64-1.65V383a1.65,1.65,0,0,1,1.64-1.65h16.51A1.65,1.65,0,0,1,463.48,383Z"
       id="path6" />
    <path
       class="cls-6"
       d="M461.84,394.51a1.65,1.65,0,0,1-1.65,1.65H447a1.65,1.65,0,1,1,0-3.3h13.21A1.65,1.65,0,0,1,461.84,394.51Z"
       id="path7" />
    <path
       class="cls-3"
       d="M484.48,335.9a1.66,1.66,0,0,1-1.21,2.53.44.44,0,0,1-.16,0H425.55a8.21,8.21,0,0,1-8.06-6.71.65.65,0,0,1,0-.2.6.6,0,0,1,0-.2,2.4,2.4,0,0,1-.06-.4,6,6,0,0,1-.05-.74,6.27,6.27,0,0,1,.05-.74.57.57,0,0,1,0-.18,2.12,2.12,0,0,1,.07-.45,8.2,8.2,0,0,1,8.09-6.87h57.56a1.67,1.67,0,0,1,1.53,1,1.7,1.7,0,0,1-.08,1.41,1.62,1.62,0,0,1-1.09.87H425.55a4.95,4.95,0,0,0,0,9.89h57.56A1.62,1.62,0,0,1,484.48,335.9Z"
       id="path8" />
    <path
       class="cls-7"
       d="M473.38,331.85v39.57l-8.25-8.25-8.24,8.25V331.85a1.64,1.64,0,0,1,1.65-1.65h13.19A1.65,1.65,0,0,1,473.38,331.85Z"
       id="path9" />
    <path
       class="cls-3"
       d="M483.11,338.45h-9.73v33l-8.25-8.25-8.24,8.25v-33H417.31v52.63a10,10,0,0,0,8.24,9.86,10.54,10.54,0,0,0,1.79.17h54.28a1.65,1.65,0,0,0,1.65-1.65v-61A.44.44,0,0,1,483.11,338.45Zm-22.92,57.71H447a1.65,1.65,0,1,1,0-3.3h13.21a1.65,1.65,0,0,1,0,3.3Zm3.29-9.91a1.64,1.64,0,0,1-1.64,1.65H445.33a1.64,1.64,0,0,1-1.64-1.65V383a1.65,1.65,0,0,1,1.64-1.65h16.51a1.65,1.65,0,0,1,1.64,1.65Z"
       id="path10" />
    <path
       class="cls-1"
       d="M400.15,498.12c-90.68,0-164.36,10.67-165.55,23.9h-.86V228.17c0,13.39,74.15,24.24,165.6,24.24s165.57-10.85,165.57-24.24"
       id="path11" />
    <path
       class="cls-8"
       d="M564.91,228v.17c0,33-74.13,59.71-165.57,59.71s-165.6-26.74-165.6-59.71V228c.26-32.89,74.3-59.52,165.6-59.52S564.65,195.11,564.91,228Z"
       id="path12" />
    <path
       class="cls-9"
       d="M564.91,520.9v.17c0,33-74.13,59.71-165.57,59.71S233.74,554,233.74,521.07v-.17C234,488,308,461.38,399.34,461.38S564.65,488,564.91,520.9Z"
       id="path13" />
    <path
       id="Rectangle-path"
       class="cls-10"
       d="M508.07,365.23l4.56-6,18,13.68-4.56,6Z" />
    <path
       id="Shape-4"
       data-name="Shape"
       class="cls-11"
       d="M531.18,370.13l9,6.84a6.29,6.29,0,0,1-7.6,10l-9-6.84a2.52,2.52,0,0,1-.48-3.52l4.55-6A2.53,2.53,0,0,1,531.18,370.13Z" />
    <path
       id="Rectangle-path-2"
       data-name="Rectangle-path"
       class="cls-12"
       d="M488.21,364.37l18.23-24.05,16,12.16-18.24,24Z" />
    <path
       id="Shape-5"
       data-name="Shape"
       class="cls-13"
       d="M498.53,361.15l-.76,1a1.26,1.26,0,1,1-2-1.52l.76-1a1.26,1.26,0,1,1,2,1.52Z" />
    <path
       id="Shape-6"
       data-name="Shape"
       class="cls-13"
       d="M506.89,350.13l-5.32,7a1.26,1.26,0,1,1-2-1.52l5.32-7a1.26,1.26,0,0,1,2,1.52Z" />
    <path
       id="Shape-7"
       data-name="Shape"
       class="cls-14"
       d="M488.72,361.6l18,13.68A1.26,1.26,0,0,1,507,377l-1.52,2a3.78,3.78,0,0,1-5.29.72l-14-10.64a3.76,3.76,0,0,1-.73-5.28l1.52-2A1.25,1.25,0,0,1,488.72,361.6Z" />
    <path
       id="Shape-8"
       data-name="Shape"
       class="cls-14"
       d="M510.48,337.08l14,10.63a3.79,3.79,0,0,1,.73,5.29l-1.52,2a1.26,1.26,0,0,1-1.77.24l-18-13.67a1.27,1.27,0,0,1-.24-1.77l1.52-2A3.76,3.76,0,0,1,510.48,337.08Z" />
    <rect
       class="cls-10"
       x="462.41"
       y="388.65"
       width="31.82"
       height="4.65"
       rx="1.17"
       id="rect13" />
    <rect
       class="cls-12"
       x="459.94"
       y="393.3"
       width="36.77"
       height="9.1"
       rx="1.43"
       id="rect14" />
    <polygon
       class="cls-15"
       points="339.79 453.64 413.35 411.5 415.12 482.51 339.79 524.68 339.79 453.64"
       id="polygon14" />
    <polygon
       class="cls-16"
       points="274.66 416.65 346.83 376.74 366.79 387.28 295.64 428.69 274.66 416.65"
       id="polygon15" />
    <polygon
       class="cls-16"
       points="293.69 432 369.1 388.86 389.05 399.4 314.67 444.04 293.69 432"
       id="polygon16" />
    <polygon
       class="cls-16"
       points="316.32 444.24 391.72 401.1 411.68 411.64 337.3 456.28 316.32 444.24"
       id="polygon17" />
    <path
       class="cls-3"
       d="M368.9,386.75l-74.37,42.57,1.1.63-3.06,68.85-20.19-10.45,2.27-70.3v1.06l.49-.3.1-.43-.59-.33v-3.49l73.13-41.68v3.86l-66.45,38.51.13,0s-2.42,9.55,14.9,8.51v0l72.54-40.88Z"
       id="path17" />
    <polygon
       class="cls-15"
       points="315.64 442.19 341.37 456.59 339.42 523.71 314.49 510.78 315.64 442.19"
       id="polygon18" />
    <path
       class="cls-7"
       d="M390.58,397v3.85l-74.26,42.61-1.8,67.48-22-12.18,2.16-67.28v-3.22L371.39,385v3.85l-70.67,40.51c.77,3.73,3,12.06,18,8.54l1.25-1Z"
       id="path18" />
    <polygon
       class="cls-15"
       points="320.11 444.7 393.54 401.93 393.54 397.68 316.32 443.46 320.11 444.7"
       id="polygon19" />
    <polygon
       class="cls-15"
       points="340.7 454.99 413.42 413.01 413.42 408.76 336.91 453.75 340.7 454.99"
       id="polygon20" />
    <polygon
       class="cls-15"
       points="406.54 490.7 481.28 447.89 483.05 518.9 406.85 559.84 406.54 490.7"
       id="polygon21" />
    <polygon
       class="cls-16"
       points="342.58 453.04 414.76 413.13 434.71 423.67 363.56 465.08 342.58 453.04"
       id="polygon22" />
    <polygon
       class="cls-16"
       points="361.62 468.38 437.02 425.25 456.98 435.79 382.6 480.43 361.62 468.38"
       id="polygon23" />
    <polygon
       class="cls-16"
       points="384.24 480.63 459.65 437.49 479.6 448.03 405.22 492.67 384.24 480.63"
       id="polygon24" />
    <path
       class="cls-3"
       d="M436.82,423.14l-74.36,42.57,1.1.63-3.06,68.85-20.19-10.45,2.26-70.3v1.06l.5-.3.1-.43-.6-.33v-3.5l73.14-41.67v3.86l-66.45,38.51.13,0s-2.43,9.54,14.9,8.51v0l72.53-40.88Z"
       id="path24" />
    <polygon
       class="cls-15"
       points="383.56 478.58 409.3 492.98 407.35 560.1 382.42 547.17 383.56 478.58"
       id="polygon25" />
    <path
       class="cls-7"
       d="M458.51,433.38v3.86l-74.27,42.6-1.79,67.48L360.4,535.15l2.16-67.28v-3.22l76.76-43.31v3.86l-70.67,40.51c.76,3.72,3,12.06,18,8.54l1.25-1Z"
       id="path25" />
    <polygon
       class="cls-15"
       points="388.04 481.08 461.46 438.32 461.46 434.06 384.24 479.84 388.04 481.08"
       id="polygon26" />
    <polygon
       class="cls-15"
       points="408.63 491.38 481.35 449.4 481.35 445.14 404.83 490.14 408.63 491.38"
       id="polygon27" />
    <line
       class="cls-1"
       x1="268.38"
       y1="321.72"
       x2="268.38"
       y2="387.69"
       id="line27" />
    <line
       class="cls-1"
       x1="285.65"
       y1="330.8"
       x2="285.65"
       y2="356.6"
       id="line28" />
    <polygon
       class="cls-16"
       points="388.48 530.76 388.48 537.4 403.24 545.17 403.24 538.45 388.48 530.76"
       id="polygon28" />
    <polygon
       class="cls-16"
       points="364.75 518.62 364.75 525.3 379.51 533.07 379.51 526.31 364.75 518.62"
       id="polygon29" />
    <polygon
       class="cls-16"
       points="367.62 530.19 367.62 533.41 375.39 537.8 375.39 534.5 367.62 530.19"
       id="polygon30" />
    <polygon
       class="cls-16"
       points="390.58 542.33 390.58 545.55 398.36 549.94 398.36 546.64 390.58 542.33"
       id="polygon31" />
    <polygon
       class="cls-16"
       points="343.9 506.65 343.9 513.29 358.67 521.06 358.67 514.34 343.9 506.65"
       id="polygon32" />
    <polygon
       class="cls-16"
       points="320.18 494.51 320.18 501.19 334.94 508.96 334.94 502.2 320.18 494.51"
       id="polygon33" />
    <polygon
       class="cls-16"
       points="323.04 506.08 323.04 509.3 330.82 513.69 330.82 510.39 323.04 506.08"
       id="polygon34" />
    <polygon
       class="cls-16"
       points="346.01 518.22 346.01 521.44 353.78 525.83 353.78 522.53 346.01 518.22"
       id="polygon35" />
    <polygon
       class="cls-16"
       points="296.99 482.56 296.99 489.2 311.75 496.97 311.75 490.25 296.99 482.56"
       id="polygon36" />
    <polygon
       class="cls-16"
       points="275.25 471.36 275.25 478.03 290.01 485.8 290.01 479.04 275.25 471.36"
       id="polygon37" />
    <polygon
       class="cls-16"
       points="277.99 482.95 277.99 486.17 285.77 490.56 285.77 487.25 277.99 482.95"
       id="polygon38" />
    <polygon
       class="cls-16"
       points="300.49 494.13 300.49 497.35 308.26 501.74 308.26 498.44 300.49 494.13"
       id="polygon39" />
    <rect
       class="cls-2"
       x="440.97"
       y="380.54"
       width="24.67"
       height="8.11"
       id="rect39" />
    <rect
       class="cls-2"
       x="444.29"
       y="391.98"
       width="17.55"
       height="4.18"
       id="rect40" />
  </g>
</svg>
