<svg xmlns="http://www.w3.org/2000/svg" viewBox="0 0 792.51 751.34"><defs><style>.cls-1,.cls-6,.cls-9{fill:none;}.cls-1,.cls-10{stroke:#5e8e73;}.cls-1,.cls-10,.cls-2,.cls-6,.cls-9{stroke-miterlimit:10;}.cls-1,.cls-10,.cls-2{stroke-width:4px;}.cls-2{fill:#197278;stroke:#197278;}.cls-3{fill:#98d9c2;}.cls-4{fill:#fab857;}.cls-5{fill:#ffecd2;}.cls-6,.cls-9{stroke:#fcd462;}.cls-7{fill:#fcd462;}.cls-10,.cls-8{fill:#5e8e73;}.cls-9{stroke-width:0.75px;}.cls-11{fill:#e27329;}.cls-12{fill:#d59f63;}.cls-13{fill:#ffe1b4;}.cls-14,.cls-18{fill:#655;}.cls-15{fill:#fad7a5;}.cls-16{fill:#e2c39a;}.cls-17{fill:#fff;}.cls-18{opacity:0.1;}</style></defs><g id="text"><path class="cls-1" d="M244,511.57H578.3V240.24c0,12.36-74.79,22.39-167,22.39s-167-10-167-22.39V511.57h.86c1.2-12.22,75.53-22.07,167-22.07"/><path class="cls-2" d="M578.3,511.39v.17c0,33.26-74.79,60.23-167,60.23s-167-27-167-60.23v-.17c.26-33.18,75-60.05,167-60.05S578,478.21,578.3,511.39Z"/><polygon class="cls-3" points="378.95 350.44 378.95 402.93 360.63 402.93 349.74 413.83 351.43 402.93 303.01 402.93 303.01 350.44 378.95 350.44"/><circle class="cls-4" cx="316.07" cy="365.01" r="7.3"/><rect class="cls-4" x="329.21" y="362.33" width="41.28" height="4.13"/><rect class="cls-5" x="311.07" y="378.03" width="55.02" height="1.93"/><rect class="cls-5" x="311.07" y="382.13" width="37.8" height="1.93"/><line class="cls-6" x1="359.21" y1="469.55" x2="457.92" y2="469.55"/><polygon class="cls-7" points="457.33 471.54 460.79 469.55 457.33 467.55 457.33 471.54"/><line class="cls-6" x1="361.08" y1="487.04" x2="459.79" y2="487.04"/><polygon class="cls-7" points="361.66 489.04 358.21 487.04 361.66 485.05 361.66 489.04"/><circle class="cls-8" cx="406.47" cy="423.19" r="22.43"/><path class="cls-7" d="M410,427.1h.3V431h-7.49V427.1h.3a6,6,0,1,1,6.89,0Z"/><rect class="cls-7" x="402.85" y="433.09" width="7.44" height="1.5"/><rect class="cls-7" x="404.58" y="435.63" width="3.97" height="1.5"/><line class="cls-9" x1="406.57" y1="407.51" x2="406.57" y2="413.47"/><line class="cls-9" x1="418.03" y1="413.47" x2="413.61" y2="416.43"/><line class="cls-9" x1="399.68" y1="416.34" x2="395.01" y2="413.06"/><path class="cls-10" d="M578.3,239.57v.17c0,33.24-74.75,60.2-167,60.2s-167-27-167-60.2v-.17c.26-33.17,74.92-60,167-60S578,206.4,578.3,239.57Z"/><polygon class="cls-11" points="433.99 348.27 433.99 400.76 452.31 400.76 463.2 411.65 461.51 400.76 509.93 400.76 509.93 348.27 433.99 348.27"/><circle class="cls-4" cx="446.78" cy="362.83" r="7.3"/><rect class="cls-4" x="458.35" y="360.15" width="41.28" height="4.13" transform="translate(957.99 724.43) rotate(-180)"/><rect class="cls-5" x="440.66" y="375.85" width="55.02" height="1.93" transform="translate(936.33 753.63) rotate(-180)"/><rect class="cls-5" x="440.66" y="379.96" width="37.8" height="1.93" transform="translate(919.12 761.85) rotate(-180)"/><path class="cls-12" d="M289,414.85c.26,1.28-.58,40.81-.58,40.81h15l-.85-10.4Z"/><path class="cls-12" d="M333.79,417.1c-.26,1.21.58,38.56.58,38.56h-15l.85-9.82Z"/><path class="cls-13" d="M325.89,455.51c-5.73-1.14-3.13-11.92-3.13-11.92H302.53c2.34,8.6-2.15,11.08-2.15,11.08"/><path class="cls-14" d="M305.94,450.47h12.48a26.69,26.69,0,0,1,26.69,26.69v20.08a0,0,0,0,1,0,0H281.17a0,0,0,0,1,0,0v-22A24.77,24.77,0,0,1,305.94,450.47Z"/><path class="cls-15" d="M312.72,446l-9.73,4.4s.53-4.6-.07-5.05S312.72,446,312.72,446Z"/><path class="cls-16" d="M302.38,444.84s12.15,6.68,20.08-.36c0,0-.6,12.09.8,17.87L302.45,462A67.83,67.83,0,0,0,302.38,444.84Z"/><polygon class="cls-17" points="302.99 450.37 312.56 460.77 302.9 468.43 300.8 450.47 302.99 450.37"/><ellipse class="cls-15" cx="294.66" cy="431.34" rx="3.14" ry="5.13" transform="translate(-196.94 254.69) rotate(-35.9)"/><ellipse class="cls-13" cx="331.05" cy="430.62" rx="5.13" ry="3.14" transform="translate(-211.88 446.32) rotate(-54.1)"/><polygon class="cls-17" points="322.14 450.37 312.56 460.77 322.23 468.43 324.33 450.47 322.14 450.37"/><path class="cls-18" d="M320.18,450.42l3.35.1c10.79,0,19.62,8,19.62,17.82v29H310.92l-.31-36.46"/><rect class="cls-13" x="293.76" y="410.48" width="36.97" height="37.53" rx="12"/><path class="cls-15" d="M302.45,447.36l9.79.65V409.92L293.6,411s-.31,24.29.67,28.19S300.93,447.26,302.45,447.36Z"/><path class="cls-12" d="M293.63,427.78s7-15.94,6.44-15.2c-6.91,9.24,16.22,20.68,36.09,13.66,0,0,5.53-41.3-36.88-27a7.26,7.26,0,0,0-1.59.76C294.28,402.1,282.71,411,293.63,427.78Z"/><path class="cls-13" d="M530.06,452.38c-5.73-1.15-3.13-11.93-3.13-11.93H506.7c2.33,8.6-2.15,11.08-2.15,11.08"/><path class="cls-4" d="M502,447.33h30.64A16.65,16.65,0,0,1,549.28,464V494.1a0,0,0,0,1,0,0H485.34a0,0,0,0,1,0,0V464A16.65,16.65,0,0,1,502,447.33Z"/><rect class="cls-13" x="498.25" y="405.86" width="36.97" height="36.97" rx="12"/><path class="cls-15" d="M507.09,442.19l9.8.64V404.74l-18.64,1.12s-.31,24.29.67,28.19S505.58,442.09,507.09,442.19Z"/><path class="cls-14" d="M497.8,424.65s5.82-14.54,6.44-15.21c1.66-1.76,17,19.71,36.09,13.66,0,0,5.53-41.29-36.88-27a7,7,0,0,0-1.59.75C498.45,399,486.88,407.88,497.8,424.65Z"/><path class="cls-15" d="M516.89,442.83l-9.73,4.4s.53-4.6-.07-5S516.89,442.83,516.89,442.83Z"/><path class="cls-16" d="M506.55,441.71s12.15,6.67,20.08-.37c0,0-.6,12.1.8,17.87l-20.81-.34A67.77,67.77,0,0,0,506.55,441.71Z"/><rect class="cls-11" x="514.1" y="457.09" width="5.88" height="37.01"/><polygon class="cls-17" points="507.16 447.23 516.73 457.64 507.07 465.29 504.97 447.33 507.16 447.23"/><ellipse class="cls-15" cx="498.83" cy="428.2" rx="3.14" ry="5.13" transform="translate(-156.32 373.8) rotate(-35.9)"/><ellipse class="cls-13" cx="535.22" cy="427.48" rx="5.13" ry="3.14" transform="translate(-124.88 610.41) rotate(-54.1)"/><polygon class="cls-17" points="526.3 447.23 516.73 457.64 526.4 465.29 528.5 447.33 526.3 447.23"/><path class="cls-18" d="M526.31,447.23l3.35.1c10.79,0,19.62,8,19.62,17.83V494.1H517l-.31-36.46"/></g></svg>