<svg xmlns="http://www.w3.org/2000/svg" viewBox="0 0 2048 2048"><defs><style>.cls-1,.cls-11,.cls-8{fill:#fff;}.cls-1,.cls-5{stroke:#000;}.cls-1,.cls-2,.cls-5,.cls-6,.cls-8{stroke-miterlimit:10;stroke-width:2px;}.cls-2,.cls-5,.cls-6{fill:none;}.cls-2{stroke:#514342;}.cls-3{fill:#fff4e6;}.cls-10,.cls-4{fill:#fab464;}.cls-4,.cls-6,.cls-8,.cls-9{isolation:isolate;}.cls-6,.cls-8{stroke:#fab464;}.cls-7{fill:#514342;}</style></defs><g id="table"><polygon class="cls-1" points="589.62 1078.79 1563.64 1078.79 1751.81 1230.98 437.43 1230.98 589.62 1078.79"/><polygon class="cls-1" points="1751.12 1264.18 813.75 1264.18 437.43 1264.18 437.43 1230.98 1751.12 1230.98 1751.12 1264.18"/><rect class="cls-1" x="1466.1" y="1264.88" width="41.51" height="390.16"/><polygon class="cls-1" points="530.91 1697.09 628.54 1607.37 691.28 1613.13 594.7 1701.77 530.91 1697.09"/><polygon class="cls-1" points="1434.97 1623.91 1512.45 1622.53 1577.48 1706.92 1501.38 1715.22 1434.97 1623.91"/><path class="cls-2" d="M1028.4,757.26h33.2"/><rect class="cls-1" x="594.46" y="1264.88" width="41.51" height="390.16"/></g><g id="senior_comment" data-name="senior comment"><rect class="cls-1" x="745.85" y="326.11" width="654.64" height="374.81" rx="30"/><rect class="cls-3" x="1080.32" y="531.72" width="265.53" height="122.55"/><rect class="cls-3" x="806.11" y="398.62" width="200.17" height="264"/><polygon class="cls-3" points="1346.36 393.51 1346.36 478.28 1261.15 478.28 1214.96 507.21 1227.28 478.28 1077.77 478.28 1077.77 393.51 1346.36 393.51"/><circle class="cls-4" cx="1113.13" cy="424.02" r="16.98"/><path class="cls-5" d="M658.79,522.57a17,17,0,1,1-17-17A17,17,0,0,1,658.79,522.57Z"/><circle class="cls-4" cx="1122.83" cy="579.77" r="16.98"/><rect class="cls-4" x="1152.32" y="410.87" width="160" height="7.83"/><rect class="cls-4" x="1152.32" y="425.85" width="160" height="7.83"/><rect class="cls-5" x="672.83" y="511.64" width="99.83" height="9.67"/><rect class="cls-5" x="672.83" y="531.58" width="99.83" height="9.68"/><rect class="cls-4" x="828.7" y="427.23" width="134.17" height="9.68"/><rect class="cls-4" x="828.7" y="447.17" width="107.79" height="9.68"/><rect class="cls-4" x="828.7" y="469.35" width="134.17" height="9.68"/><rect class="cls-4" x="828.7" y="489.29" width="74.43" height="9.68"/><rect class="cls-4" x="828.7" y="513.78" width="134.17" height="9.68"/><rect class="cls-4" x="828.7" y="533.72" width="134.17" height="9.68"/><rect class="cls-4" x="1152.32" y="565.09" width="160" height="7.83"/><rect class="cls-4" x="1152.32" y="582.45" width="160" height="7.83"/><rect class="cls-6" x="1383.13" y="460.91" width="33.7" height="146.04" rx="16.85"/><path class="cls-3" d="M787.21,488H604.4v87.83h96.42l38.71,24.25L729.2,575.81h58Zm-145.4,51.57a17,17,0,1,1,17-17A17,17,0,0,1,641.81,539.55Zm130.85,1.71H672.83v-9.68h99.83Zm0-20H672.83v-9.67h99.83Z"/><path class="cls-4" d="M658.79,522.57a17,17,0,1,1-17-17A17,17,0,0,1,658.79,522.57Z"/><rect class="cls-4" x="672.83" y="511.64" width="99.83" height="9.67"/><rect class="cls-4" x="672.83" y="531.58" width="99.83" height="9.68"/></g><g id="chair"><path class="cls-1" d="M956.74,1554.19l-1,31.66-64.34,38.81-1,31.66s-7.83-13.62-20.08-15v-27.91Z"/><circle class="cls-1" cx="864.83" cy="1668.57" r="27.57"/><path class="cls-1" d="M1161.26,1551.89l1,31.66,64.34,38.81,1,31.66s7.83-13.62,20.08-15v-27.91Z"/><circle class="cls-1" cx="1240.15" cy="1664.74" r="27.57"/><path class="cls-1" d="M1052.91,1562.19s7.83-7.83,18,0"/><path class="cls-1" d="M1285.09,1264.85c0,48.33-103.57,87.51-231.32,87.51s-231.32-39.18-231.32-87.51Z"/><path class="cls-3" d="M1204.41,954.7a156.26,156.26,0,1,1-300-61.28h-.23c15.38-35.32,14.34-85,13.67-99.2v-.12q-.39-4.93-.39-10a128.68,128.68,0,0,1,257.36,0q0,3.55-.19,7.05l.53-.58s-3.25,53.77,12.66,93.89A155.55,155.55,0,0,1,1204.41,954.7Z"/></g><g id="senior"><g id="legs"><path class="cls-7" d="M882.45,1287s87.88,114.79,81.79,141.45S946,1709.82,946,1709.82l95.32,3s30.23-354.63,16-382.77-10.21-33.7-10.21-33.7Z"/><path class="cls-7" d="M1074.13,1286.93s-18.41,58.08-9,167.3,2.17,258.56,2.17,258.56l109.78-8.18L1156.89,1522a348.72,348.72,0,0,0-11.34-58.15c-3.86-13.44-3.74-39.08,23.57-81,44.06-67.61,62.84-98.07,62.84-98.07Z"/><path class="cls-5" d="M992.83,1785c-18.39-7.48-43.81,5.77-47,7.47,8.24-33.1,16.47-81.82,16.47-81.82L1003,1712C1003.16,1718.1,1003.61,1762.89,992.83,1785Z"/><path class="cls-5" d="M1006.71,1780.44a37.88,37.88,0,0,0-2.12-5A9.59,9.59,0,0,1,1006.71,1780.44Z"/><path class="cls-5" d="M1011.61,1758.67a140.39,140.39,0,0,1-4.38,22l-.52-.19A136.87,136.87,0,0,0,1011.61,1758.67Z"/><path class="cls-5" d="M1144.5,1783.92c-17.13-9.34-35.67-7-48.83-3-7.4-20.51-13.52-44.65-13.52-44.65-.2.65-.4,1.3-.59,2a169.58,169.58,0,0,1,9.38-27.29l43-2.81s.46-3.26-1.87,26.16C1130.79,1750,1137.42,1767.08,1144.5,1783.92Z"/><path class="cls-7" d="M1026,1351.37s30.82-36.42,60.24,7.7l11.21-72.14h-93.86Z"/></g><g id="shoes"><path class="cls-7" d="M1013.67,1781a.51.51,0,0,1,0,.13,137.69,137.69,0,0,1-4.89,21.77,9.68,9.68,0,0,0-2.13-5,39.29,39.29,0,0,1,2.13,5l.52.19a96.15,96.15,0,0,1-9.86,23.15c-26.62,44.13-70,16.11-60.24-10.51a231.3,231.3,0,0,0,6.7-23.29c3.14-1.73,28.62-15.19,47-7.6,10.81-22.45,10.35-66.9,10.23-73.09h7.46S1018.06,1745.17,1013.67,1781Z"/><path class="cls-7" d="M1110.46,1845.31c-15.26-.32-25.79-19.62-30.92-42.18v0a146.27,146.27,0,0,1-3.62-30.18,138.84,138.84,0,0,1,4.63-35.74c.18-.65.39-1.3.59-2,0,0,6.12,24.14,13.52,44.65,13.16-4,31.7-6.33,48.83,3,6.16,14.63,12.66,29.09,14.61,42.33C1162.29,1853.71,1132.41,1845.78,1110.46,1845.31Z"/><polygon class="cls-7" points="875.55 1265.68 877.6 1297.6 1248.32 1295.08 1244.23 1263.98 875.55 1265.68"/></g><g id="face"><path class="cls-1" d="M1117.22,710.8a70.05,70.05,0,0,1-1.57,9c-.15.63-.31,1.26-.49,1.88a69.45,69.45,0,0,1-4,11.12,167.52,167.52,0,0,0-2.23,25.57h-.07c0,.26,0,.51,0,.77,0,1.92-.09,3.82-.26,5.7a63.19,63.19,0,0,1-125.84.24c-.19-2-.28-3.94-.28-5.94-.05-15.86-3.18-27-5-32.2h.35c-.3-.81-.57-1.63-.83-2.46-.09-.28-.18-.56-.26-.84a71.39,71.39,0,0,1-2.91-16.25,30.3,30.3,0,0,0,10.52,4.27,77.36,77.36,0,0,0,38.3-1.53l-20.68-21.45,32.17,22.21s39.83,5.36,49.78.77c9.53-4.4-.57-16.5-1.47-17.55l16,16Z"/><path class="cls-5" d="M977.8,726.92h-.35c-.38-1.1-.71-1.93-.94-2.48s-.36-.81-.36-.81l.56,0c.08.28.17.56.26.84C977.23,725.29,977.5,726.11,977.8,726.92Z"/><path class="cls-5" d="M1029.77,743.47s8.51-4.09,10.55,7.83a47.54,47.54,0,0,1,.6,7.47l.59,15a4.37,4.37,0,0,0,.77,2.41,3.45,3.45,0,0,0,3.15,1.37c7.48-.34,10.55-1.36,10.55-1.36"/><path class="cls-5" d="M1029.17,785.14a25.86,25.86,0,0,0,36.59.4"/><path class="cls-5" d="M1068.52,606a34,34,0,0,1-49.36,1.15A92.48,92.48,0,0,1,1068.52,606Z"/><path class="cls-5" d="M1119.13,710.87l-1.91-.07a72.66,72.66,0,0,0-.66-20.58c3.59,1.43,5.63,2.27,5.63,2.27C1123,701.68,1119.13,710.87,1119.13,710.87Z"/><path class="cls-7" d="M1077.26,593.93a34,34,0,1,1-34-33.95A33.82,33.82,0,0,1,1077.26,593.93Z"/><path class="cls-7" d="M1116.56,690.22a72.66,72.66,0,0,1,.66,20.58l-18.77-.69-16-16c.9,1,11,13.15,1.47,17.55-10,4.59-49.78-.77-49.78-.77l-32.17-22.21,20.68,21.45a77.36,77.36,0,0,1-38.3,1.53,30.3,30.3,0,0,1-10.52-4.27,71.39,71.39,0,0,0,2.91,16.25c.08.28.17.56.26.84.26.83.53,1.65.83,2.46h-.35l-10.41.4-2.47,2.1s-47.14-74.47,36.6-115.32a112.89,112.89,0,0,1,18-7,34,34,0,0,0,49.36-1.15c47,12,73.22,74,67.46,89.86-8.17,22.47-14.56,28.59-14.56,28.59l-8,.3c.18-.62,2-4.28,2.18-4.91a70.05,70.05,0,0,0,1.57-9"/><path class="cls-5" d="M973.8,707.37c-9.27-6.29-7.86-15.65-7.86-15.65"/><path class="cls-5" d="M1082.36,694l0,0,0,.05"/><path class="cls-5" d="M988.86,733.82c7.2-9.34,21.91-10.07,32.88-1.61"/><path class="cls-5" d="M1068.27,735.1c7.2-9.35,21.9-10.07,32.88-1.62"/><ellipse class="cls-7" cx="1008.2" cy="744.86" rx="5.97" ry="6.18"/><path class="cls-7" d="M1015.13,746.28s-3.9-2.51-6.61-4.75c-6.15-1.11-11.63,4.84-11.63,4.84a10.42,10.42,0,0,1,9.6-8.23h0l.44,0A8.17,8.17,0,0,1,1015.13,746.28Z"/><ellipse class="cls-7" cx="1081.82" cy="745.5" rx="5.97" ry="6.18"/><path class="cls-7" d="M1074.89,746.92s3.9-2.51,6.6-4.75c6.15-1.11,11.64,4.84,11.64,4.84a10.42,10.42,0,0,0-9.6-8.23h0l-.44,0A8.18,8.18,0,0,0,1074.89,746.92Z"/><path class="cls-1" d="M982.75,765.07c-7.76,1-16.12-3.61-20.41-11.93-4.93-9.54-2.76-20.62,4.7-25.81a14.92,14.92,0,0,1,1.8-1.1,16.09,16.09,0,0,1,7.67-1.78H977c.26.83.53,1.65.83,2.46h-.35c1.84,5.19,5,16.34,5,32.2C982.47,761.13,982.56,763.12,982.75,765.07Z"/><path class="cls-1" d="M1128.42,750.62c-4.48,8.68-12.4,14-19.83,14.21.17-1.88.26-3.78.26-5.7,0-.26,0-.51,0-.77h.07a167.52,167.52,0,0,1,2.23-25.57c1.64-3.56,2.16-3.47,3.19-7.32.18-.62.34-1.25.49-1.88a14.62,14.62,0,0,1,7.46,1.58C1131.18,729.77,1134.38,739.06,1128.42,750.62Z"/><rect class="cls-5" x="978.7" y="744.83" width="49.53" height="27.57" rx="6"/><line class="cls-5" x1="976.51" y1="724.45" x2="978.7" y2="749.77"/><line class="cls-5" x1="1111.14" y1="732.79" x2="1111.3" y2="749.26"/><rect class="cls-5" x="1061.94" y="744.83" width="49.53" height="27.57" rx="6"/></g><g id="shirt_v" data-name="shirt v"><path class="cls-4" d="M1093.09,836.4s8.93,25.45,99.14,37.07l23.52,2.46c22.79,5.51,39.72,37.31,39.72,60v144.22c0,26.95-23.9,36.42-53.1,36.42H910.28c-29.21,0-53.11-22-53.11-49V923.35c0-25,12.06-44.74,38.3-47.66l50.07-7.13a104.9,104.9,0,0,0,21.26-5.32c15.1-5.51,41.39-16.2,54-28a23.59,23.59,0,0,1-5.11,15.25s54.9,63.31,77.37-14"/></g><g id="neck"><path class="cls-1" d="M1093.09,836.49s-11.24-20.17-7.15-28.6a.61.61,0,0,0,0-.12c-37.56,28.73-69.94,7.19-69.94,7.19a54.49,54.49,0,0,1,4.21,13.61,41.61,41.61,0,0,1,.57,6.72,27,27,0,0,1-5.11,16.52l9.28,11.83S1068.74,900.4,1093.09,836.49Z"/><path class="cls-7" d="M1090.69,831.8s26.12,1.53,33.13,24.69-60.35,33.62-60.35,33.62l-11.35-16.28S1098.7,857.94,1090.69,831.8Z"/><path class="cls-7" d="M1052.15,873.68l-10.89,15.66s-59.07-8.51-52.43-30.47,31.62-23.31,31.62-23.31c1.4,5-1.66,10.76-3,13.09C1021.9,864.13,1052.15,873.68,1052.15,873.68Z"/></g></g><g id="junior"><g id="Layer_12" data-name="Layer 12"><path class="cls-8" d="M1719.13,648.83c0,53.58-47.78,97-106.73,97q-2.25,0-4.47-.09l-44.72,28,14.17-33.27c-41.74-13.17-71.7-49.24-71.7-91.67,0-53.58,47.78-97,106.72-97S1719.13,595.25,1719.13,648.83Z"/></g><g id="laptop"><rect class="cls-1" x="871.47" y="908.23" width="353.36" height="222.64" rx="27.57"/></g><path class="cls-4" d="M1666,786.06v257.11a29.57,29.57,0,0,1-1,7.75,30,30,0,0,1-29,22.25H1382a30,30,0,0,1-29.49-24.52,29.09,29.09,0,0,1-.51-5.48V786.06a30,30,0,0,1,30-30h254A30,30,0,0,1,1666,786.06Z"/><path class="cls-7" d="M1541.77,976l-.34.19,1.53-27.06,0,0a35.06,35.06,0,0,0,2.12-4.19c.16-.35.3-.69.43-1a39.58,39.58,0,0,0,2-6.71c0-.14.06-.28.08-.42.07-.31.12-.62.17-.93.08-.47.15-.93.21-1.4.09-.67.16-1.33.22-2,0-.35.06-.7.08-1l0-.31c0-.33,0-.66,0-1s0-.53,0-.79a59.21,59.21,0,0,0-3.87-22c-.14-.32-.27-.63-.4-1s-.25-.63-.37-1c-.24-.63-.46-1.25-.65-1.87-.1-.32-.19-.63-.28-.93-.16-.54-.3-1.08-.42-1.61-.07-.29-.14-.58-.2-.87h0c-.13-.63-.25-1.25-.34-1.87-2.59-16.65,7.77-29.24,7.77-29.24-58-3-89.9-12.74-107.41-23.15-1-.62-2-1.24-3-1.87-9.56-6.31-14.12-12.72-16.24-17.86-2.61-6.32-1.54-10.73-1.54-10.73,11.23-53.62,72.51-47.49,85.27-33.19s96.51,54.12,96.51,54.12C1613,934.26,1547.08,973,1541.77,976Z"/><path class="cls-1" d="M1544.09,906.26c-.13-.32-.25-.63-.37-1-.24-.63-.46-1.25-.65-1.87-.1-.32-.19-.63-.28-.93-.16-.54-.3-1.08-.42-1.61-.07-.29-.14-.58-.2-.87h0c-.13-.63-.25-1.25-.34-1.87-2.59-16.65,7.77-29.24,7.77-29.24-58-3-89.9-12.74-107.41-23.15-3.44,15.25.17,33.54.17,33.54l-4.71,8.08s0,.1,0,.15c-2.5,8.67-8.47,17.86-11.59,32.18a84.91,84.91,0,0,0-1.75,12.4c-.93,13.53,6.38,37.9,31.82,46.62,12.93,4.44,30.53,4.84,54.11-2.27,0,0,18.38-6.12,32.76-27.37l0,0a35.06,35.06,0,0,0,2.12-4.19c.16-.35.3-.69.43-1a39.58,39.58,0,0,0,2-6.71c0-.14.06-.28.08-.42.07-.31.12-.62.17-.93.08-.47.15-.93.21-1.4.09-.67.16-1.33.22-2,0-.35.06-.7.08-1l0-.31c0-.33,0-.66,0-1s0-.53,0-.79a59.21,59.21,0,0,0-3.87-22C1544.35,906.89,1544.22,906.58,1544.09,906.26Zm-100.2,35.42c.38-2,1.77-4.53,3.83-5.11,2.93-.81,4.76,2.92,9.45,5.37,6.82,3.55,16.56,2.75,22.72-1.28,4.62-3,4.85-6.29,8.43-6.64,4-.39,8.66,3.25,10,7.41,2.32,7.45-6,17-14.56,20.68-8,3.44-15.42,1.5-18.4.68C1453.64,959.58,1442.5,949.31,1443.89,941.68Z"/><g id="face-2" data-name="face"><path class="cls-5" d="M1449.46,890.83c-1.11,4-3.37,6.93-5,6.47s-2.13-4.1-1-8.14,3.37-6.93,5-6.47S1450.57,886.8,1449.46,890.83Z"/><path class="cls-5" d="M1483.72,962.11c-8,3.44-15.42,1.5-18.4.68-11.68-3.21-22.82-13.48-21.43-21.11.38-2,1.77-4.53,3.83-5.11,2.93-.81,4.76,2.92,9.45,5.37,6.82,3.55,16.56,2.75,22.72-1.28,4.62-3,4.85-6.29,8.43-6.64,4-.39,8.66,3.25,10,7.41C1500.6,948.88,1492.24,958.42,1483.72,962.11Z"/><path class="cls-5" d="M1500.66,903.44c-1.36,4.94-4.12,8.48-6.17,7.92s-2.6-5-1.24-10,4.12-8.48,6.17-7.92S1502,898.5,1500.66,903.44Z"/><path class="cls-5" d="M1500.66,903.44c-1.36,4.94-4.12,8.48-6.17,7.92s-2.6-5-1.24-10,4.12-8.48,6.17-7.92S1502,898.5,1500.66,903.44Z"/><path class="cls-5" d="M1449.46,890.83c-1.11,4-3.37,6.93-5,6.47s-2.13-4.1-1-8.14,3.37-6.93,5-6.47S1450.57,886.8,1449.46,890.83Z"/><path class="cls-1" d="M1483.72,962.11c-8,3.44-15.42,1.5-18.4.68-11.68-3.21-22.82-13.48-21.43-21.11.38-2,1.77-4.53,3.83-5.11,2.93-.81,4.76,2.92,9.45,5.37,6.82,3.55,16.56,2.75,22.72-1.28,4.62-3,4.85-6.29,8.43-6.64,4-.39,8.66,3.25,10,7.41C1500.6,948.88,1492.24,958.42,1483.72,962.11Z"/><path class="cls-5" d="M1466.62,888.57a67.47,67.47,0,0,1-7.41,14,65.76,65.76,0,0,1-8.93,10.47c-3,3.21-4.53,4.7-4.6,7.14-.12,4,3.83,6.8,4.34,7.15,5.11,3.56,11.41,1,12,.77"/><path class="cls-5" d="M1526.45,891.21c0-10.91-11.27-19.74-25.19-19.74"/><path class="cls-5" d="M1441.34,864.49s15.49-13.79,20.26-1.7"/></g><g id="ears"><path class="cls-1" d="M1569,917.43c-3.72,11-12.82,15.34-21,16.94.09-.67.16-1.33.22-2,0-.35.06-.7.08-1l0-.31c0-.33,0-.66,0-1s0-.53,0-.79a59.21,59.21,0,0,0-3.87-22c-.14-.32-.27-.63-.4-1s-.25-.63-.37-1c-.24-.63-.46-1.25-.65-1.87-.1-.32-.19-.63-.28-.93-.16-.54-.3-1.08-.42-1.61-.07-.29-.14-.58-.2-.87h0l1-3.36S1576.49,895.3,1569,917.43Z"/><path class="cls-1" d="M1437.61,887.53c-2.5,8.67-8.47,17.86-11.59,32.18-3.25-2.27-7.68-6.45-8.93-13a20.83,20.83,0,0,1,2.29-13.53,28.7,28.7,0,0,1,6.6-8.6c1.92-1.57,4-2.54,6.17-2.12,2.5.49,4.26,2.77,5.42,5Z"/></g><path class="cls-7" d="M1442.36,879.3l-4.71,8.08-.05.09,0,0c-1.16-2.23-2.92-4.51-5.42-5-2.12-.42-4.25.55-6.17,2.12-8.75-25-6.32-45.87-3-58.54,2.12,5.14,6.68,11.55,16.24,17.86.94.63,1.93,1.25,3,1.87C1438.75,861,1442.36,879.3,1442.36,879.3Z"/><path class="cls-1" d="M1543,949.09s-.22,12.89-1.19,26.87c-.44,6.23-1,12.67-1.79,18.28,0,.24-.07.47-.1.7-.08.55-.16,1.1-.24,1.63-2.2,14.18-33.43,32.1-47,39.25-3.77,2-6.16,3.14-6.16,3.14l-31.86-44.73-.39-.55,1.81-14.95c12.93,4.44,30.53,4.84,54.11-2.27C1510.2,976.46,1528.58,970.34,1543,949.09Z"/><path class="cls-1" d="M1665,1046.62v4.3a30,30,0,0,1-29,22.25H1382a30,30,0,0,1-29.49-24.52v-9.18s29.2-23.08,73.62-37.7a243.55,243.55,0,0,1,28.56-7.54l31.86,44.73s2.39-1.15,6.16-3.14c13.52-7.15,44.75-25.07,47-39.25.08-.53.16-1.08.24-1.63,2,.46,4,1,6.06,1.51a190.44,190.44,0,0,1,19.3,6.25C1677.22,1045.6,1665,1046.62,1665,1046.62Z"/><g id="collar"><polygon class="cls-7" points="1486.53 1038.96 1453.09 1062.96 1426.11 1001.77 1424.49 998.11 1454.28 993.68 1454.67 994.23 1486.53 1038.96"/><path class="cls-7" d="M1580.74,1009.34l-68.68,55.92-22.38-28.35c13.52-7.15,47.76-26.16,50-40.34.08-.53.16-1.08.24-1.63,0-.23.07-.46.1-.7l6,2.21Z"/></g><polygon class="cls-4" points="1634.62 507.89 1623.13 576.83 1636.91 580.66 1672.91 520.91 1634.62 507.89"/><polygon class="cls-4" points="1574.85 577.73 1588.37 575.05 1585.47 513.16 1555.72 520.62 1574.85 577.73"/><polygon class="cls-4" points="1511.3 579.89 1533.51 566.11 1545.77 598.28 1538.87 605.94 1511.3 579.89"/><path class="cls-4" d="M1579.21,682.53s9.45,20.68,40.09,13l9.44-35.49s-28.59,4.09-38.29-12.25Z"/><path class="cls-4" d="M1573.34,699.13s9.45,20.68,40.09,13l1.78-9.45s-28.59,4.09-38.3-12.25Z"/><circle class="cls-4" cx="1613.94" cy="639.64" r="44.43"/><g id="eyes"><path class="cls-7" d="M1493.25,901.39c1.36-4.94,4.12-8.48,6.17-7.92s2.61,5,1.24,10-4.12,8.48-6.17,7.92S1491.89,906.33,1493.25,901.39Z"/><path class="cls-7" d="M1443.4,889.16c1.11-4,3.37-6.93,5-6.47s2.12,4.11,1,8.14-3.37,6.93-5,6.47S1442.29,893.2,1443.4,889.16Z"/></g></g><g id="_2nd_junior" data-name="2nd junior"><path class="cls-7" d="M1839.21,770.26V892a13.89,13.89,0,0,1-.48,3.67A14.21,14.21,0,0,1,1825,906.19H1704.74a14.21,14.21,0,0,1-14-11.61,13.86,13.86,0,0,1-.24-2.59V770.26a14.21,14.21,0,0,1,14.21-14.2H1825A14.2,14.2,0,0,1,1839.21,770.26Z"/><path class="cls-4" d="M1721,820.74l-3.31-33.39a11.21,11.21,0,0,1,12.65-12.21c15.35,2.07,39.45,5.05,52.25,5.26,13.25.23,14.78,7.08,15.48,23.35.79,18.3-1.36,40.15-14.46,48.62a11,11,0,0,1-10.91.42l-45.62-23.16A11.21,11.21,0,0,1,1721,820.74Z"/><path class="cls-4" d="M1838.73,893.62v2A14.21,14.21,0,0,1,1825,906.19H1704.74a14.21,14.21,0,0,1-14-11.61v-4.34a124,124,0,0,1,34.86-17.85,116.29,116.29,0,0,1,13.52-3.57L1754.23,890s1.14-.55,2.92-1.49c6.4-3.39,21.19-11.87,22.23-18.58,0-.25.07-.52.11-.78,1,.22,1.91.46,2.87.72a88.94,88.94,0,0,1,9.14,3C1844.51,893.14,1838.73,893.62,1838.73,893.62Z"/><g id="collar-2" data-name="collar"><polygon class="cls-7" points="1754.23 890 1738.4 901.36 1725.63 872.39 1724.86 870.65 1738.97 868.56 1739.15 868.82 1754.23 890"/><path class="cls-7" d="M1798.84,876l-32.52,26.48L1755.73,889c6.4-3.39,22.61-12.39,23.65-19.1,0-.25.07-.52.11-.78a2.88,2.88,0,0,0,0-.33l2.82,1Z"/></g><path class="cls-1" d="M1733.24,798.53m-2.11,15.24,0,4.46a.14.14,0,0,1,0,.07c-1.18,4.11-4,8.46-5.48,15.24a38.94,38.94,0,0,0-.83,5.87,22.36,22.36,0,0,0,15.06,22.07c6.12,2.1,14.46,2.29,25.62-1.07,0,0,8.71-2.9,15.52-13a15.32,15.32,0,0,0,1-2c.08-.17.15-.33.21-.49a19.09,19.09,0,0,0,.93-3.18c0-.07,0-.13,0-.2s0-.29.08-.44.07-.44.1-.66.07-.63.1-.94,0-.34,0-.5,0-.1,0-.15l0-.46c0-.13,0-.25,0-.38a28,28,0,0,0-1.84-10.43l-.18-.45c-.07-.15-.12-.3-.18-.45-.11-.3-.22-.59-.31-.88s-.09-.3-.13-.45-.14-.51-.2-.76-.07-.27-.09-.41h0c-.07-.3-.11-.6-.16-.89l0-27.44s-40.89,9.49-49.7.17Z"/><g id="face-3" data-name="face"><path class="cls-5" d="M1736.68,819.87c-.52,1.91-1.59,3.28-2.38,3.06s-1-1.94-.49-3.86,1.6-3.28,2.4-3.06S1737.21,818,1736.68,819.87Z"/><path class="cls-5" d="M1760.92,825.84c-.64,2.33-2,4-2.92,3.74s-1.23-2.38-.58-4.72,1.95-4,2.92-3.75S1761.57,823.5,1760.92,825.84Z"/><path class="cls-5" d="M1760.92,825.84c-.64,2.33-2,4-2.92,3.74s-1.23-2.38-.58-4.72,1.95-4,2.92-3.75S1761.57,823.5,1760.92,825.84Z"/><path class="cls-5" d="M1736.68,819.87c-.52,1.91-1.59,3.28-2.38,3.06s-1-1.94-.49-3.86,1.6-3.28,2.4-3.06S1737.21,818,1736.68,819.87Z"/><path class="cls-5" d="M1744.81,818.8a32.42,32.42,0,0,1-3.51,6.65,31.23,31.23,0,0,1-4.23,4.95c-1.4,1.52-2.14,2.23-2.18,3.39-.05,1.87,1.82,3.21,2.06,3.38,2.42,1.68,5.4.48,5.68.36"/><path class="cls-5" d="M1773.13,820.05c0-5.17-5.33-9.35-11.92-9.35"/><path class="cls-5" d="M1732.84,807.39s7.33-6.52,9.59-.8"/></g><g id="ears-2" data-name="ears"><path class="cls-1" d="M1793.28,832.46c-1.76,5.2-6.07,7.26-10,8,0-.32.07-.63.1-.94s0-.34,0-.5,0-.1,0-.15l0-.46c0-.13,0-.25,0-.38a28,28,0,0,0-1.84-10.43l-.18-.45c-.07-.15-.12-.3-.18-.45-.11-.3-.22-.59-.31-.88s-.09-.3-.13-.45-.14-.51-.2-.76-.07-.27-.09-.41h0l.45-1.59S1796.82,822,1793.28,832.46Z"/><path class="cls-1" d="M1731.07,818.3c-1.18,4.11-4,8.46-5.48,15.24a9.32,9.32,0,0,1-3.15-12.57,13.82,13.82,0,0,1,3.13-4.07,3.61,3.61,0,0,1,2.92-1,4.09,4.09,0,0,1,2.56,2.36Z"/></g><path class="cls-1" d="M1781,847.45s-.1,6.1-.56,12.72c-.21,3-.49,6-.85,8.65a2.88,2.88,0,0,1,0,.33c0,.26-.07.53-.11.78-1,6.71-15.83,15.19-22.23,18.58-1.78.94-2.92,1.49-2.92,1.49l-15.08-21.18-.18-.26.85-7.08c6.12,2.1,14.46,2.29,25.62-1.07C1765.44,860.41,1774.14,857.51,1781,847.45Z"/><g id="eyes-2" data-name="eyes"><path class="cls-7" d="M1757.42,824.86c.64-2.33,1.95-4,2.92-3.75s1.23,2.39.58,4.73-2,4-2.92,3.74S1756.77,827.2,1757.42,824.86Z"/><path class="cls-7" d="M1733.81,819.07c.53-1.9,1.6-3.28,2.4-3.06s1,2,.47,3.86-1.59,3.28-2.38,3.06S1733.29,821,1733.81,819.07Z"/></g><path class="cls-1" d="M1738.45,844.23a25.8,25.8,0,0,0,15.83-.85s-4,8.26-10,7.07S1738.45,844.23,1738.45,844.23Z"/></g><g id="_3rd_junior" data-name="3rd junior"><path class="cls-1" d="M1839.21,934.69v121.72a13.89,13.89,0,0,1-.48,3.67,14.21,14.21,0,0,1-13.72,10.54H1704.74a14.22,14.22,0,0,1-14-11.61,13.89,13.89,0,0,1-.24-2.6V934.69a14.21,14.21,0,0,1,14.21-14.2H1825A14.2,14.2,0,0,1,1839.21,934.69Z"/><circle class="cls-7" cx="1762.87" cy="977.26" r="46.13"/><path class="cls-4" d="M1838.73,1058.05v2a14.21,14.21,0,0,1-13.72,10.54H1704.74a14.22,14.22,0,0,1-14-11.61v-4.35a124.29,124.29,0,0,1,34.86-17.85,116.29,116.29,0,0,1,13.52-3.57l15.08,21.18s1.14-.54,2.92-1.49c6.4-3.38,21.19-11.86,22.23-18.58,0-.25.07-.51.11-.77,1,.22,1.91.46,2.87.71a94.11,94.11,0,0,1,9.14,3C1844.51,1057.56,1838.73,1058.05,1838.73,1058.05Z"/><g id="collar-3" data-name="collar"><polygon class="cls-7" points="1754.23 1054.42 1738.4 1065.78 1725.63 1036.81 1724.86 1035.08 1738.97 1032.98 1739.15 1033.24 1754.23 1054.42"/><path class="cls-7" d="M1798.84,1040.4l-32.52,26.47-10.59-13.42c6.4-3.38,22.61-12.38,23.65-19.1,0-.25.07-.51.11-.77,0-.11,0-.22,0-.33l2.82,1Z"/></g><path class="cls-1" d="M1733.24,963m-2.11,15.24,0,4.47h0c-1.17,4.12-4,8.48-5.5,15.29a39.12,39.12,0,0,0-.83,5.87,22.36,22.36,0,0,0,15.06,22.08c6.12,2.1,14.46,2.29,25.62-1.08,0,0,8.71-2.9,15.52-13a16,16,0,0,0,1-2,5.32,5.32,0,0,0,.21-.5,19,19,0,0,0,.93-3.17c0-.07,0-.14,0-.2s0-.3.08-.44.07-.44.1-.67.07-.63.1-.94,0-.33,0-.5,0-.09,0-.14l0-.47c0-.12,0-.25,0-.37a27.94,27.94,0,0,0-1.84-10.43l-.18-.45c-.07-.16-.12-.3-.18-.45s-.22-.6-.31-.89-.09-.3-.13-.44-.14-.51-.2-.76-.07-.28-.09-.41h0c-.07-.3-.11-.59-.16-.88v-8.31a16.1,16.1,0,0,0-18.2-15.94c-12.11,1.54-26.66,2.1-31.51-3Z"/><g id="face-4" data-name="face"><path class="cls-5" d="M1744.81,983.12a31.66,31.66,0,0,1-3.51,6.59,31,31,0,0,1-4.23,4.9c-1.4,1.51-2.14,2.21-2.18,3.35-.05,1.86,1.82,3.19,2.06,3.36,2.42,1.66,5.4.47,5.68.35"/><path class="cls-5" d="M1770.83,985.29c0-5.12-5.33-9.26-11.92-9.26"/><path class="cls-5" d="M1732.84,976.38s7.33-6.46,9.59-.79"/><path class="cls-1" d="M1757.3,1008.2c-10.46,17.35-18.56,1.64-18.56,1.64Z"/><ellipse class="cls-7" cx="1736.18" cy="984.72" rx="2.75" ry="2.73"/><ellipse class="cls-7" cx="1759.46" cy="987.94" rx="2.75" ry="2.73"/></g><g id="ears-3" data-name="ears"><path class="cls-1" d="M1793.28,996.88c-1.76,5.21-6.07,7.27-10,8,0-.31.07-.63.1-.94s0-.33,0-.5,0-.09,0-.14l0-.47c0-.12,0-.25,0-.37a27.94,27.94,0,0,0-1.84-10.43l-.18-.45c-.07-.16-.12-.3-.18-.45s-.22-.6-.31-.89-.09-.3-.13-.44-.14-.51-.2-.76-.07-.28-.09-.41h0l.45-1.59S1796.82,986.41,1793.28,996.88Z"/><path class="cls-1" d="M1731.07,982.73c-1.18,4.1-4,8.45-5.48,15.23a9.31,9.31,0,0,1-3.15-12.56,13.69,13.69,0,0,1,3.13-4.07,3.59,3.59,0,0,1,2.92-1,4.11,4.11,0,0,1,2.56,2.37Z"/></g><path class="cls-1" d="M1781,1011.87s-.1,6.11-.56,12.72c-.21,3-.49,6-.85,8.66,0,.11,0,.22,0,.33,0,.26-.07.52-.11.77-1,6.72-15.83,15.2-22.23,18.58-1.78,1-2.92,1.49-2.92,1.49l-15.08-21.18-.18-.26.85-7.07c6.12,2.1,14.46,2.29,25.62-1.08C1765.44,1024.83,1774.14,1021.93,1781,1011.87Z"/></g><g id="trading"><rect class="cls-3" x="467.55" y="821.43" width="359.49" height="240.26" rx="30"/><rect class="cls-1" x="738.3" y="782.72" width="118.98" height="118.98" rx="15"/><rect class="cls-4" x="508.4" y="911.55" width="160" height="15.06"/><rect class="cls-4" x="508.4" y="943.72" width="250.38" height="15.06"/><rect class="cls-4" x="508.4" y="975.89" width="210.21" height="15.06"/><rect class="cls-4" x="508.4" y="1007.89" width="158.81" height="15.06"/><rect class="cls-4" x="790.53" y="616.66" width="157.79" height="24.51"/><g class="cls-9"><path class="cls-10" d="M822.29,824.09a28.76,28.76,0,0,1-24.06,28.37v14.77H786.91V841.66h11.26a18.18,18.18,0,1,0-22-23l-9.1-5.87a28.76,28.76,0,0,1,55.21,11.31Z"/><path class="cls-10" d="M798.38,879.92a5.87,5.87,0,1,1-6.12-5.85,1.14,1.14,0,0,1,.26,0,5.88,5.88,0,0,1,5.86,5.87Z"/></g><path class="cls-4" d="M552.36,810l-39.75.4a3.52,3.52,0,0,0-3.48,3.52v63.93l23.32-23.07,23.47,22.07V813.52A3.52,3.52,0,0,0,552.36,810Z"/><g id="hand"><path class="cls-1" d="M790.34,1015.29V995.67c0-2.56,3.45-4.63,7.7-4.63h0c4.25,0,7.7,2.07,7.7,4.63v19.62"/><path class="cls-1" d="M805.74,1015.29V996.45c0-2.56,3.45-4.63,7.7-4.63h0c4.26,0,7.7,2.07,7.7,4.63v18.84"/><path class="cls-1" d="M774.94,1015.29v-20c0-2.56,3.45-4.64,7.7-4.64h0c4.25,0,7.7,2.08,7.7,4.64v20"/><path class="cls-1" d="M759.54,1022.5V961.38a7.7,7.7,0,0,1,7.7-7.7h0a7.7,7.7,0,0,1,7.7,7.7v53.91"/><path class="cls-1" d="M760.22,1042.19l-.07-27.48a7.7,7.7,0,0,0-7.74-7.67h0a7.71,7.71,0,0,0-7.67,7.73l0,32.76v30.56h77l-.65-64.75"/><polygon class="cls-11" points="774.29 1014.96 817.98 1015.6 760.82 1051.72 760.88 1021.66 774.29 1014.96"/></g></g></svg>