<svg xmlns="http://www.w3.org/2000/svg" xmlns:xlink="http://www.w3.org/1999/xlink" viewBox="0 0 1000 1000"><defs><style>.cls-1,.cls-14,.cls-17,.cls-23,.cls-24,.cls-30,.cls-37,.cls-4{fill:none;}.cls-2{fill:#755943;}.cls-3{clip-path:url(#clip-path);}.cls-4{stroke:#443118;}.cls-14,.cls-17,.cls-23,.cls-24,.cls-30,.cls-37,.cls-4{stroke-miterlimit:10;}.cls-5{fill:#443118;}.cls-6{fill:#ffc46e;}.cls-7{fill:#ef943a;}.cls-8{fill:#6d4b33;}.cls-9{fill:#fff;}.cls-10{fill:#a8998f;}.cls-11{fill:#d8cabf;}.cls-12{fill:#fff4e6;}.cls-13{fill:#ffdb8a;}.cls-13,.cls-14,.cls-27,.cls-35,.cls-38{isolation:isolate;}.cls-14{stroke:#ffbc00;}.cls-15{fill:#ffb171;}.cls-16{fill:#a3653b;}.cls-17{stroke:#85edaf;}.cls-17,.cls-23{stroke-width:2px;}.cls-18{fill:url(#linear-gradient);}.cls-19{fill:#599672;}.cls-20{fill:#f9d9b2;}.cls-21{fill:#eabc8b;}.cls-22{fill:#ffe2c2;}.cls-23{stroke:#ffe2c2;stroke-linecap:round;}.cls-24{stroke:#fff;}.cls-25{fill:#3f220e;}.cls-26{fill:#603617;}.cls-27{fill:#fce575;}.cls-28{fill:#8c4f22;}.cls-29{fill:#dd915e;}.cls-30{stroke:#b76b37;}.cls-31{fill:#ef9f6a;}.cls-32{fill:#3777e3;}.cls-33{fill:#ffcf63;}.cls-34{fill:#11a861;}.cls-35{fill:#ffbc00;}.cls-36{fill:#0072c6;}.cls-37{stroke:#0072c6;}.cls-39{fill:#ffecd2;}.cls-40{fill:#00aeef;}</style><clipPath id="clip-path"><rect class="cls-1" x="0.83" width="998.47" height="1000"/></clipPath><linearGradient id="linear-gradient" x1="58.32" y1="293.09" x2="58.32" y2="598.86" gradientUnits="userSpaceOnUse"><stop offset="0" stop-color="#85edaf"/><stop offset="1" stop-color="#599672"/></linearGradient></defs><g id="Policysaurus"><g id="bg"><rect class="cls-2" width="1000" height="1000"/></g></g><g id="bg_copy" data-name="bg copy"><g class="cls-3"><polygon class="cls-4" points="659.54 -1.3 625.38 268.83 917.02 210.62 947.1 -1.3 659.54 -1.3"/><polygon class="cls-4" points="654.44 47.72 944.04 19.64 941.49 35.47 651.38 64.06 654.44 47.72"/><polygon class="cls-4" points="645.27 122.28 935.12 81.43 933.85 97.25 642.21 140.66 645.27 122.28"/><polygon class="cls-4" points="636.09 191.21 927.22 139.64 925.18 158.02 633.54 208.06 636.09 191.21"/><polygon class="cls-4" points="731.43 0.23 699.31 254.02 716.14 249.94 748.26 -1.81 731.43 0.23"/><line class="cls-4" x1="773.75" y1="-2.83" x2="741.63" y2="248.4"/><line class="cls-4" x1="905.29" y1="-0.28" x2="868.58" y2="219.81"/><polygon class="cls-4" points="861.96 -0.79 824.74 230.02 841.82 226.19 878.27 -0.79 861.96 -0.79"/><polygon class="cls-5" points="626.91 260.75 918.55 200.4 917.19 213.34 625.13 272.06 626.91 260.75"/><polygon class="cls-6" points="-0.21 492.49 1000.13 250.45 1003.19 671.72 -24.68 949 -0.21 492.49"/><polygon class="cls-7" points="0.47 981.17 1000.64 713.09 1003.19 671.72 0.81 942.02 0.47 981.17"/><path class="cls-8" d="M651.21,437s-8.15-96.68-72.05-94.64"/><polygon class="cls-9" points="346.32 430.53 341.56 476.66 394.59 465.08 399.35 418.28 346.32 430.53"/><polygon class="cls-10" points="327.54 435.13 322.87 480.75 341.56 476.66 346.32 430.53 327.54 435.13"/><path class="cls-11" d="M189.52,182.31,550,109.13a8,8,0,0,1,9.57,8.1L550.6,396.87a8,8,0,0,1-6.31,7.57L191,480.39a8,8,0,0,1-9.66-7.87l1.77-282.42A8,8,0,0,1,189.52,182.31Z"/><path class="cls-10" d="M183.33,186.84,171,201.26a8.07,8.07,0,0,0-1.53,4.59l-4.51,262.2a8,8,0,0,0,3.89,7l12.46,7.44Z"/><polygon class="cls-12" points="207.27 209.54 203.29 438.36 529.92 367.38 538.71 139.64 207.27 209.54"/><polygon class="cls-13" points="225.03 218.99 223.96 274.96 472.76 223.55 476.16 165.34 225.03 218.99"/><ellipse class="cls-9" cx="372.52" cy="420.44" rx="9.74" ry="7.25" transform="translate(-82.6 749.7) rotate(-84.34)"/><polygon class="cls-14" points="225.03 218.99 223.96 274.96 521.37 214.02 523.75 156.15 225.03 218.99"/><path class="cls-7" d="M-1.67,743.38S27,757.44,75.52,735.76a17.24,17.24,0,0,0,10.06-11.6l25-107.59S8.73,638.19-3.21,630-4.36,742-4.36,742"/><path class="cls-15" d="M-2.34,610.6v29.32s79.91,6.6,120-21.45c0,0,7.36-20.35,0-32Z"/><ellipse class="cls-16" cx="44.37" cy="593.39" rx="73.58" ry="17.7" transform="translate(-52 6.2) rotate(-5.04)"/><path class="cls-17" d="M58.42,332.66s17.34,34.72,5.61,76.6S48.74,446,54.85,482.79s3.06,97.53-8.15,111.83"/><path class="cls-18" d="M35.37,581.76c1.08,1.24,5.31,3.89,8.24,9,2.76,4.85,1.57,7.56,2.9,8,4.51,1.47,29.76-24.28,28.05-53.33-.66-11.09-4.83-15.77-2.7-28.39,2-11.79,6.6-13.33,10.36-24.59,7.07-21.23-5.8-26.21-.5-48.39,4-16.93,12.69-18.79,12.87-34.63.06-5.84-1.12-5-5.88-24.06-6.24-24.88-5.53-31.48-12.43-42.67-5.63-9.13-9.18-7.67-12.4-14.81-7.6-16.87,4.48-34,2.41-34.81-1.83-.7-13.08,12.14-19,31-6.85,22-4.06,44.89-3.88,46.29,1.47,11.26,3.83,15.47,1.21,23.14-3.76,11-11.83,11.67-17.92,21.26-9,14.23-3.23,31.64,2.49,48.78,6.62,19.81,12.4,20,15.76,37.75,3.48,18.45-.56,29.79-2.11,33.64a56.59,56.59,0,0,1-10.44,16.53S19.81,563.86,35.37,581.76Z"/><path class="cls-19" d="M58.37,592s17.27,6.28,22.88-11.75,55.47-6.47,59.25-24-7.85-40.86,2.33-44.92c0,0-10.89-2.39-22.07,23.71,0,0-5.1,8.82-17.14,5.08,0,0-24.88-.54-36.92,34.73a18.58,18.58,0,0,0-.71,2.63C65.71,579,64.39,583.12,58.37,592Z"/><path class="cls-19" d="M-64.45,447.47a127,127,0,0,0,24.69,13.25C-29.2,465-27,464.25-23.44,467.65c9.51,9.18,1.47,22.33,11.08,29.93,5.12,4,8.18.94,13,5.09,7.86,6.74,1.88,16.73,8.71,28.79,4,7.12,8.94,8.58,13.63,13.07,7.64,7.3,14.1,22,6.34,54.94,0,0-4.46-9.71-19.89-10.65,0,0-12.17.73-11.73-21.7S-40.2,538.6-38.21,522.56s-1.59-44-12.24-51.88S-64.45,447.47-64.45,447.47Z"/><path class="cls-17" d="M26.81,592.57S3,525.17-28.59,496.91"/><path class="cls-17" d="M65.22,586.45S83.58,575.89,88,559.21s37.73,4.09,42.49-10.21"/><path class="cls-20" d="M210.44,513.43l39.91,169.73a8,8,0,0,0,9.53,6l304.39-68.55a8,8,0,0,0,6.09-9.34L537.46,442.3a8,8,0,0,0-9.53-6.29L216.52,503.78A8,8,0,0,0,210.44,513.43Z"/><polygon class="cls-12" points="226.16 518.02 262.47 659.6 551.62 591.55 523.75 453 226.16 518.02"/><path class="cls-20" d="M356.45,785l297.42-75.71a8,8,0,0,0,3.6-13.48L575.1,615.54a8,8,0,0,0-7.32-2.07L263.61,682.11a8,8,0,0,0-3.83,13.52L348.89,783A8,8,0,0,0,356.45,785Z"/><polygon class="cls-21" points="285.82 690.28 556.04 629 613.49 687.21 352.1 751.55 285.82 690.28"/><path class="cls-12" d="M860.93,746.79c-45.12,137.87-52,255.83-52,255.83H558.09l18.35-372.26s35.17,1.53,46.65-25.27c0,0-.73-8.07,17.57-12.53,8.14-2,20.06-3.26,37.49-2.79l1.65,0a91.78,91.78,0,0,0,33.82-5.49A90.54,90.54,0,0,0,726,578.55c4-1.24,8-2.53,11.66-3.88,11.48-4.17,21.1-8.89,26.7-14.1l-4.95-1.38a20.73,20.73,0,0,1,11.24.7c25.24,8.43,15.3,32.17,33.65,35.24S906.06,608.91,860.93,746.79Z"/><path class="cls-5" d="M764.4,560.57c-5.6,5.21-15.22,9.93-26.7,14.1-3.71,1.35-7.63,2.64-11.66,3.88a90.54,90.54,0,0,1-12.42,5.76,91.78,91.78,0,0,1-33.82,5.49l-1.65,0c-17.43-.47-29.35.8-37.49,2.79l-1.34-7.13q8.26-4.32,16-8c37.1-17.65,64-24,80.46-26.23,13-1.73,19.48-.88,19.48-.88l3.07,8.51,1.16.32Z"/><line class="cls-12" x1="521.8" y1="850.56" x2="520.35" y2="881.6"/><line class="cls-22" x1="560.12" y1="968.91" x2="561.65" y2="943.89"/><path class="cls-22" d="M560.82,944.28s42.64-50.94,37.54-125c-1.63-23.62.2-42.12,3.92-56,5.56-20.73,35.93-17.27,36.77,4.18,2.58,66.5-3.24,226.93-82,236.3l3.7-57.3"/><path class="cls-23" d="M664.13,622.19s73.42,6.64,133.07-30.64"/><path class="cls-5" d="M889,732c68.49-38,88.71,14.55,84.12,28.08s-50,244.09-50,244.09l-287.56,8.17,29.57-213.45s2.3-70.21,88.46-41.61S889,732,889,732Z"/><path class="cls-24" d="M693.45,797.34s139.95,88.85,257.73-33.7"/><path class="cls-25" d="M674.67,242.41l-22.78,88.17,19.38,2.76,18.35-78.88,26.86-8.26s10.53-8.61,1-15.16Z"/><path class="cls-26" d="M764.1,236.63a66.52,66.52,0,0,0-9.07.64,67.72,67.72,0,0,0-37.54,18.11l-7-32.13s24.52-21.28,44.1-16.09Z"/><path class="cls-26" d="M831.42,293.56c-5.18-7.22-31.87-7.59-66,1.55-36.44,9.77-63.37,33-61,41.72A68.09,68.09,0,0,1,755,237.27a66.52,66.52,0,0,1,9.07-.64A68,68,0,0,1,831.42,293.56Z"/><path class="cls-27" d="M772.53,329.16c-30.08,9.47-56.48,11.66-60.86,5.3a3.22,3.22,0,0,1-.49-1c-2.36-7.52,21.26-21.68,52.78-31.6s58.8-11.86,61.32-4.42a.13.13,0,0,1,0,.08C827.68,305.08,804.05,319.22,772.53,329.16Z"/><path class="cls-28" d="M832.17,295.14a4.88,4.88,0,0,0-.75-1.58c-5.18-7.22-31.87-7.59-66,1.55-36.44,9.77-63.37,33-61,41.72s32.61,5,69.05-4.78S834.5,303.85,832.17,295.14Zm-59.64,34c-30.08,9.47-56.47,11.67-60.86,5.3a3.41,3.41,0,0,1-.49-1C708.82,326,732.45,311.8,764,301.88s58.8-11.86,61.32-4.42l0,.08C827.68,305.08,804.05,319.23,772.53,329.16Z"/><path class="cls-25" d="M710.54,223.25l6.88,31.8S707,265.24,705.5,270.6c0,0,5.38-3.24,12.85-7,4.1-2.08,11.27-9.51,10.3-14l-12.28-31.33S712.14,220.69,710.54,223.25Z"/><path class="cls-29" d="M364.76,702.45l-11.69-6.15a2.48,2.48,0,0,0-3.05.57c-.76.88-1.79,2.1-2.93,3.53-2.38,3,0,4.77,0,4.77Z"/><path class="cls-29" d="M332.22,719.64c-.34,0-8.67,3.4-6.46-3s8.15-18.13,13.51-14.72,14.87,8.68,14.87,8.68Z"/><path class="cls-12" d="M627.15,681.43a50.48,50.48,0,1,0-100.95,0l-4.4,169.13-.11,4.41L518.54,852l-98.22-91.79a27.08,27.08,0,0,0-10.54-2.36c-6.51-.27-15.48,1.3-25.34,8.68A67,67,0,0,0,374,776.41L497,922.75h0l11.3,13.44h0l.18.15A50.39,50.39,0,0,0,576,933.57c6.62-5.29,20.32-23.44,30.74-85.16C621,763.9,627.15,686.54,627.15,686.54h-.25C627.06,684.85,627.15,683.15,627.15,681.43Z"/><path class="cls-29" d="M409.54,757.36c-6.51-.27-15.48,1.3-25.34,8.68a4.32,4.32,0,0,1-3.41-1.31l-4.22-4.36a4.27,4.27,0,0,0-2.95-1.32c-10.87-.31-18.95-8.38-23.56-17.37a71.74,71.74,0,0,0-6.93-11,4.31,4.31,0,0,0-6.22-.65l-5.75,4.86a4.34,4.34,0,0,1-4.44.71,4.35,4.35,0,0,1-2.19-6.06l9.16-17.25a4.42,4.42,0,0,1,1.59-1.68L365,692.7a4.38,4.38,0,0,1,4.41-.05l10.72,6.17a4.22,4.22,0,0,1,1.4,1.29c5.82,8.49,22.8,40,29.13,51.85A4.33,4.33,0,0,1,409.54,757.36Z"/><path class="cls-22" d="M519.84,881.43s-30.59-40.77-46.39-59.15,1.65-11,1.65-11L521.69,855Z"/><path class="cls-23" d="M569.43,630.74s49.83,11.11,47.54,81.58"/><path class="cls-29" d="M735.74,551.24c-16.48,2.2-43.36,8.58-80.46,26.23l-2.48-29.81L617.06,552a20.65,20.65,0,0,1-23-18l-5.19-42.89-18.24,2.77s1-59.75,8.4-84l-1.63-13.5c1.24,3.07,2.42,5.87,3.53,8.43,1.39,3.17,2.68,6,3.86,8.44,6.83,14.16,10.48,17.47,10.48,17.47C633,456.23,625.38,471,625.38,471l14-.76s-.34-15.27,4.91-23a3.6,3.6,0,0,0,2.74.5c.57-.08,1.18-.18,1.8-.3q-.63.33-1.29.72s-3.15,7.32,4.33,10c7.23,2.63,5.25,12.33,5.11,13,.06-.13.24-.56.49-1.21-2.93,11.6-6.21,20.75,1,19.38,2-.37,3.92-2.11,5.72-4.72-.51,1.84-.88,2.93-.88,2.93s19.24,2.16,33,31.41c1.19,2.51,2.34,5.23,3.43,8.16l33.74-2.16,1.06,12.67Z"/><path id="hair" class="cls-8" d="M762,438.36c-3.76,10.14-7.1,19.77-10,28.67-9.57,29.66-14,51.35-12.46,57.63l-6,.39-33.74,2.16c-1.09-2.93-2.24-5.65-3.43-8.16-13.79-29.25-33-31.41-33-31.41s.37-1.09.88-2.93c6.89-10,11.56-32.74,5.5-41.24-7.12-10-14-9.79-23.82-3.72a5.64,5.64,0,0,0-2.68,5.46,3,3,0,0,0,1.07,2.1c-5.25,7.7-4.91,23-4.91,23l-14,.76S633,456.23,595.3,430.7c0,0-3.65-3.31-10.48-17.47-1.18-2.47-2.47-5.27-3.86-8.44-1.11-2.56-2.29-5.36-3.53-8.43q-1.7-4.19-3.54-9.06c-16.49-43.58,14.78-70.47,103.49-53.11S778.34,394.45,762,438.36Z"/><path class="cls-30" d="M570,370.62s70.95-10.9,62.37,99.91"/><path class="cls-31" d="M664.24,484.71c-1.8,2.61-3.76,4.35-5.72,4.72-7.24,1.37-4-7.78-1-19.38,0,0,0,0,0,0a102.75,102.75,0,0,0,2.3-11c2.08-14.5-5.2-12.6-10.94-11.53h0c-.62.12-1.23.22-1.8.3a3.6,3.6,0,0,1-2.74-.5,3,3,0,0,1-1.07-2.1,5.64,5.64,0,0,1,2.68-5.46c9.79-6.07,16.7-6.28,23.82,3.72C675.8,452,671.13,474.74,664.24,484.71Z"/><path class="cls-16" d="M659.8,459a102.75,102.75,0,0,1-2.3,11s0,0,0,0c-.25.65-.43,1.08-.49,1.21.14-.65,2.12-10.35-5.11-13-7.48-2.73-4.33-10-4.33-10q.66-.39,1.29-.72h0C654.6,446.44,661.88,444.54,659.8,459Z"/><path class="cls-16" d="M541.21,622.36a17,17,0,0,0-1.06,6.09c-.13,4.08.34,17.57.34,17.57l10.62-8.68s-1.4-9.87,2-12.43a60.15,60.15,0,0,0,7.31-6.89Z"/><path class="cls-16" d="M687.41,533.17s17-15.39,46.15-8.12l2.18,26.19L679.6,566.87S677.05,546.79,687.41,533.17Z"/><path class="cls-30" d="M708.49,523.64s1.7-35-35.18-66.64"/><path class="cls-30" d="M665.15,437.85s-8.92-104.59-85.4-95.15"/><path class="cls-30" d="M623.6,328.83s106.81,32.94,100.18,97.28-3,96.51-3,96.51"/><path class="cls-30" d="M708,342.36s76.22,28.09,25.58,182.69"/><path class="cls-29" d="M603,625.26c-24.81-9.54-18.7-22.13-28.21-25.88s-54.39,22.47-54.39,22.47c-2.29,1.24-1.7,5.45,2,5.11,0,0,37-8.85,37-8.47s10.07,12.25,10.07,12.25,10.58,1.79,25.23-2.55S603,625.26,603,625.26Z"/><path class="cls-32" d="M437.2,286.79l7.56-14.19,32.1-1.07-7.56,14.19Z"/><path class="cls-33" d="M460.81,272.06l16.05-.53-17-27.32-16.05.54Z"/><path class="cls-34" d="M428.71,273.13l8.49,13.66,15.12-28.39-8.48-13.65Z"/><path class="cls-35" d="M420.75,542.09a23.32,23.32,0,0,0-43.9,3.57A18.69,18.69,0,0,0,387,581.59l39.52-8.92A15.64,15.64,0,0,0,438.28,554,15.38,15.38,0,0,0,420.75,542.09ZM405.31,555l2.6,11.57-9.73,2.2-2.61-11.57-10.32,2.33L397,540.88l18.62,11.8Z"/><path class="cls-35" d="M376.84,210.08a16,16,0,0,0-30.15,1.26,12.81,12.81,0,0,0,6,24.87l27.29-5a10.71,10.71,0,0,0,8.55-12.49A10.53,10.53,0,0,0,376.84,210.08Zm-10.92,8.43,1.47,8-6.72,1.25-1.47-8-7.13,1.32,8.55-12.46,12.43,8.58Zm-6.72,1.24-7.13,1.32,8.55-12.46,12.43,8.58-7.13,1.32,1.47,8-6.72,1.25Zm0,0-7.13,1.32,8.55-12.46,12.43,8.58-7.13,1.32,1.47,8-6.72,1.25Zm0,0-7.13,1.32,8.55-12.46,12.43,8.58-7.13,1.32,1.47,8-6.72,1.25Z"/><polygon class="cls-9" points="365.69 217.28 372.83 215.97 364.27 228.42 351.84 219.84 358.97 218.53 357.5 210.54 364.22 209.3 365.69 217.28"/><polygon class="cls-36" points="256.96 279.71 258.11 314.4 284.45 321.7 282.75 270.77 256.96 279.71"/><rect class="cls-37" x="283.55" y="277.42" width="24.32" height="34.19" transform="translate(-9.64 10.01) rotate(-1.91)"/><line class="cls-37" x1="286.71" y1="285.53" x2="303.3" y2="284.98"/><line class="cls-37" x1="286.84" y1="289.4" x2="303.43" y2="288.85"/><line class="cls-37" x1="286.96" y1="293.23" x2="303.56" y2="292.68"/><line class="cls-37" x1="287.11" y1="297.08" x2="303.7" y2="296.53"/><line class="cls-37" x1="287.23" y1="301.21" x2="303.82" y2="300.66"/><g class="cls-38"><polygon class="cls-39" points="262.94 288 263.91 287.87 266.06 288.47 265.1 288.6 262.94 288"/><polygon class="cls-39" points="265.1 288.6 266.06 288.47 268.77 300.46 267.8 300.59 265.1 288.6"/><polygon class="cls-39" points="269.75 295.12 270.72 294.99 270.22 305.45 269.26 305.58 269.75 295.12"/><polygon class="cls-39" points="268.25 289.46 269.21 289.32 271.04 289.82 270.08 289.96 268.25 289.46"/><polygon class="cls-39" points="270.08 289.96 271.04 289.82 274.05 301.92 273.09 302.06 270.08 289.96"/><polygon class="cls-39" points="275.36 291.4 276.33 291.27 275.81 306.98 274.85 307.11 275.36 291.4"/><polygon class="cls-39" points="273.21 290.81 274.18 290.68 276.33 291.27 275.36 291.4 273.21 290.81"/><polygon class="cls-39" points="273.21 290.81 275.36 291.4 274.85 307.11 272.68 306.52 269.75 295.12 269.26 305.58 267.08 304.99 262.94 288 265.1 288.6 267.8 300.59 268.25 289.46 270.08 289.96 273.09 302.06 273.21 290.81"/></g><path class="cls-36" d="M340,260.21l27.79-5.94q.81,24,1.6,48-14.06-2-28.13-4.06Z"/><path class="cls-9" d="M349.65,270.73a6.5,6.5,0,0,0-1.12,5,6,6,0,0,0,2.27,3.76c1.06.85,2.41,1.34,3.37,2.35a2.28,2.28,0,0,1,.27,2.91,2.39,2.39,0,0,1-2.28.66,5.68,5.68,0,0,1-3.39-1.89l.15,4.15a7.37,7.37,0,0,0,4.57,1.16,5.46,5.46,0,0,0,3.15-1.07,5.24,5.24,0,0,0,1.85-3.66,6.3,6.3,0,0,0-1.2-4.64,11.36,11.36,0,0,0-3.32-2.52,5.33,5.33,0,0,1-1.76-1.4,2.33,2.33,0,0,1,.16-2.81,2.89,2.89,0,0,1,2.37-.64,5.33,5.33,0,0,1,2.76,1.08l-.14-4.11a9,9,0,0,0-4.12-.35,5.67,5.67,0,0,0-3.59,2Z"/><path class="cls-36" d="M370.75,262.22a4.58,4.58,0,0,1,7.82,1.82,5,5,0,0,1,.16,2.14,12.55,12.55,0,0,1,7.08,6.84,4.53,4.53,0,0,1,3.91,1,4.9,4.9,0,0,1,1.26,5.79,4.62,4.62,0,0,1-4.87,2.61,12.47,12.47,0,0,1-6.58,7.28,5,5,0,0,1-1.18,4.37,4.51,4.51,0,0,1-6.53.09l-.21-6.6a4.6,4.6,0,0,1,3.44-1.57,4.72,4.72,0,0,1,3.28,1.42,10.12,10.12,0,0,0,5.49-6.08,5.1,5.1,0,0,1-1.55-2.93,5,5,0,0,1,1.31-4.09,10.1,10.1,0,0,0-5.91-5.74,4.57,4.57,0,0,1-2.91,1.65,4.65,4.65,0,0,1-3.79-1.3Z"/><path class="cls-40" d="M385.38,376.59,353,377.67a8,8,0,0,1-8.3-7.78l-1.08-32.47a8,8,0,0,1,7.77-8.32L383.77,328a8.05,8.05,0,0,1,8.31,7.78l1.08,32.47a8.06,8.06,0,0,1-7.78,8.32"/><path class="cls-9" d="M368.81,349a6.61,6.61,0,0,0-5.71,3.71,6.59,6.59,0,0,0-9.85-1.87l-.19-5.56a1.32,1.32,0,0,0-2.63.09l.36,10.95h0a6.6,6.6,0,0,0,12.52,2.58,6.6,6.6,0,1,0,5.5-9.9m-11.3,11a4,4,0,1,1,3.82-4.1,4,4,0,0,1-3.82,4.1m11.65-.39a4,4,0,1,1,3.83-4.1,4,4,0,0,1-3.83,4.1"/><path class="cls-9" d="M386,359.43l-3.73-4.28,3.44-4.53a1.25,1.25,0,0,0-.36-1.82,1.51,1.51,0,0,0-2,.31h0l-3,3.89-3.22-3.69h0a1.5,1.5,0,0,0-2-.17A1.24,1.24,0,0,0,375,351h0l3.72,4.3-3.43,4.52h0a1.25,1.25,0,0,0,.36,1.82,1.52,1.52,0,0,0,2-.31l3-3.89,3.21,3.68a1.52,1.52,0,0,0,2,.18,1.25,1.25,0,0,0,.24-1.84"/></g></g></svg>