<?xml version="1.0" encoding="UTF-8" standalone="no"?>
<svg
   id="Layer_1"
   viewBox="0 0 483.73001 105.25"
   version="1.1"
   sodipodi:docname="DealPrepLogoFooter.svg"
   width="483.73001"
   height="105.25"
   inkscape:version="1.3.2 (091e20e, 2023-11-25)"
   xmlns:inkscape="http://www.inkscape.org/namespaces/inkscape"
   xmlns:sodipodi="http://sodipodi.sourceforge.net/DTD/sodipodi-0.dtd"
   xmlns:xlink="http://www.w3.org/1999/xlink"
   xmlns="http://www.w3.org/2000/svg"
   xmlns:svg="http://www.w3.org/2000/svg">
  <sodipodi:namedview
     id="namedview17"
     pagecolor="#ffffff"
     bordercolor="#000000"
     borderopacity="0.25"
     inkscape:showpageshadow="2"
     inkscape:pageopacity="0.0"
     inkscape:pagecheckerboard="0"
     inkscape:deskcolor="#d1d1d1"
     inkscape:zoom="1.1615317"
     inkscape:cx="242.78287"
     inkscape:cy="53.377794"
     inkscape:window-width="1312"
     inkscape:window-height="745"
     inkscape:window-x="948"
     inkscape:window-y="669"
     inkscape:window-maximized="0"
     inkscape:current-layer="Layer_1" />
  <defs
     id="defs2">
    <style
       id="style1">.cls-1{fill:url(#linear-gradient);}.cls-1,.cls-2,.cls-3,.cls-4,.cls-5,.cls-6,.cls-7,.cls-8,.cls-9{stroke-width:0px;}.cls-2{fill:url(#linear-gradient-4);}.cls-3{fill:url(#linear-gradient-2);}.cls-4{fill:url(#linear-gradient-3);}.cls-5{fill:url(#linear-gradient-8);}.cls-6{fill:url(#linear-gradient-7);}.cls-7{fill:url(#linear-gradient-5);}.cls-8{fill:url(#linear-gradient-6);}.cls-9{fill:#0491b7;}</style>
    <linearGradient
       id="linear-gradient"
       x1="90.75"
       y1="100.95"
       x2="122.2"
       y2="100.95"
       gradientUnits="userSpaceOnUse">
      <stop
         offset="0"
         stop-color="#5b45a0"
         id="stop1" />
      <stop
         offset="1"
         stop-color="#0491b7"
         id="stop2" />
    </linearGradient>
    <linearGradient
       id="linear-gradient-2"
       x1="90.75"
       y1="100.95"
       x2="122.19"
       y2="100.95"
       xlink:href="#linear-gradient"
       gradientTransform="translate(-47.52,-48.29)" />
    <linearGradient
       id="linear-gradient-3"
       x1="78.080002"
       y1="100.89"
       x2="109.52"
       y2="100.89"
       xlink:href="#linear-gradient"
       gradientTransform="translate(-47.52,-48.29)" />
    <linearGradient
       id="linear-gradient-4"
       x1="78.080002"
       y1="100.89"
       x2="109.52"
       y2="100.89"
       xlink:href="#linear-gradient"
       gradientTransform="translate(-47.52,-48.29)" />
    <linearGradient
       id="linear-gradient-5"
       x1="47.529999"
       y1="89.029999"
       x2="122.72"
       y2="89.029999"
       xlink:href="#linear-gradient"
       gradientTransform="translate(-47.52,-48.29)" />
    <linearGradient
       id="linear-gradient-6"
       x1="47.52"
       y1="89.029999"
       x2="122.72"
       y2="89.029999"
       xlink:href="#linear-gradient"
       gradientTransform="translate(-47.52,-48.29)" />
    <linearGradient
       id="linear-gradient-7"
       x1="77.550003"
       y1="112.78"
       x2="152.74001"
       y2="112.78"
       xlink:href="#linear-gradient"
       gradientTransform="translate(-47.52,-48.29)" />
    <linearGradient
       id="linear-gradient-8"
       x1="77.550003"
       y1="112.78"
       x2="152.75"
       y2="112.78"
       xlink:href="#linear-gradient"
       gradientTransform="translate(-47.52,-48.29)" />
  </defs>
  <path
     class="cls-9"
     d="M 124.63,76.46 V 28.77 h 16.08 c 4.13,0 7.65,0.68 10.56,2.03 2.91,1.35 5.26,3.17 7.07,5.45 1.81,2.28 3.12,4.84 3.95,7.66 0.83,2.83 1.24,5.73 1.24,8.7 0,2.73 -0.39,5.48 -1.18,8.28 -0.78,2.79 -2.06,5.37 -3.83,7.72 -1.77,2.35 -4.14,4.25 -7.1,5.69 -2.96,1.44 -6.63,2.16 -10.99,2.16 h -15.81 z m 8.82,-8.38 h 7.9 c 2.43,0 4.47,-0.46 6.13,-1.38 1.66,-0.92 2.99,-2.13 4,-3.64 1.01,-1.51 1.75,-3.18 2.22,-5.01 0.46,-1.83 0.7,-3.64 0.7,-5.43 0,-1.91 -0.24,-3.78 -0.72,-5.62 -0.48,-1.84 -1.21,-3.51 -2.22,-5.01 -1,-1.5 -2.27,-2.69 -3.81,-3.58 -1.54,-0.89 -3.4,-1.33 -5.55,-1.33 h -8.65 z"
     id="path2"
     style="fill:#ffa400;fill-opacity:1" />
  <path
     class="cls-9"
     d="M 174.46,76.46 V 28.77 h 32.22 v 8.38 h -23.4 v 10.49 h 13.86 v 8.38 h -13.86 v 11.99 h 24.83 v 8.45 h -33.66 z"
     id="path3"
     style="fill:#ffa400;fill-opacity:1" />
  <path
     class="cls-9"
     d="m 215.68,76.46 18.16,-47.69 h 8.38 l 18.22,47.69 h -9.5 l -3.78,-10.08 h -18.22 l -3.71,10.08 h -9.54 z M 231.79,58.3 h 12.43 l -4.77,-12.77 c -0.16,-0.39 -0.33,-0.82 -0.51,-1.29 -0.18,-0.47 -0.35,-0.96 -0.51,-1.45 -0.16,-0.49 -0.3,-0.91 -0.41,-1.28 -0.11,0.36 -0.25,0.79 -0.41,1.28 -0.16,0.49 -0.33,0.97 -0.51,1.45 -0.18,0.48 -0.35,0.91 -0.51,1.29 z"
     id="path4"
     style="fill:#ffa400;fill-opacity:1" />
  <path
     class="cls-9"
     d="M 269.16,76.46 V 28.77 h 8.82 v 39.14 h 23.06 v 8.55 h -31.89 z"
     id="path5"
     style="fill:#ffa400;fill-opacity:1" />
  <path
     class="cls-9"
     d="M 309.43,76.46 V 28.77 h 20.13 c 4.02,0 7.21,0.73 9.57,2.2 2.36,1.47 4.05,3.34 5.08,5.62 1.02,2.28 1.53,4.66 1.53,7.14 0,1.73 -0.3,3.47 -0.9,5.23 -0.6,1.76 -1.54,3.37 -2.83,4.84 -1.28,1.47 -2.95,2.65 -5.01,3.54 -2.06,0.9 -4.54,1.35 -7.44,1.35 h -11.31 v 17.78 h -8.82 z m 8.82,-26.09 h 11.72 c 1.63,0 2.95,-0.33 3.93,-1 0.99,-0.67 1.7,-1.52 2.13,-2.54 0.43,-1.02 0.65,-2.06 0.65,-3.1 0,-0.95 -0.2,-1.95 -0.6,-2.98 -0.4,-1.03 -1.09,-1.9 -2.06,-2.61 -0.98,-0.7 -2.33,-1.06 -4.05,-1.06 h -11.72 z"
     id="path6"
     style="fill:#ffa400;fill-opacity:1" />
  <path
     class="cls-9"
     d="M 354.77,76.46 V 28.77 h 21.7 c 3.97,0 7.11,0.69 9.42,2.06 2.3,1.37 3.95,3.18 4.94,5.43 0.99,2.25 1.48,4.67 1.48,7.26 0,1.79 -0.35,3.61 -1.04,5.45 -0.69,1.84 -1.74,3.5 -3.15,4.97 -1.41,1.48 -3.18,2.57 -5.31,3.27 l 9.4,19.25 h -9.91 l -9.03,-18.05 h -9.68 v 18.05 z m 8.82,-26.37 h 13.01 c 1.66,0 2.97,-0.31 3.93,-0.94 0.96,-0.62 1.65,-1.44 2.06,-2.44 0.41,-1 0.61,-2.06 0.61,-3.17 0,-1 -0.19,-2 -0.58,-3 -0.39,-1 -1.06,-1.83 -2.01,-2.49 -0.95,-0.66 -2.29,-0.99 -4.02,-0.99 h -13.01 v 13.01 z"
     id="path7"
     style="fill:#ffa400;fill-opacity:1" />
  <path
     class="cls-9"
     d="M 403.44,76.46 V 28.77 h 32.23 v 8.38 h -23.4 v 10.49 h 13.86 v 8.38 h -13.86 v 11.99 h 24.83 v 8.45 z"
     id="path8"
     style="fill:#ffa400;fill-opacity:1" />
  <path
     class="cls-9"
     d="M 447.42,76.46 V 28.77 h 20.13 c 4.02,0 7.21,0.73 9.57,2.2 2.36,1.47 4.05,3.34 5.08,5.62 1.02,2.28 1.53,4.66 1.53,7.14 0,1.73 -0.3,3.47 -0.9,5.23 -0.6,1.76 -1.54,3.37 -2.83,4.84 -1.28,1.47 -2.95,2.65 -5.01,3.54 -2.05,0.9 -4.54,1.35 -7.44,1.35 h -11.31 v 17.78 h -8.82 z m 8.82,-26.09 h 11.72 c 1.63,0 2.95,-0.33 3.93,-1 0.99,-0.67 1.7,-1.52 2.13,-2.54 0.43,-1.02 0.65,-2.06 0.65,-3.1 0,-0.95 -0.2,-1.95 -0.6,-2.98 -0.4,-1.03 -1.09,-1.9 -2.06,-2.61 -0.98,-0.7 -2.33,-1.06 -4.05,-1.06 h -11.72 z"
     id="path9"
     style="fill:#ffa400;fill-opacity:1" />
  <path
     class="cls-1"
     d="M 62,81.84 V 40.3 c 0,-2.72 -2.21,-4.93 -4.94,-4.93 H 43.23 V 23.49 c 0,0 26.5,0 26.5,0 2.72,0 4.94,2.21 4.94,4.94 V 81.85 H 61.99 Z"
     id="path10"
     style="fill:#ffa400;fill-opacity:1" />
  <path
     class="cls-3"
     d="M 69.74,23.49 H 43.23 v 11.88 h 13.83 c 2.73,0 4.94,2.21 4.94,4.94 V 81.85 H 74.67 V 28.43 c 0,-2.73 -2.21,-4.94 -4.94,-4.94 z"
     id="path11"
     style="fill:#ffa400;fill-opacity:1" />
  <path
     class="cls-4"
     d="m 35.49,81.75 c -2.72,0 -4.94,-2.21 -4.94,-4.94 V 23.44 h 12.68 c 0,0 0,41.49 0,41.49 0,2.72 2.21,4.94 4.94,4.94 H 62 v 11.88 c 0,0 -26.5,0 -26.5,0 z"
     id="path12"
     style="fill:#ffa400;fill-opacity:1" />
  <path
     class="cls-2"
     d="m 48.17,69.87 c -2.73,0 -4.94,-2.21 -4.94,-4.94 V 23.44 H 30.56 v 53.37 c 0,2.73 2.21,4.94 4.94,4.94 H 62 V 69.87 Z"
     id="path13"
     style="fill:#ffa400;fill-opacity:1" />
  <path
     class="cls-7"
     d="M 7.77,71.37 C -2.57,61.03 -2.57,44.21 7.77,33.87 L 33.87,7.77 C 38.88,2.76 45.54,0 52.62,0 59.7,0 66.36,2.76 71.37,7.77 l 3.84,3.84 H 48.18 c -2.72,0 -4.94,2.22 -4.94,4.94 v 6.94 H 35.5 c -2.72,0 -4.94,2.21 -4.94,4.94 v 6.94 h -7.74 c -2.72,0 -4.93,2.21 -4.93,4.94 v 41.18 z"
     id="path14"
     style="fill:#ffa400;fill-opacity:1" />
  <path
     class="cls-8"
     d="m 22.82,35.37 h 7.74 v -6.94 c 0,-2.73 2.21,-4.94 4.94,-4.94 h 7.74 v -6.94 c 0,-2.73 2.21,-4.94 4.94,-4.94 H 75.21 L 71.37,7.77 C 61.01,-2.59 44.22,-2.59 33.87,7.77 l -26.1,26.1 c -10.36,10.36 -10.36,27.15 0,37.5 L 17.88,81.48 V 40.3 c 0,-2.73 2.21,-4.94 4.94,-4.94 z"
     id="path15"
     style="fill:#ffa400;fill-opacity:1" />
  <path
     class="cls-6"
     d="m 52.62,105.23 c -7.08,0 -13.74,-2.76 -18.75,-7.77 l -3.84,-3.83 h 27.03 c 2.72,0 4.94,-2.22 4.94,-4.94 v -6.94 h 7.74 c 2.72,0 4.94,-2.21 4.94,-4.94 v -6.94 h 7.74 c 2.72,0 4.94,-2.21 4.94,-4.94 V 23.75 l 10.12,10.11 c 10.34,10.34 10.34,27.16 0,37.5 l -26.1,26.1 c -5.01,5.01 -11.67,7.77 -18.75,7.77 z"
     id="path16"
     style="fill:#ffa400;fill-opacity:1" />
  <path
     class="cls-5"
     d="M 97.46,33.87 87.34,23.76 v 41.18 c 0,2.73 -2.21,4.94 -4.94,4.94 h -7.74 v 6.94 c 0,2.73 -2.21,4.94 -4.94,4.94 h -7.74 v 6.94 c 0,2.73 -2.21,4.94 -4.94,4.94 H 30.01 l 3.84,3.84 c 10.36,10.36 27.15,10.36 37.5,0 l 26.1,-26.1 c 10.36,-10.36 10.36,-27.15 0,-37.5 z"
     id="path17"
     style="fill:#ffa400;fill-opacity:1" />
</svg>
