<?xml version="1.0" encoding="UTF-8" standalone="no"?>
<svg
   id="Layer_1"
   viewBox="0 0 580.56 203.18"
   version="1.1"
   sodipodi:docname="DealPrepLogo.svg"
   inkscape:version="1.3.2 (091e20e, 2023-11-25)"
   xmlns:inkscape="http://www.inkscape.org/namespaces/inkscape"
   xmlns:sodipodi="http://sodipodi.sourceforge.net/DTD/sodipodi-0.dtd"
   xmlns:xlink="http://www.w3.org/1999/xlink"
   xmlns="http://www.w3.org/2000/svg"
   xmlns:svg="http://www.w3.org/2000/svg">
  <sodipodi:namedview
     id="namedview17"
     pagecolor="#ffffff"
     bordercolor="#000000"
     borderopacity="0.25"
     inkscape:showpageshadow="2"
     inkscape:pageopacity="0.0"
     inkscape:pagecheckerboard="0"
     inkscape:deskcolor="#d1d1d1"
     inkscape:zoom="1.1615317"
     inkscape:cx="391.72413"
     inkscape:cy="131.72262"
     inkscape:window-width="3008"
     inkscape:window-height="1639"
     inkscape:window-x="0"
     inkscape:window-y="25"
     inkscape:window-maximized="0"
     inkscape:current-layer="Layer_1" />
  <defs
     id="defs2">
    <style
       id="style1">.cls-1{fill:url(#linear-gradient);}.cls-1,.cls-2,.cls-3,.cls-4,.cls-5,.cls-6,.cls-7,.cls-8,.cls-9{stroke-width:0px;}.cls-2{fill:url(#linear-gradient-4);}.cls-3{fill:url(#linear-gradient-2);}.cls-4{fill:url(#linear-gradient-3);}.cls-5{fill:url(#linear-gradient-8);}.cls-6{fill:url(#linear-gradient-7);}.cls-7{fill:url(#linear-gradient-5);}.cls-8{fill:url(#linear-gradient-6);}.cls-9{fill:#0491b7;}</style>
    <linearGradient
       id="linear-gradient"
       x1="90.75"
       y1="100.95"
       x2="122.2"
       y2="100.95"
       gradientUnits="userSpaceOnUse">
      <stop
         offset="0"
         stop-color="#5b45a0"
         id="stop1" />
      <stop
         offset="1"
         stop-color="#0491b7"
         id="stop2" />
    </linearGradient>
    <linearGradient
       id="linear-gradient-2"
       x1="90.75"
       y1="100.95"
       x2="122.19"
       y2="100.95"
       xlink:href="#linear-gradient" />
    <linearGradient
       id="linear-gradient-3"
       x1="78.08"
       y1="100.89"
       x2="109.52"
       y2="100.89"
       xlink:href="#linear-gradient" />
    <linearGradient
       id="linear-gradient-4"
       x1="78.08"
       y1="100.89"
       x2="109.52"
       y2="100.89"
       xlink:href="#linear-gradient" />
    <linearGradient
       id="linear-gradient-5"
       x1="47.53"
       y1="89.03"
       x2="122.72"
       y2="89.03"
       xlink:href="#linear-gradient" />
    <linearGradient
       id="linear-gradient-6"
       x1="47.52"
       y1="89.03"
       x2="122.72"
       y2="89.03"
       xlink:href="#linear-gradient" />
    <linearGradient
       id="linear-gradient-7"
       x1="77.55"
       y1="112.78"
       x2="152.74"
       y2="112.78"
       xlink:href="#linear-gradient" />
    <linearGradient
       id="linear-gradient-8"
       x1="77.55"
       y1="112.78"
       x2="152.75"
       y2="112.78"
       xlink:href="#linear-gradient" />
  </defs>
  <path
     class="cls-9"
     d="M 192.15,124.75 V 77.06 h 16.08 c 4.13,0 7.65,0.68 10.56,2.03 2.91,1.35 5.26,3.17 7.07,5.45 1.81,2.28 3.12,4.84 3.95,7.66 0.83,2.83 1.24,5.73 1.24,8.7 0,2.73 -0.39,5.48 -1.18,8.28 -0.78,2.79 -2.06,5.37 -3.83,7.72 -1.77,2.35 -4.14,4.25 -7.1,5.69 -2.96,1.44 -6.63,2.16 -10.99,2.16 h -15.81 z m 8.82,-8.38 h 7.9 c 2.43,0 4.47,-0.46 6.13,-1.38 1.66,-0.92 2.99,-2.13 4,-3.64 1.01,-1.51 1.75,-3.18 2.22,-5.01 0.46,-1.83 0.7,-3.64 0.7,-5.43 0,-1.91 -0.24,-3.78 -0.72,-5.62 -0.48,-1.84 -1.21,-3.51 -2.22,-5.01 -1,-1.5 -2.27,-2.69 -3.81,-3.58 -1.54,-0.89 -3.4,-1.33 -5.55,-1.33 h -8.65 z"
     id="path2"
     style="fill:#030303;fill-opacity:1" />
  <path
     class="cls-9"
     d="M 241.98,124.75 V 77.06 h 32.22 v 8.38 h -23.4 v 10.49 h 13.86 v 8.38 H 250.8 v 11.99 h 24.83 v 8.45 h -33.66 z"
     id="path3"
     style="fill:#030303;fill-opacity:1" />
  <path
     class="cls-9"
     d="m 283.2,124.75 18.16,-47.69 h 8.38 l 18.22,47.69 h -9.5 l -3.78,-10.08 h -18.22 l -3.71,10.08 h -9.54 z m 16.11,-18.16 h 12.43 l -4.77,-12.77 c -0.16,-0.39 -0.33,-0.82 -0.51,-1.29 -0.18,-0.47 -0.35,-0.96 -0.51,-1.45 -0.16,-0.49 -0.3,-0.91 -0.41,-1.28 -0.11,0.36 -0.25,0.79 -0.41,1.28 -0.16,0.49 -0.33,0.97 -0.51,1.45 -0.18,0.48 -0.35,0.91 -0.51,1.29 z"
     id="path4"
     style="fill:#030303;fill-opacity:1" />
  <path
     class="cls-9"
     d="M 336.68,124.75 V 77.06 h 8.82 v 39.14 h 23.06 v 8.55 h -31.89 z"
     id="path5"
     style="fill:#030303;fill-opacity:1" />
  <path
     class="cls-9"
     d="M 376.95,124.75 V 77.06 h 20.13 c 4.02,0 7.21,0.73 9.57,2.2 2.36,1.47 4.05,3.34 5.08,5.62 1.02,2.28 1.53,4.66 1.53,7.14 0,1.73 -0.3,3.47 -0.9,5.23 -0.6,1.76 -1.54,3.37 -2.83,4.84 -1.28,1.47 -2.95,2.65 -5.01,3.54 -2.06,0.9 -4.54,1.35 -7.44,1.35 h -11.31 v 17.78 h -8.82 z m 8.82,-26.09 h 11.72 c 1.63,0 2.95,-0.33 3.93,-1 0.99,-0.67 1.7,-1.52 2.13,-2.54 0.43,-1.02 0.65,-2.06 0.65,-3.1 0,-0.95 -0.2,-1.95 -0.6,-2.98 -0.4,-1.03 -1.09,-1.9 -2.06,-2.61 -0.98,-0.7 -2.33,-1.06 -4.05,-1.06 h -11.72 z"
     id="path6"
     style="fill:#030303;fill-opacity:1" />
  <path
     class="cls-9"
     d="M 422.29,124.75 V 77.06 h 21.7 c 3.97,0 7.11,0.69 9.42,2.06 2.3,1.37 3.95,3.18 4.94,5.43 0.99,2.25 1.48,4.67 1.48,7.26 0,1.79 -0.35,3.61 -1.04,5.45 -0.69,1.84 -1.74,3.5 -3.15,4.97 -1.41,1.48 -3.18,2.57 -5.31,3.27 l 9.4,19.25 h -9.91 l -9.03,-18.05 h -9.68 v 18.05 z m 8.82,-26.37 h 13.01 c 1.66,0 2.97,-0.31 3.93,-0.94 0.96,-0.62 1.65,-1.44 2.06,-2.44 0.41,-1 0.61,-2.06 0.61,-3.17 0,-1 -0.19,-2 -0.58,-3 -0.39,-1 -1.06,-1.83 -2.01,-2.49 -0.95,-0.66 -2.29,-0.99 -4.02,-0.99 H 431.1 v 13.01 z"
     id="path7"
     style="fill:#030303;fill-opacity:1" />
  <path
     class="cls-9"
     d="M 470.96,124.75 V 77.06 h 32.23 v 8.38 h -23.4 v 10.49 h 13.86 v 8.38 h -13.86 v 11.99 h 24.83 v 8.45 z"
     id="path8"
     style="fill:#030303;fill-opacity:1" />
  <path
     class="cls-9"
     d="M 514.94,124.75 V 77.06 h 20.13 c 4.02,0 7.21,0.73 9.57,2.2 2.36,1.47 4.05,3.34 5.08,5.62 1.02,2.28 1.53,4.66 1.53,7.14 0,1.73 -0.3,3.47 -0.9,5.23 -0.6,1.76 -1.54,3.37 -2.83,4.84 -1.28,1.47 -2.95,2.65 -5.01,3.54 -2.05,0.9 -4.54,1.35 -7.44,1.35 h -11.31 v 17.78 h -8.82 z m 8.82,-26.09 h 11.72 c 1.63,0 2.95,-0.33 3.93,-1 0.99,-0.67 1.7,-1.52 2.13,-2.54 0.43,-1.02 0.65,-2.06 0.65,-3.1 0,-0.95 -0.2,-1.95 -0.6,-2.98 -0.4,-1.03 -1.09,-1.9 -2.06,-2.61 -0.98,-0.7 -2.33,-1.06 -4.05,-1.06 h -11.72 z"
     id="path9"
     style="fill:#030303;fill-opacity:1" />
  <g
     class="iconsvg-imagesvg"
     transform="matrix(2.315561,0,0,2.315561,111.46601,67.394818)"
     id="g31">
    <g
       id="g30">
      <rect
         fill="#333333"
         fill-opacity="0"
         stroke-width="2"
         x="0"
         y="0"
         width="19.200001"
         height="29.687355"
         class="image-rect"
         id="rect26" />
      <svg
         x="0"
         y="0"
         width="19.200001"
         height="29.687355"
         filtersec="colorsb1766134911"
         class="image-svg-svg primary"
         style="overflow:visible"
         version="1.1"
         id="svg30">
        <svg
           viewBox="-0.0036882639 0.00042724609 64.673683 99.999352"
           version="1.1"
           id="svg29"
           width="100%"
           height="100%">
          <g
             d-rs="3"
             transform="matrix(1,0,0,-1,0,100.0001)"
             id="g29">
            <path
               d="M 62.77,99.66 44.36,80.57 A 0.83,0.83 0 0 1 44.11,79.99 V 20 a 0.83,0.83 0 0 1 0.25,-0.58 L 62.77,0.34 c 0.64,-0.67 1.9,-0.28 1.9,0.57 v 98.18 c 0,0.85 -1.26,1.24 -1.9,0.57 z"
               fill="#ffa400"
               id="path26" />
            <path
               d="M 38.91,98.89 25.65,80.54 A 0.85,0.85 0 0 1 25.5,80.06 V 19.94 a 0.85,0.85 0 0 1 0.15,-0.48 L 38.91,1.11 c 0.56,-0.78 2,-0.44 2,0.48 v 96.82 c -0.02,0.92 -1.44,1.26 -2,0.48 z"
               fill="#333333"
               id="path27" />
            <path
               d="M 19.19,97.34 11.1,80.48 A 0.81,0.81 0 0 1 11.02,80.14 V 19.86 A 0.81,0.81 0 0 1 11.1,19.52 L 19.19,2.66 c 0.44,-0.92 2.06,-0.65 2.06,0.35 V 97 c 0,1 -1.62,1.26 -2.06,0.34 z"
               fill="#ffa400"
               id="path28" />
            <path
               d="M 3,97.17 0,84.87 A 1.1,1.1 0 0 1 0,84.69 V 15.31 A 1.1,1.1 0 0 1 0,15.13 L 3,2.83 C 3.2,1.75 5.07,1.91 5.07,3 v 94 c 0,1.09 -1.87,1.25 -2.07,0.17 z"
               fill="#333333"
               id="path29" />
          </g>
        </svg>
      </svg>
    </g>
  </g>
  <g
     id="g35"
     transform="matrix(2.315561,0,0,2.315561,50.206696,36.568539)">
    <g
       fill-rule=""
       class="tp-name iconsvg-namesvg"
       id="g34">
      <g
         transform="scale(1.74)"
         id="g33">
        <g
           id="g32">
          <path
             d="m 24.76,-7.91 3.78,3.73 q -2.22,2.22 -5.16,3.49 -2.93,1.27 -6.31,1.27 v 0 q -3.33,0 -6.29,-1.27 Q 7.82,-1.96 5.62,-4.16 3.42,-6.36 2.16,-9.31 0.89,-12.27 0.89,-15.6 v 0 q 0,-3.34 1.27,-6.29 1.26,-2.96 3.46,-5.16 2.2,-2.2 5.16,-3.47 2.96,-1.27 6.29,-1.27 v 0 q 3.38,0 6.31,1.27 2.94,1.27 5.16,3.49 v 0 l -3.78,3.78 q -1.55,-1.56 -3.51,-2.38 -1.96,-0.82 -4.18,-0.82 v 0 q -2.18,0 -4.13,0.82 -1.96,0.82 -3.52,2.38 v 0 q -1.55,1.56 -2.37,3.51 -0.83,1.96 -0.83,4.14 v 0 q 0,2.17 0.83,4.15 0.82,1.98 2.37,3.54 v 0 q 1.56,1.55 3.52,2.35 1.95,0.8 4.13,0.8 v 0 q 2.22,0 4.18,-0.8 1.96,-0.8 3.51,-2.35 z"
             transform="translate(-0.89000005,31.790001)"
             id="path31" />
        </g>
      </g>
    </g>
  </g>
</svg>
