<svg xmlns="http://www.w3.org/2000/svg" xmlns:xlink="http://www.w3.org/1999/xlink" version="1.0" x="0" y="0" width="2400" height="2801.659506770733" viewBox="145.46339374542237 96.35698657989502 49.07322395324707 57.28602684020996" preserveAspectRatio="xMidYMid meet" color-interpolation-filters="sRGB"><g><defs><linearGradient id="92" x1="0%" y1="0%" x2="100%" y2="0%"><stop offset="0%" stop-color="#fa71cd"></stop> <stop offset="100%" stop-color="#9b59b6"></stop></linearGradient><linearGradient id="93" x1="0%" y1="0%" x2="100%" y2="0%"><stop offset="0%" stop-color="#f9d423"></stop> <stop offset="100%" stop-color="#f83600"></stop></linearGradient><linearGradient id="94" x1="0%" y1="0%" x2="100%" y2="0%"><stop offset="0%" stop-color="#0064d2"></stop> <stop offset="100%" stop-color="#1cb0f6"></stop></linearGradient><linearGradient id="95" x1="0%" y1="0%" x2="100%" y2="0%"><stop offset="0%" stop-color="#f00978"></stop> <stop offset="100%" stop-color="#3f51b1"></stop></linearGradient><linearGradient id="96" x1="0%" y1="0%" x2="100%" y2="0%"><stop offset="0%" stop-color="#7873f5"></stop> <stop offset="100%" stop-color="#ec77ab"></stop></linearGradient><linearGradient id="97" x1="0%" y1="0%" x2="100%" y2="0%"><stop offset="0%" stop-color="#f9d423"></stop> <stop offset="100%" stop-color="#e14fad"></stop></linearGradient><linearGradient id="98" x1="0%" y1="0%" x2="100%" y2="0%"><stop offset="0%" stop-color="#009efd"></stop> <stop offset="100%" stop-color="#2af598"></stop></linearGradient><linearGradient id="99" x1="0%" y1="0%" x2="100%" y2="0%"><stop offset="0%" stop-color="#ffcc00"></stop> <stop offset="100%" stop-color="#00b140"></stop></linearGradient><linearGradient id="100" x1="0%" y1="0%" x2="100%" y2="0%"><stop offset="0%" stop-color="#d51007"></stop> <stop offset="100%" stop-color="#ff8177"></stop></linearGradient><linearGradient id="102" x1="0%" y1="0%" x2="100%" y2="0%"><stop offset="0%" stop-color="#a2b6df"></stop> <stop offset="100%" stop-color="#0c3483"></stop></linearGradient><linearGradient id="103" x1="0%" y1="0%" x2="100%" y2="0%"><stop offset="0%" stop-color="#7ac5d8"></stop> <stop offset="100%" stop-color="#eea2a2"></stop></linearGradient><linearGradient id="104" x1="0%" y1="0%" x2="100%" y2="0%"><stop offset="0%" stop-color="#00ecbc"></stop> <stop offset="100%" stop-color="#007adf"></stop></linearGradient><linearGradient id="105" x1="0%" y1="0%" x2="100%" y2="0%"><stop offset="0%" stop-color="#b88746"></stop> <stop offset="100%" stop-color="#fdf5a6"></stop></linearGradient></defs><g fill="#333333" class="icon-text-wrapper icon-svg-group iconsvg" transform="translate(145.94449816584586,96.83809661865234)"><g class="iconsvg-imagesvg" transform="translate(26.455500602722168,13.312644958496094)"><g><rect fill="#333333" fill-opacity="0" stroke-width="2" x="0" y="0" width="19.199999999999967" height="29.68735504221166" class="image-rect"></rect> <svg x="0" y="0" width="19.199999999999967" height="29.68735504221166" filtersec="colorsb1766134911" class="image-svg-svg primary" style="overflow: visible;"><svg xmlns="http://www.w3.org/2000/svg" viewBox="-0.00368826393969357 0.00042724609375 64.6736831665039 99.99935150146484"><g d-rs="3" transform="matrix(1,0,0,-1,0,100.0001)"><path d="M62.77 99.66L44.36 80.57a.83.83 0 0 1-.25-.58V20a.83.83 0 0 1 .25-.58L62.77.34c.64-.67 1.9-.28 1.9.57v98.18c0 .85-1.26 1.24-1.9.57z" fill="#FFA400"></path><path d="M38.91 98.89L25.65 80.54a.85.85 0 0 1-.15-.48V19.94a.85.85 0 0 1 .15-.48L38.91 1.11c.56-.78 2-.44 2 .48v96.82c-.02.92-1.44 1.26-2 .48z" fill="#333333"></path><path d="M19.19 97.34L11.1 80.48a.81.81 0 0 1-.08-.34V19.86a.81.81 0 0 1 .08-.34l8.09-16.86c.44-.92 2.06-.65 2.06.35V97c0 1-1.62 1.26-2.06.34z" fill="#FFA400"></path><path d="M3 97.17l-3-12.3a1.1 1.1 0 0 1 0-.18V15.31a1.1 1.1 0 0 1 0-.18l3-12.3c.2-1.08 2.07-.92 2.07.17v94c0 1.09-1.87 1.25-2.07.17z" fill="#333333"></path></g></svg></svg> </g></g> <g transform="translate(0,0)"><g fill-rule="" class="tp-name iconsvg-namesvg"><g transform="scale(1.7400000000000007)"><g><path d="M24.76-7.91L28.54-4.18Q26.32-1.96 23.38-0.69 20.45 0.58 17.07 0.58L17.07 0.58Q13.74 0.58 10.78-0.69 7.82-1.96 5.62-4.16 3.42-6.36 2.16-9.31 0.89-12.27 0.89-15.6L0.89-15.6Q0.89-18.94 2.16-21.89 3.42-24.85 5.62-27.05 7.82-29.25 10.78-30.52 13.74-31.79 17.07-31.79L17.07-31.79Q20.45-31.79 23.38-30.52 26.32-29.25 28.54-27.03L28.54-27.03 24.76-23.25Q23.21-24.81 21.25-25.63 19.29-26.45 17.07-26.45L17.07-26.45Q14.89-26.45 12.94-25.63 10.98-24.81 9.42-23.25L9.42-23.25Q7.87-21.69 7.05-19.74 6.22-17.78 6.22-15.6L6.22-15.6Q6.22-13.43 7.05-11.45 7.87-9.47 9.42-7.91L9.42-7.91Q10.98-6.36 12.94-5.56 14.89-4.76 17.07-4.76L17.07-4.76Q19.29-4.76 21.25-5.56 23.21-6.36 24.76-7.91L24.76-7.91Z" transform="translate(-0.89000004529953, 31.790000915527344)"></path></g> </g></g> </g></g><defs v-gra="od"></defs></g></svg>