<svg id="Business_Meeting_DealPrep_" data-name="Business Meeting (DealPrep)" xmlns="http://www.w3.org/2000/svg" viewBox="0 0 1920 1080"><defs><style>.cls-1{fill:#ba9bd5;}.cls-2{fill:#ffc06c;}.cls-3{fill:#a97ca7;}.cls-4{fill:#ffecd2;}.cls-5{fill:#fab857;}.cls-6{fill:#ffe3c5;}.cls-7{fill:#f78154;}.cls-8{fill:#9866af;}.cls-9{fill:#594342;}.cls-10{fill:#ffcca9;}.cls-11{fill:#fcae7a;}.cls-12{fill:#6b427c;}.cls-13{fill:#9b5d42;}.cls-14{fill:#e29169;}.cls-15{fill:#f9a77a;}.cls-16{fill:#8e5f3c;}.cls-17{fill:#ed9135;}.cls-18{fill:#8f57ad;}.cls-19{fill:#804499;}.cls-20{fill:#eaa068;}.cls-21{fill:#996e52;}.cls-22{fill:#dfcfff;}.cls-23{fill:#dd9c66;}.cls-24{fill:#f99f38;}</style></defs><g id="Board"><g id="Frame"><path class="cls-1" d="M866.62,382.85,420.53,641.33a21.08,21.08,0,0,1-31.64-18.23V358.18a21.06,21.06,0,0,1,10.66-18.32L843,87.81a21.08,21.08,0,0,1,31.49,18.11l2.62,258.48A21.07,21.07,0,0,1,866.62,382.85Z"/><polygon class="cls-2" points="850.17 364.89 415.97 616.48 415.97 360.96 847.4 115.77 850.17 364.89"/></g><g id="Filled_Contract" data-name="Filled Contract"><polygon class="cls-3" points="606.88 460.96 440.12 559.06 440.12 398.1 605.14 304.01 606.88 460.96"/><polygon class="cls-4" points="492.74 405.91 455.22 426.84 455.16 415.77 493.48 392.97 492.74 405.91"/><polygon class="cls-4" points="552.6 391.33 455.22 446.01 455.16 434.94 553.33 378.39 552.6 391.33"/><polygon class="cls-4" points="530.89 422.65 455.22 465.18 455.16 454.1 531.62 409.72 530.89 422.65"/><polygon class="cls-4" points="569.78 458.87 476 512.29 475.94 501 570.51 445.68 569.78 458.87"/><polygon class="cls-5" points="510.42 452.43 455.22 484.9 455.16 473.83 510.84 441.51 510.42 452.43"/><polygon class="cls-4" points="594.78 426.07 476 493.06 475.94 481.98 595.51 413.13 594.78 426.07"/></g><g id="Outline_Contract" data-name="Outline Contract"><polygon class="cls-4" points="751.4 380.45 624.86 451.16 624.86 292.74 749.66 225.99 751.4 380.45"/><polygon class="cls-5" points="737.45 277.79 635.41 331.69 635.35 326.57 737.6 271.28 737.45 277.79"/><polygon class="cls-5" points="737.45 287.71 635.41 341.61 635.35 336.5 737.6 281.2 737.45 287.71"/><polygon class="cls-5" points="681.62 297.64 635.25 322.14 635.1 316.32 682.35 291.22 681.62 297.64"/><polygon class="cls-5" points="737.45 330.28 648.74 381 648.68 375.59 737.6 323.39 737.45 330.28"/><polygon class="cls-5" points="736.53 342.67 648.74 390.12 648.68 384.71 736.69 335.78 736.53 342.67"/><polygon class="cls-5" points="693.35 375.97 648.74 399.64 648.68 394.23 693.3 370.72 693.35 375.97"/><polygon class="cls-5" points="736.75 362.29 648.74 409.87 648.68 404.46 737.2 355.93 736.75 362.29"/><polygon class="cls-3" points="681.62 347.65 635.25 372.15 635.1 366.33 682.35 341.23 681.62 347.65"/></g></g><g id="Layer_66" data-name="Layer 66"><polygon id="Floor" class="cls-6" points="436.74 742.49 921.05 465.51 1438.57 767.45 954.26 1044.43 436.74 742.49"/></g><g id="Talk_Bubble" data-name="Talk Bubble"><path class="cls-7" d="M799,219.83l-22.93-3c-7,11.19-16.74,18.07-27.41,18.07-21.57,0-39-28-39-62.62s17.46-62.64,39-62.64,39,28.06,39,62.64a96.81,96.81,0,0,1-1.9,19.3Z"/></g><g id="Cloud_Walldecor" data-name="Cloud Walldecor"><g id="Paper"><polygon class="cls-1" points="1184.32 235.01 1184.32 190.5 1294.14 252.57 1294.14 378.81 1210.68 378.81 1170.01 258.99 1184.32 235.01"/><rect class="cls-4" x="1234.78" y="203.93" width="2.36" height="83.64" transform="translate(445.04 1226.78) rotate(-62.37)"/><rect class="cls-4" x="1234.78" y="218.24" width="2.36" height="83.64" transform="translate(432.35 1234.45) rotate(-62.37)"/><rect class="cls-4" x="1234.35" y="233.47" width="2.36" height="83.64" transform="translate(418.64 1242.25) rotate(-62.37)"/><rect class="cls-4" x="1234.35" y="248.25" width="2.36" height="83.64" transform="translate(405.54 1250.18) rotate(-62.37)"/></g><path id="Cloud" class="cls-8" d="M1210.68,286.81C1209,264.62,1192,235,1167.87,223.67c-31-14.46-73.56-2.42-98.44,32.11,0,0-80.79-11.94-98.18,63.58l347.5,191.17V477.88l38.52-22s-11.77-85.65-111.28-91c0,0,5.19-29.86-13.26-48.12,0,0-4.93-3.21-24.19-11.24C1208.54,305.53,1211.92,303.12,1210.68,286.81Z"/><polyline id="Paper-2" data-name="Paper" class="cls-2" points="1294.14 276.11 1316.31 287.64 1316.61 389.98 1294.14 375.68 1294.14 278.78"/></g><g id="Presentor"><g id="Pants"><path class="cls-9" d="M922.78,586.36c-12.81,5.21-37.1,12.82-38.87-3.46s-15.29-102.62-22.54-148.63L865,478a8.85,8.85,0,0,1,0,1l-3.27,78.56c-.25,6-4,11-9.1,12-7.63,1.53-17.06.5-22.16-.3a6.6,6.6,0,0,1-5.23-5.75C820.7,533.94,822,391.3,822,391.3l36.84,13.59L925.43,402s-14.79,62.29-15.32,79.66c-.45,14.2,13.39,66.53,18.6,92.12C929.8,579.13,927.25,584.56,922.78,586.36Z"/></g><g id="Shoes"><path class="cls-7" d="M832.82,579.31s-32.1,12-33.71,16.85,20.9,13.51,54.89,0l-.06-16.87a2.28,2.28,0,0,0-2.54-2.24Z"/><path class="cls-10" d="M848.46,583.4l-9.7,3.17a4.49,4.49,0,0,1-5.94-4.19l-.06-16.8,19.71-.09v12.43A5.79,5.79,0,0,1,848.46,583.4Z"/><path class="cls-7" d="M896.75,595.68s-34.86,25.92-22.43,29.53,38.13-6.78,49.76-18.64c0,0,2.81-13.46-6.82-16.27Z"/><path class="cls-10" d="M897.62,583h19.66a0,0,0,0,1,0,0v11.17a5.44,5.44,0,0,1-5.44,5.44H901.37a3.75,3.75,0,0,1-3.75-3.75V583a0,0,0,0,1,0,0Z" transform="translate(-98.8 190.58) rotate(-11.37)"/></g><g id="Jacket"><path class="cls-8" d="M801.74,305.41l20.38-26.69a19.21,19.21,0,0,1,11.27-7.12l15.68-3.32,27.62-.19L910.38,275a16.63,16.63,0,0,1,11.51,8.8L948,335.57a10.92,10.92,0,0,1-1.83,11.12L924.66,371.9l3,31.49s-63,20.74-106.09-6.51L821,342.47l1.85-21.88c-6.84,4.48-20.63,23.55-26.43,17.78-8.9-8.86-23.08-30-32.38-52.78l19.82-13.5Z"/></g><g id="Shirt"><path class="cls-9" d="M855.43,312.43l-.28,98.91s7.52,3.17,9.78-.4-2.32-98.28-2.32-98.28l2.8-25.13-12.29.32Z"/></g><g id="Head"><path class="cls-7" d="M853.12,287.85s-10.08-7.33-5.75-19.3l-14,3.05s-11.47,28.12,22.36,24.23l1.62-6.2a6.56,6.56,0,0,1-4.25-1.78"/><path id="Neck" class="cls-11" d="M872.71,256.72c-7.32,11.11,2.71,14.65,2.71,14.65-.61,18-9,20-17.69,20.52S845.34,276,846.08,273.36a42.7,42.7,0,0,0,.92-7.59Z"/><path id="Face" class="cls-10" d="M842.54,215.45c.66-2,4.53-6.29,6.48-5.59l6.05.87a11.44,11.44,0,0,1,2.37.6c12.86,5,18.64,12.12,25.68,24.44l.81,1.6c3.44,6,.4,10.36-5.36,14.23-5.16,3.47-12.78,12.93-19.76,15.45-15,5.42-26.19-10.84-25.18-26.42,0,0,6-4.58,6.1-11.41A43.93,43.93,0,0,1,842.54,215.45Z"/><path class="cls-7" d="M859.56,291.82l1.1,6.25s37.61-.32,26-26.47l-9.92-3.51S873.9,291.92,859.56,291.82Z"/><path class="cls-9" d="M871.1,273.6c.5,1.69,4.58,7.49,4.58,7.49,1-1.44-.85-3.2-.85-3.2l5,2.87s-6.16-4.38,9.41-22.78,9.92-42.24-11.64-57.94-34.26-2.3-34.26-2.3C813.72,207.8,819.8,258.22,829.57,264s7.69,17,7.69,17c2.75-1.84,2-8.13,2-8.13l4.3,8s5.77-12.93,1.34-16.62a33.62,33.62,0,0,1-11.38-19.48,5.9,5.9,0,0,1,2.09-5.6c4.43-3.8,4.81-11.57,7.38-18.57l.12-.31a4.33,4.33,0,0,1,8.33,1.11S861,233.75,867.59,236s2.8,11.46,2.8,11.46,5.24-6.75,4.56-10.13,1.83-3.75,1.83-3.75c1-.61,2.45.35,3.43,1,0,0,3.39,4.3-2.16,8.69C878.05,243.24,867.34,261.11,871.1,273.6Z"/></g><g id="Hands"><path class="cls-10" d="M750.25,264.2l-11.86-2.52a4.23,4.23,0,0,0-4,1.28l-.51.56a4.23,4.23,0,0,0,0,5.72l8.57,9.34a4.25,4.25,0,0,0,2,1.23l19.32,5.24a4.25,4.25,0,0,0,3.65-.7l10.91-8.19a4.23,4.23,0,0,0,1.34-5.08l-2.09-4.74A4.19,4.19,0,0,0,775,264l-14.78-4.84a4.22,4.22,0,0,0-5.54,4h0A4.22,4.22,0,0,0,757,267l5.36,2.82-11.17-5.26A4.15,4.15,0,0,0,750.25,264.2Z"/><path class="cls-10" d="M888.29,387.79a3.79,3.79,0,0,1,4.66,2.06c.95,2.19,3.2,4.74,8.46,5.22a3.79,3.79,0,0,1,3.16,5.1L900,412.55a3.78,3.78,0,0,1-2.07,2.17l-9.72,4.12a3.79,3.79,0,0,1-3.71-.42l-3.87-2.81a3.8,3.8,0,0,1-1.44-4.05l3.65-11.47c.38-1.42-2.07,2.27-3.2,1.32l-.13-.11a3.18,3.18,0,0,1-.17-4.7Z"/></g></g><g id="Table"><g id="Table-2" data-name="Table"><ellipse class="cls-12" cx="971.35" cy="726.61" rx="98.45" ry="214.91" transform="translate(-114.41 1267.55) rotate(-63.28)"/><ellipse class="cls-2" cx="977.25" cy="708.14" rx="98.45" ry="214.91" transform="translate(-94.66 1262.65) rotate(-63.28)"/><polygon class="cls-2" points="1087.56 857.22 1070.5 908.59 1053.38 902.17 1053.38 855.23 1087.56 857.22"/><polygon class="cls-12" points="1049.63 900.56 1051.26 854.97 1066.23 855.98 1057.95 903.88 1049.63 900.56"/></g></g><g id="Lady"><g id="Head-2" data-name="Head"><g id="Chair"><path class="cls-2" d="M1117.43,648.66l13.72,9.42a13.33,13.33,0,0,1,2.81,21.24l-11.9,11.52-29-25.48,11.24-29.29Z"/><path class="cls-12" d="M1076.31,529.31,1144,563.52a8.48,8.48,0,0,1,4.65,7.57l-2.08,54a8.48,8.48,0,0,1-12.31,7.56l-44.11-23.28Z"/><path class="cls-8" d="M1137.34,662.45c-2.87-4.12-38.55-30.9-39.32-31.41s-9.45,30.64-9.45,30.64l25.54,22a149.58,149.58,0,0,1,14.29-14.55s7.32-.52,7.32,8.25C1135.72,677.34,1143.64,671.47,1137.34,662.45Z"/><path class="cls-12" d="M1118.79,606l-7.22,50.25c.25,1.81-3.11,3.39-6.15,2.69l-10.63-7.67,5.27-55.82Z"/></g><g id="Head_and_Neck" data-name="Head and Neck"><path class="cls-13" d="M1021,457.34s-19.13,37.34-8.34,50.12l-14.46,3.07s-15.45-37,5.95-69.37,59.92-7.22,59.92-7.22,41.39,45.31,9.82,86.58l-21.59,4.78S1057,496,1021,457.34Z"/><path class="cls-14" d="M1065.15,520.07a3.07,3.07,0,0,1-.17.42c-3.18,6.59-22.76,4.89-24.67,4.7a20.78,20.78,0,0,1-7.32-.5l.07.15s-26.26-4.38-27.09-12.21h0l12,1.21h0c3.45,2.64,7.45,3.6,11.82,1.82a188.88,188.88,0,0,1,20.51-6.86v8.43Z"/><path class="cls-15" d="M1056.3,496.53s-.83,10.84-6,12.26a188.88,188.88,0,0,0-20.51,6.86c-4.37,1.78-8.37.82-11.82-1.82h0c-6.52-5-10.52-13.44-12-23.31-1.48-1.71-5.81-6.62-4.3-10.65,1.88-5,3.56-2.67,4.42-2.07,3.22-7.11,12.28-25.73,18.13-23.91l13.87,19.54Z"/></g><path id="Keyboard" class="cls-16" d="M1035.3,702.67l51.79-28.51a4.21,4.21,0,0,0,.43-7.12l-54-38.73a4.22,4.22,0,0,0-6.67,3.56l2.18,67.24A4.21,4.21,0,0,0,1035.3,702.67Z"/><path id="Sweatshirt" class="cls-8" d="M1063,520.69a6.06,6.06,0,0,1,4.27.38c10.39,5.06,55.86,28.66,50.88,51.81l-19,86.88a6,6,0,0,1-3.19,4.11l-53,26.68a6.05,6.05,0,0,1-8.46-3.49l-6.72-20a6.06,6.06,0,0,1,2.45-7l29.14-18.57L1004.51,613a6.06,6.06,0,0,0-8.15,8h0a6,6,0,0,1,.25,4.56c-1.86,5.33-7.85,17.18-24,15.42a6.09,6.09,0,0,1-4.76-3.25l-28.54-55.47a6.06,6.06,0,0,1,.38-6.19l40-58.49A6,6,0,0,1,984,515l20-2.47a6,6,0,0,1,4.34,1.19C1013.9,517.91,1032.18,528.94,1063,520.69Z"/><path id="Laptop" class="cls-17" d="M937.65,579.23v71.62a4.21,4.21,0,0,0,2.13,3.66l87.5,50a4.21,4.21,0,0,0,6.3-3.66V624.3a4.23,4.23,0,0,0-2.28-3.75l-87.5-45.07A4.22,4.22,0,0,0,937.65,579.23Z"/></g><path class="cls-18" d="M1068.23,590.7a45.14,45.14,0,0,1-19.74,44.17l10.82,6.58,13.69-13.3,5.45-48.34Z"/><path class="cls-18" d="M993.34,556s-13.53,32.93-11.23,39.57L970.53,589l19.75-30.64"/><path class="cls-19" d="M905.51,310.11,922.11,340s-4.85,13.28-12.26,14C909.85,354,915.47,327.21,905.51,310.11Z"/></g><g id="Dude"><g id="Dudes_typing" data-name="Dudes typing"><path class="cls-4" d="M794.83,636.71s2.41-4,6-3.88,11.37,11.91,11.37,11.91l-2.93,4.11S799.51,639.12,794.83,636.71Z"/><g id="Head_and_Neck-2" data-name="Head and Neck"><path class="cls-20" d="M704.81,640.22l4.42-5.49v-9.26s16.31-1.6,27.86,5.12c8,4.67.63,12.94.63,12.94v16.13S710.43,658.17,704.81,640.22Z"/><path class="cls-21" d="M756.08,625.88c10.18-3.73,8.72-7.13,8.72-7.13l5.61,6.24c11.29,15-30.64,14.93-37.92,15.23s4.6-19.36,4.6-19.36S741.53,631.19,756.08,625.88Z"/><path class="cls-20" d="M735.75,626.21,739,595.35l29.33-13.61-4.66,14.8s2.05,6.66,2.05,9.61S764.59,622,764.59,622,764,633.68,735.75,626.21Z"/><path class="cls-21" d="M739.32,620.86s-5.21,1.4,1.21-15.52,25.28-21.2,25.28-21.2c10-3.85,9.63-6.82,9.63-6.82,6.82-9.23-10-13.3-10-13.3-6.83-14.51-20.87-6.36-20.87-6.36-14.85-13.24-28.67,6.36-28.67,6.36-19.44.73-13,17.72-13,17.72-12.83,8.82,0,28.09,0,28.09s4.4-8.43,2,0,4.42,24.9,4.42,24.9l23.26,5.49.79-2.6"/><path class="cls-20" d="M737.67,599s8.69-9.46,8.51,5.75c0,0,1.13,6.13-2.88,7.78s-4.2,3.83-4.2,3.83S732.62,606.39,737.67,599Z"/></g><g id="Laptop-2" data-name="Laptop"><path class="cls-1" d="M867.73,576.79v63.13a4.2,4.2,0,0,0,2.07,3.63l91.48,54.18a4.22,4.22,0,0,0,6.36-3.63V626.54a4.2,4.2,0,0,0-2.2-3.7L874,573.09A4.21,4.21,0,0,0,867.73,576.79Z"/><polygon class="cls-22" points="877.12 586.11 877.12 637.24 956.85 685.03 956.85 630.11 877.12 586.11"/><path class="cls-1" d="M817.85,663.6l47.91-20.44a4.27,4.27,0,0,1,3.81.25l90.33,53.5a4.22,4.22,0,0,1-.73,7.6l-53.43,19a4.2,4.2,0,0,1-3.62-.38L817.3,671.07A4.21,4.21,0,0,1,817.85,663.6Z"/><polygon class="cls-22" points="842.65 661.54 866.61 650.03 949.99 699.91 919.99 709.74 842.65 661.54"/></g><path class="cls-4" d="M844.54,695l5.63-4.19s11.67,6.33,14.75,14.89l-5.48,6.42S858.81,703.32,844.54,695Z"/><g id="Hands-2" data-name="Hands"><path class="cls-23" d="M802,632.85l10.22,11.89c2.47,6,14.94,1.31,14.94,1.31l-4.37-2.52s12.64-3,20.66-2.69-12.4-15.41-18.62-15.41-22.77,7.79-22.77,7.79"/><path class="cls-23" d="M854.73,683.26s-1.9-16.85,3.27-16.45,17.22,2.27,18,3.61,4.07,14.17,1.23,17.65-13.53,13.42-13.53,13.42l-11.24-9.24Z"/><polygon class="cls-23" points="851.26 680.67 855.08 681.86 852.93 692.51 850.54 690.83 851.26 680.67"/></g><g id="Chair-2" data-name="Chair"><polygon class="cls-12" points="655.05 803.65 727.55 747.33 807.54 796 733.28 843.78 655.05 803.65"/><ellipse class="cls-12" cx="731.29" cy="900.27" rx="48.67" ry="29.45"/><ellipse class="cls-8" cx="731.29" cy="890.55" rx="48.67" ry="29.45"/><path class="cls-12" d="M715.87,860.15v26.16s12.46,17.94,21.85,9.27V860.15Z"/><polygon class="cls-8" points="655.05 803.65 655.05 827.72 733.3 869.44 733.28 843.78 655.05 803.65"/><polyline class="cls-2" points="733.28 843.78 807.54 796 807.54 821.53 733.3 869.44"/></g><g id="Suit"><path class="cls-16" d="M754.51,663.11l38.58-26.4s15.79,5.35,20.07,20.06L779.45,679Z"/><path class="cls-16" d="M792,762l1.33,27.72-1.6,9.09c-65.28,51-114,12.31-114,12.31s-12.31-18.19-8.56-38.53,0-54,0-54-13.91-40.66,2.67-69c0,0,13.91-9,28.36-9.32s-7,5.47,37.45,19.43c0,0,22.23,1.41,40.54,15.44l11.89,51.51,50.29-32.92s20.13,8.83,17.29,20.06c0,0-47.25,43.34-72.39,50.83,0,0-7.5,3.74-14.45-3.21"/></g><g id="Backrest"><path class="cls-8" d="M658.45,712.7a8.53,8.53,0,0,1,12.82-7.38l84.89,49.43a8.49,8.49,0,0,1,4.65,7.57v49.43c0,6.33-6.57,18.4-12.21,15.54l-85.6-53a8.53,8.53,0,0,1-4.55-7.55Z"/><path class="cls-12" d="M693.17,767.62,692.78,823l18.46,9.53,1.57-55.12a2.8,2.8,0,0,0-1.21-2.38l-14-9.73A2.81,2.81,0,0,0,693.17,767.62Z"/></g><g id="Shoes-2" data-name="Shoes"><path class="cls-12" d="M814.08,845.51s-.45,18.93,13.19,16.66a106,106,0,0,0,25.78-8.24s24.05-36.78,9.93-36.78C860.91,817.15,841.81,819.76,814.08,845.51Z"/><path class="cls-2" d="M810.23,845.51s-.46,18.93,13.18,16.66a106.19,106.19,0,0,0,25.79-8.24s24-36.78,9.92-36.78C857.06,817.15,838,819.76,810.23,845.51Z"/></g><path class="cls-9" d="M827.89,741.6s24.27-13.26,12,60c0,0-.8,29.16-.74,34,.06,3.77-3.77,17.16-23.72,11.26l-.8-60.19-22.71,11.09-1.53-36S823.55,740.32,827.89,741.6Z"/></g></g><g id="Cabinets"><polygon class="cls-12" points="1162.11 516.66 1368.63 637.67 1480.98 581.93 1269.12 457.71 1162.11 516.66"/><polygon class="cls-2" points="1368.63 637.67 1368.63 806.64 1480.98 745.64 1480.98 581.93 1368.63 637.67"/><polygon class="cls-12" points="1368.63 806.64 1162.11 685.72 1162.11 516.66 1368.63 637.67 1368.63 806.64"/><g id="Doors"><polygon class="cls-8" points="1173.88 541.27 1173.88 670.21 1247.72 710.33 1247.72 585.67 1173.88 541.27"/><polygon class="cls-24" points="1190.83 581.93 1190.83 585.5 1224.22 604.45 1224.22 600.57 1190.83 581.93"/></g><g id="Doors-2" data-name="Doors"><polygon class="cls-8" points="1261.51 594.07 1261.51 718.36 1357.93 773.47 1357.93 648.27 1261.51 594.07"/><polygon class="cls-24" points="1279.18 633.83 1279.18 637.4 1336.86 671.14 1336.86 667.26 1279.18 633.83"/></g></g><g id="Books"><g id="Teal"><path id="Paper-3" data-name="Paper" class="cls-4" d="M1289,499.62l68.35-39.1a1.47,1.47,0,0,1,1.41,0l15.85,8.37a1.47,1.47,0,0,1,.07,2.56l-67.33,40.4a1.47,1.47,0,0,1-1.49,0L1289,502.16A1.46,1.46,0,0,1,1289,499.62Z"/><path id="Book_Cover" data-name="Book Cover" class="cls-16" d="M1309.47,574.09a1.47,1.47,0,0,1-2.17-1.3h0v.07a1.47,1.47,0,0,1-2.14,1.26l-20.66-10.72a1.46,1.46,0,0,1-.79-1.35l1.69-62.7.73-.44,70-41.52a1.47,1.47,0,0,1,2.22,1.26v.6a1.47,1.47,0,0,1-.73,1.27l-64.88,37.79a1.47,1.47,0,0,0-.57,1.94,12.27,12.27,0,0,0,4.09,4.36.07.07,0,0,1,.06,0,20.51,20.51,0,0,0,2.17,1.21,27.09,27.09,0,0,0,7.41,2.19,1.49,1.49,0,0,0,1-.18l68-40a1.46,1.46,0,0,1,2.21,1.26v1.47l0,0,1.61,64.77a1.46,1.46,0,0,1-.76,1.32Z"/></g><g id="Orange"><polygon id="Paper-4" data-name="Paper" class="cls-4" points="1310.85 512.72 1382.12 471.95 1400.97 481.91 1330.68 524.1 1310.85 512.72"/><path id="Book_Cover-2" data-name="Book Cover" class="cls-1" d="M1330.44,587.91v-2.49l-.07,2.41-21.14-11a4.31,4.31,0,0,1-2.34-4l1.64-60.9.74-.44,72.24-42.83v4l-66.72,38.87a11.11,11.11,0,0,0,4.64,5.65.08.08,0,0,1,.06,0,18.69,18.69,0,0,0,2.17,1.21,27.46,27.46,0,0,0,7.93,2.27l70.72-41.58v4l0,0,1.64,65.66Z"/></g><g id="Black"><polygon id="Paper-5" data-name="Paper" class="cls-4" points="1332.75 525.85 1404.02 485.08 1422.88 495.04 1352.58 537.23 1332.75 525.85"/><path id="Book_Cover-3" data-name="Book Cover" class="cls-17" d="M1353.34,600.34l0-2.49-.08,2.41L1329.73,588l1.72-63.62.73-.44,72.24-42.83v4L1337.7,524a11.21,11.21,0,0,0,4.64,5.65.05.05,0,0,1,.06,0,20.51,20.51,0,0,0,2.17,1.21,27.54,27.54,0,0,0,7.94,2.27l70.71-41.58v4l0,0,1.63,65.66Z"/></g></g></svg>