<?xml version="1.0" encoding="UTF-8"?><svg id="Layer_1" xmlns="http://www.w3.org/2000/svg" viewBox="0 0 388.08 111.94"><defs><style>.cls-1{fill:#fff;}</style></defs><path class="cls-1" d="m162.74,6.96c7.26-.59,13.78-1.69,19.87-6.96.3,2.54.62,4.02.62,5.5.04,23.37,0,46.75.11,70.12.01,2.28.36,4.8,1.37,6.78,2.17,4.22,6.52,4.06,8.67-.21.79-1.56,1.2-3.48,1.21-5.24.08-20.05.13-40.1-.07-60.15-.02-2.1-1.55-4.26-2.65-6.23-.69-1.22-1.9-2.15-3.58-3.99,3.49.19,5.98.42,8.48.44,7.3.08,14.65-.42,21.88.27,4.89.47,9.96,1.9,14.36,4.09,8.1,4.03,11.33,12.18,9.43,21.2-.7,3.31-.4,3.86,2.82,2.89,4.24-1.28,8.3-3.17,12.43-4.81.67-.27,1.3-.62,2.32-1.11.4,1.52.74,2.79,1.22,4.6,5.26-4.79,10.98-6.65,17.46-3.46,6.35,3.13,8.21,8.85,8.91,15.48.51-1.01,1.01-2.02,1.54-3.02,6.62-12.5,18.77-16.23,31.15-12.14,7.46,2.46,10.82,8.75,12.48,15.98,1.67,7.3,1.59,7.33-5.46,9.88-7.65,2.77-15.28,5.62-22.98,8.27-2.59.89-3.3,2.01-2.29,4.71,3.76,10.11,13.59,12.46,22.27,4.96,2.63-2.26,4.7-5.17,7.12-7.89,2.24.96,3.07,2.62,1.6,4.74-2.36,3.41-4.55,7.09-7.53,9.89-13.76,12.89-29.56,5.3-36.11-6.29-3.98-7.04-5.36-14.61-3.67-22.63.15-.69.2-1.4.38-2.72-2.9,2.44-5.42,4.3-8.99,3.45-5.94-1.41-8.75-8.09-5.32-13.16,1-1.47,2.49-3.21.67-4.4-1.25-.82-3.88-.79-5.22,0-4.25,2.53-6.39,6.84-6.51,11.57-.26,10.28-.3,20.6.28,30.86.17,3.02,2.72,5.9,4.28,9.06h-25.21c-.12-.28-.23-.56-.35-.83.6-.62,1.1-1.41,1.82-1.83,2.61-1.51,3.65-3.81,3.64-6.7-.03-10.93,0-21.87-.18-32.8-.03-1.71-.7-3.6-1.62-5.05-1.16-1.82-2.53-2.4-4.49-.15-6.92,7.95-16.32,10.13-26.35,10.56-.27.01-.55-.21-1.54-.61,1.68-.92,2.88-1.69,4.16-2.24,11.82-5.12,16.23-22.11,8.22-31.5-2.93-3.44-6.79-4.24-10.95-4.43-1.81-.09-2.41,1.02-2.41,2.66.05,21.01.15,42.01.08,63.02-.01,4.25,1.71,7.13,5.4,9.61-1.06.19-2.13.55-3.19.54-9.55-.09-19.1-.24-28.64-.37-.64,0-1.29-.08-1.93-.07-11.37.05-22.74,0-34.11.22-3.2.06-5.34-.37-5.08-4.19.03-.47-.3-.97-.62-1.93-1.45.89-2.7,1.58-3.88,2.39-6.77,4.65-13.91,5.08-20.93,1.03-9.19-5.31-8.9-18.34.4-23.48,2.79-1.54,5.94-2.45,8.88-3.73,3.92-1.7,7.84-3.44,11.71-5.25,2.67-1.25,3.49-3.44,3.23-6.34-.47-5.39-3.19-9.6-7.64-10.85-1.47-.41-3.2-.4-4.7-.06-3.45.79-3.92,2.19-2.11,5.28,2.53,4.32,2.38,7.68-.47,10.57-2.8,2.84-6.48,3.37-9.99,1.41-2.99-1.66-5.05-5.94-3.61-9.47,1.29-3.15,3.11-6.72,5.77-8.57,11.41-7.92,25.92-4.98,34.24,4.13,3.52,3.86,4.3,8.82,4.35,13.82.09,8.68.09,17.37-.1,26.05-.08,3.56,1.77,5.64,4.52,7.13.68.37,2.1.01,2.84-.5,2.78-1.92,3.83-4.75,3.8-8.08-.14-19.29-.31-38.59-.33-57.88,0-3.86-.55-7.24-3.96-9.61-.45-.31-.61-1.03-1.26-2.21Zm137.89,53.96c5.98-2.22,11.19-4.08,16.31-6.16.7-.28,1.37-1.71,1.31-2.55-.27-3.73-.62-7.48-1.3-11.15-.57-3.04-1.95-5.94-5.46-6.39-3.42-.44-5.53,1.8-7.09,4.58-3.69,6.54-3.46,13.71-3.78,21.67Zm-158.79,3.47h.04c0-1.82.05-3.64-.01-5.46-.1-2.95-1.05-3.53-3.54-1.84-3.18,2.16-6.28,4.48-9.2,6.99-2.7,2.32-3.55,5.56-3.21,9.03.37,3.79,2.45,5.73,6.23,6.11,4.45.44,9.33-3.74,9.67-8.41.15-2.13.03-4.28.03-6.42Z"/><path class="cls-1" d="m0,86.88c.61-.97.81-1.65,1.27-1.97,3.6-2.49,3.72-6.09,3.71-9.99-.03-17.68.08-35.36.2-53.04.03-4.77.3-9.53-4.21-12.8-.34-.25-.39-.9-.69-1.66.93-.15,1.61-.36,2.3-.36,6.97.05,13.96.46,20.92.13,15.56-.75,30.61,10.75,34.54,24.76,4.55,16.24,2.51,31.16-7.98,44.59-5.89,7.54-14.06,10.73-23.35,11.07-7.7.28-15.43.07-23.14,0-1.07,0-2.14-.43-3.57-.73Zm20.27-39.6s-.04,0-.06,0c0,10.6.08,21.21-.05,31.81-.03,2.89,1.24,3.85,3.84,3.82,6.31-.08,11.06-2.77,14.4-8.16,6.26-10.1,6.97-21.22,6.04-32.59-.64-7.8-1.63-15.55-6.05-22.41-3.4-5.28-7.8-8.29-14.31-8.17-2.91.05-3.91.88-3.87,3.87.16,10.61.06,21.22.06,31.83Z"/><path class="cls-1" d="m352.65,83.84c0,1.42,0,2.64,0,3.86,0,4.61.06,9.22-.06,13.82-.08,3.15.45,5.93,3.16,7.97.71.53,1.18,1.37,2.09,2.46h-26.25c1.04-1.37,1.62-2.57,2.57-3.29,2.3-1.73,2.96-3.89,2.94-6.69-.09-18-.11-36,.01-54.01.03-3.75-.38-7.02-3.75-9.3-.56-.38-.87-1.13-1.7-2.27,1.7-.35,3-.51,4.23-.9,4.13-1.31,8.43-2.29,12.29-4.18,3.23-1.59,3.62-1.8,4.13,1.88.04.31.14.61.26,1.11.42-.09.93-.04,1.14-.27,7.13-7.7,19.86-4.6,26.34,2.57,10.48,11.58,10.73,33.33.37,44.05-7.73,7.99-16.29,9.04-27.8,3.18Zm-.13-24.33s.1,0,.15,0c0,4.4-.13,8.8.08,13.18.06,1.31.77,3.02,1.77,3.78,5.99,4.54,12.48,3.29,15.37-3.55,4.29-10.15,4.13-20.49-1.21-30.36-2.01-3.72-5.7-5.04-9.27-3.92-4.2,1.32-6.97,5-6.9,8.98.07,3.96.01,7.93.01,11.9Z"/><path class="cls-1" d="m108.17,67.34c.13,1.34.78,2.89.32,3.98-3.71,8.76-13.11,17.37-23.91,16.34-8.5-.81-15.11-5.04-19.38-12.22-6.95-11.7-4.67-31.95,7.2-40.99,11.29-8.61,31.91-5.73,35.52,11.33,2.19,10.35.8,8.63-5.8,10.89-7.6,2.61-15.07,5.61-22.64,8.32-2.39.86-2.88,2.03-1.87,4.35,3.75,8.58,10.6,12.38,17.43,8.7,3.84-2.07,6.9-5.59,10.25-8.53.68-.6,1.11-1.49,1.65-2.24l1.23.08Zm-32.01-12.29c-.21,5.87.18,6.19,4.96,4.58,3.45-1.16,6.82-2.57,10.3-3.66,2.16-.67,3-2.06,2.73-4.07-.55-4.13-1.12-8.26-1.99-12.33-.53-2.5-1.97-4.68-4.85-4.92-2.81-.24-4.83,1.17-6.37,3.54-3.51,5.44-3.96,11.67-4.78,16.86Z"/></svg>