<svg id="Layer_13" data-name="Layer 13" xmlns="http://www.w3.org/2000/svg" viewBox="0 100 1280 800"><defs><style>.cls-1{fill:#ffcca9;}.cls-2{fill:#514342;}.cls-3{fill:#b75e55;}.cls-4{fill:#f9d9b2;}.cls-5{fill:#ffecd2;}.cls-6{fill:#60564f;}.cls-7{fill:#fab464;}.cls-16,.cls-7{isolation:isolate;}.cls-8{fill:#7ff1eb;}.cls-9{fill:#ffb685;}.cls-10{fill:#d86a4c;}.cls-11{fill:#8e4b42;}.cls-12{fill:#3a3e51;}.cls-13,.cls-14,.cls-16,.cls-21{fill:none;stroke-miterlimit:10;}.cls-13{stroke:#3a3e51;}.cls-13,.cls-21{stroke-width:2px;}.cls-14{stroke:#eef5ff;}.cls-14,.cls-16{stroke-linecap:round;stroke-width:3px;}.cls-15{fill:#fff4e6;}.cls-16{stroke:#fab464;}.cls-17{fill:#ffb54a;}.cls-18{fill:#f9880d;}.cls-19{fill:#f8fffb;}.cls-20{fill:#d8d8d8;}.cls-21{stroke:#7ff1eb;}</style></defs><path class="cls-1" d="M603.88,839.65C753.11,836.39,833,795.1,982.26,791.84c15.34-.34,31-.75,45.34-6.85s27.1-19.15,29.28-35.75c3.7-28.26-23.31-52.78-20.81-81.19,3.19-36.29,49.91-50.28,58.8-85.41,6.29-24.83-8.89-49.83-25.25-68.37s-35.71-36.6-40.76-61.77c-8.73-43.54,28.61-80.66,40.83-123.19,8.45-29.4,4.09-62.88-11.53-88.53S1016,197.81,987.9,195c-48.3-4.84-95.57,30.74-143.14,20.44-38.1-8.25-68.2-44.66-106.87-48.56-45.51-4.59-83.26,36.49-126.72,51.95-52,18.5-108.33-.83-159.43-22S346.87,151.89,293,162.05c-60,11.3-110.23,68.43-118.25,134.37-7.95,65.36,58.7,117.83,2,196.3C159,517.24,147.2,551.39,155,581.45c7.61,29.21,40,47.69,40.26,78.06.19,24-20.49,43.06-22.16,67C171.71,747,185.21,766,201.8,775.7s35.84,12.11,54.55,14.31"/><path class="cls-2" d="M577.84,688.42l-136.13,74L613,862.32,719.3,803.38l39.83-10.89,30.58-17.12,120.15-67.64L732,596.52s-105.48,55.05-117.14,75.2l-23.56,15.83Z"/><path class="cls-2" d="M389.78,722.18v21.67a2,2,0,0,0,2.94,1.76l47.83-25.44a2,2,0,0,0,1.06-1.77V695.2a2,2,0,0,0-3-1.75l-47.83,27A2,2,0,0,0,389.78,722.18Z"/><polygon class="cls-3" points="457.93 759.86 611.04 849.17 705.67 796.32 753.77 785.98 579.64 693.68 457.93 759.86"/><polygon class="cls-4" points="513.34 741.09 613.09 803.38 681.85 765.3 582.45 701.6 513.34 741.09"/><polygon class="cls-5" points="539.38 184.12 445.08 239.94 445.08 572.6 539.38 519.73 539.38 184.12"/><path class="cls-2" d="M458.46,551.89l70.9-40.6a2,2,0,0,0,1-1.74V213.08a2,2,0,0,0-3-1.73L456.47,252a2,2,0,0,0-1,1.73V550.15A2,2,0,0,0,458.46,551.89Z"/><polygon class="cls-6" points="444.4 239.94 539.38 184.12 467.89 143.6 371.55 197.05 444.4 239.94"/><polygon class="cls-2" points="445.08 572.6 445.08 239.02 371.55 196.13 373.94 532.67 445.08 572.6"/><path class="cls-7" d="M464.74,374.24l58.85-32.94a2,2,0,0,0,1-1.74V322a2,2,0,0,0-3-1.75l-58.85,32.94a2,2,0,0,0-1,1.74v17.54A2,2,0,0,0,464.74,374.24Z"/><path class="cls-7" d="M464.74,405.34l58.85-32.93a2,2,0,0,0,1-1.75V353.12a2,2,0,0,0-3-1.74l-58.85,32.93a2,2,0,0,0-1,1.74v17.54A2,2,0,0,0,464.74,405.34Z"/><polygon class="cls-8" points="490.6 352.16 520.88 334.82 520.88 328.52 490.6 345.85 490.6 352.16"/><polygon class="cls-8" points="482.2 356.18 487.11 353.3 487.11 348.5 482.2 351.38 482.2 356.18"/><polygon class="cls-8" points="473.89 361.01 478.8 358.13 478.8 353.33 473.89 356.21 473.89 361.01"/><polygon class="cls-8" points="465.55 365.49 470.46 362.61 470.46 357.81 465.55 360.69 465.55 365.49"/><path class="cls-7" d="M464.74,343.25l58.85-32.93a2,2,0,0,0,1-1.75V291a2,2,0,0,0-3-1.74l-58.85,32.93a2,2,0,0,0-1,1.75V341.5A2,2,0,0,0,464.74,343.25Z"/><polygon class="cls-8" points="490.6 321.17 520.88 303.84 520.88 297.53 490.6 314.86 490.6 321.17"/><path class="cls-7" d="M464.74,310.93,523.59,278a2,2,0,0,0,1-1.74V258.71a2,2,0,0,0-3-1.74L462.79,289.9a2,2,0,0,0-1,1.74v17.54A2,2,0,0,0,464.74,310.93Z"/><polygon class="cls-8" points="490.6 288.85 520.88 271.51 520.88 265.21 490.6 282.54 490.6 288.85"/><polygon class="cls-8" points="482.2 325.2 487.11 322.32 487.11 317.52 482.2 320.4 482.2 325.2"/><path class="cls-7" d="M464.74,278.79l58.85-32.94a2,2,0,0,0,1-1.74V226.57a2,2,0,0,0-3-1.74l-58.85,32.93a2,2,0,0,0-1,1.74V277A2,2,0,0,0,464.74,278.79Z"/><polygon class="cls-8" points="490.6 256.71 520.88 239.38 520.88 233.07 490.6 250.4 490.6 256.71"/><polygon class="cls-8" points="473.89 330.02 478.8 327.14 478.8 322.34 473.89 325.22 473.89 330.02"/><polygon class="cls-8" points="465.55 334.5 470.46 331.63 470.46 326.83 465.55 329.71 465.55 334.5"/><polygon class="cls-8" points="482.2 292.96 487.11 290.09 487.11 285.29 482.2 288.17 482.2 292.96"/><polygon class="cls-8" points="473.89 297.79 478.8 294.91 478.8 290.11 473.89 292.99 473.89 297.79"/><polygon class="cls-8" points="465.55 302.27 470.46 299.39 470.46 294.6 465.55 297.48 465.55 302.27"/><polygon class="cls-8" points="482.2 260.2 487.11 257.32 487.11 252.53 482.2 255.4 482.2 260.2"/><polygon class="cls-8" points="473.89 265.03 478.8 262.15 478.8 257.35 473.89 260.23 473.89 265.03"/><polygon class="cls-8" points="465.55 269.51 470.46 266.63 470.46 261.83 465.55 264.71 465.55 269.51"/><polygon class="cls-8" points="490.6 383.8 520.88 366.46 520.88 360.16 490.6 377.49 490.6 383.8"/><polygon class="cls-8" points="482.2 387.82 487.11 384.94 487.11 380.15 482.2 383.03 482.2 387.82"/><polygon class="cls-8" points="473.89 392.65 478.8 389.77 478.8 384.97 473.89 387.85 473.89 392.65"/><polygon class="cls-8" points="465.55 397.13 470.46 394.25 470.46 389.45 465.55 392.33 465.55 397.13"/><path class="cls-7" d="M464.74,529.55l58.85-32.93a2,2,0,0,0,1-1.75V477.33a2,2,0,0,0-3-1.74l-58.85,32.93a2,2,0,0,0-1,1.74V527.8A2,2,0,0,0,464.74,529.55Z"/><polygon class="cls-8" points="490.6 507.47 520.88 490.14 520.88 483.83 490.6 501.16 490.6 507.47"/><polygon class="cls-8" points="482.2 511.5 487.11 508.62 487.11 503.82 482.2 506.7 482.2 511.5"/><polygon class="cls-8" points="473.89 516.32 478.8 513.44 478.8 508.64 473.89 511.52 473.89 516.32"/><polygon class="cls-8" points="465.55 520.8 470.46 517.92 470.46 513.13 465.55 516.01 465.55 520.8"/><path class="cls-7" d="M483.51,447.74l24-13.59a1,1,0,0,0,.5-.87v-1.79a1,1,0,0,0-1.49-.87l-24,13.58a1,1,0,0,0-.51.87v1.8A1,1,0,0,0,483.51,447.74Z"/><path class="cls-3" d="M455.47,453.52l74.28-42.83a1.21,1.21,0,0,0,.61-1.07V385.28a1.19,1.19,0,0,0-1.77-1.07l-73.12,42.15Z"/><path class="cls-9" d="M455.74,430.29l74.43-43.18v-1.63c0-.94-.51-1.53-1.31-1.07l-73.12,42.15Z"/><path class="cls-3" d="M455.47,502.61l74.28-42.82a1.23,1.23,0,0,0,.61-1.07V434.37a1.19,1.19,0,0,0-1.77-1.07l-73.12,42.16Z"/><polygon class="cls-8" points="528.45 390.61 516.52 397.76 516.52 414.47 528.6 407.49 528.45 390.61"/><polygon class="cls-8" points="513.94 399.12 502.01 406.27 502.01 422.98 514.1 416 513.94 399.12"/><polygon class="cls-8" points="499.07 407.71 487.15 414.87 487.15 431.57 499.23 424.59 499.07 407.71"/><polygon class="cls-8" points="484.2 416.39 472.28 423.55 472.28 440.25 484.36 433.27 484.2 416.39"/><polygon class="cls-8" points="470 424.82 458.08 431.97 458.08 448.67 470.16 441.7 470 424.82"/><polygon class="cls-8" points="528.3 437.33 516.37 444.49 516.37 461.19 528.45 454.21 528.3 437.33"/><polygon class="cls-8" points="513.79 445.84 501.86 453 501.86 469.7 513.95 462.73 513.79 445.84"/><polygon class="cls-8" points="498.93 454.43 487 461.59 487 478.29 499.08 471.31 498.93 454.43"/><polygon class="cls-8" points="484.05 463.12 472.13 470.27 472.13 486.97 484.21 480 484.05 463.12"/><polygon class="cls-8" points="469.86 471.54 457.93 478.7 457.93 495.4 470.01 488.42 469.86 471.54"/><polygon class="cls-5" points="672.15 178.36 766.45 234.19 766.45 566.84 672.15 513.97 672.15 178.36"/><path class="cls-2" d="M753.07,546.13l-70.9-40.6a2,2,0,0,1-1-1.74V207.32a2,2,0,0,1,3-1.73l70.9,40.6a2,2,0,0,1,1,1.74V544.4A2,2,0,0,1,753.07,546.13Z"/><polygon class="cls-6" points="767.13 234.19 672.15 178.36 743.64 137.85 839.98 191.29 767.13 234.19"/><polygon class="cls-2" points="766.45 566.84 766.45 233.26 839.98 190.37 837.59 526.91 766.45 566.84"/><path class="cls-7" d="M746.79,368.48l-58.85-32.93a2,2,0,0,1-1-1.75V316.26a2,2,0,0,1,3-1.74l58.85,32.93a2,2,0,0,1,1,1.74v17.54A2,2,0,0,1,746.79,368.48Z"/><path class="cls-7" d="M746.79,399.58l-58.85-32.93a2,2,0,0,1-1-1.75V347.36a2,2,0,0,1,3-1.74l58.85,32.93a2,2,0,0,1,1,1.75v17.53A2,2,0,0,1,746.79,399.58Z"/><polygon class="cls-8" points="720.93 346.4 690.65 329.07 690.65 322.76 720.93 340.09 720.93 346.4"/><polygon class="cls-8" points="729.33 350.42 724.42 347.55 724.42 342.75 729.33 345.63 729.33 350.42"/><polygon class="cls-8" points="737.64 355.25 732.73 352.37 732.73 347.57 737.64 350.45 737.64 355.25"/><polygon class="cls-8" points="745.98 359.73 741.07 356.85 741.07 352.06 745.98 354.94 745.98 359.73"/><path class="cls-7" d="M746.79,337.49l-58.85-32.93a2,2,0,0,1-1-1.75V285.28a2,2,0,0,1,3-1.75l58.85,32.93a2,2,0,0,1,1,1.75v17.54A2,2,0,0,1,746.79,337.49Z"/><polygon class="cls-8" points="720.93 315.41 690.65 298.08 690.65 291.77 720.93 309.11 720.93 315.41"/><path class="cls-7" d="M746.79,305.17l-58.85-32.93a2,2,0,0,1-1-1.75V253a2,2,0,0,1,3-1.74l58.85,32.93a2,2,0,0,1,1,1.74v17.54A2,2,0,0,1,746.79,305.17Z"/><polygon class="cls-8" points="720.93 283.09 690.65 265.76 690.65 259.45 720.93 276.78 720.93 283.09"/><polygon class="cls-8" points="729.33 319.44 724.42 316.56 724.42 311.76 729.33 314.64 729.33 319.44"/><path class="cls-7" d="M746.79,273,687.94,240.1a2,2,0,0,1-1-1.75V220.81a2,2,0,0,1,3-1.74L748.74,252a2,2,0,0,1,1,1.75v17.53A2,2,0,0,1,746.79,273Z"/><polygon class="cls-8" points="720.93 250.95 690.65 233.62 690.65 227.31 720.93 244.64 720.93 250.95"/><polygon class="cls-8" points="737.64 324.26 732.73 321.38 732.73 316.59 737.64 319.47 737.64 324.26"/><polygon class="cls-8" points="745.98 328.75 741.07 325.87 741.07 321.07 745.98 323.95 745.98 328.75"/><polygon class="cls-8" points="729.33 287.21 724.42 284.33 724.42 279.53 729.33 282.41 729.33 287.21"/><polygon class="cls-8" points="737.64 292.03 732.73 289.15 732.73 284.35 737.64 287.23 737.64 292.03"/><polygon class="cls-8" points="745.98 296.52 741.07 293.64 741.07 288.84 745.98 291.72 745.98 296.52"/><polygon class="cls-8" points="729.33 254.44 724.42 251.56 724.42 246.77 729.33 249.65 729.33 254.44"/><polygon class="cls-8" points="737.64 259.27 732.73 256.39 732.73 251.59 737.64 254.47 737.64 259.27"/><polygon class="cls-8" points="745.98 263.75 741.07 260.87 741.07 256.08 745.98 258.95 745.98 263.75"/><polygon class="cls-8" points="720.93 378.04 690.65 360.71 690.65 354.4 720.93 371.73 720.93 378.04"/><polygon class="cls-8" points="729.33 382.06 724.42 379.19 724.42 374.39 729.33 377.27 729.33 382.06"/><polygon class="cls-8" points="737.64 386.89 732.73 384.01 732.73 379.21 737.64 382.09 737.64 386.89"/><polygon class="cls-8" points="745.98 391.37 741.07 388.49 741.07 383.7 745.98 386.58 745.98 391.37"/><path class="cls-7" d="M746.79,523.79l-58.85-32.93a2,2,0,0,1-1-1.75V471.57a2,2,0,0,1,3-1.74l58.85,32.93a2,2,0,0,1,1,1.75V522A2,2,0,0,1,746.79,523.79Z"/><polygon class="cls-8" points="720.93 501.71 690.65 484.38 690.65 478.07 720.93 495.4 720.93 501.71"/><polygon class="cls-8" points="729.33 505.74 724.42 502.86 724.42 498.06 729.33 500.94 729.33 505.74"/><polygon class="cls-8" points="737.64 510.56 732.73 507.68 732.73 502.88 737.64 505.76 737.64 510.56"/><polygon class="cls-8" points="745.98 515.05 741.07 512.17 741.07 507.37 745.98 510.25 745.98 515.05"/><path class="cls-7" d="M728,442,704,428.4a1,1,0,0,1-.5-.87v-1.8a1,1,0,0,1,1.49-.87l24,13.58a1,1,0,0,1,.51.87v1.8A1,1,0,0,1,728,442Z"/><path class="cls-3" d="M756.06,447.76l-74.28-42.82a1.24,1.24,0,0,1-.61-1.08V379.52a1.19,1.19,0,0,1,1.77-1.07l73.12,42.15Z"/><path class="cls-9" d="M755.79,424.53l-74.43-43.18v-1.63c0-.94.51-1.53,1.31-1.07l73.12,42.15Z"/><path class="cls-3" d="M756.06,496.86,681.78,454a1.23,1.23,0,0,1-.61-1.07V428.62a1.2,1.2,0,0,1,1.77-1.08l73.12,42.16Z"/><polygon class="cls-8" points="683.09 384.85 695.01 392.01 695.01 408.71 682.93 401.73 683.09 384.85"/><polygon class="cls-8" points="697.59 393.36 709.52 400.52 709.52 417.22 697.43 410.24 697.59 393.36"/><polygon class="cls-8" points="712.46 401.95 724.38 409.11 724.38 425.81 712.3 418.83 712.46 401.95"/><polygon class="cls-8" points="727.33 410.63 739.25 417.79 739.25 434.49 727.17 427.51 727.33 410.63"/><polygon class="cls-8" points="741.53 419.06 753.45 426.21 753.45 442.92 741.37 435.94 741.53 419.06"/><polygon class="cls-8" points="683.23 431.57 695.16 438.73 695.16 455.43 683.08 448.46 683.23 431.57"/><polygon class="cls-8" points="697.74 440.08 709.67 447.24 709.67 463.94 697.58 456.97 697.74 440.08"/><polygon class="cls-8" points="712.6 448.68 724.53 455.83 724.53 472.53 712.45 465.56 712.6 448.68"/><polygon class="cls-8" points="727.48 457.36 739.4 464.51 739.4 481.21 727.32 474.24 727.48 457.36"/><polygon class="cls-8" points="741.67 465.78 753.6 472.94 753.6 489.64 741.52 482.66 741.67 465.78"/><polygon class="cls-5" points="423.64 350.44 329.34 406.27 329.34 642.29 423.64 589.42 423.64 350.44"/><path class="cls-2" d="M342.72,621.58,413.61,581a2,2,0,0,0,1-1.74V379.08a2,2,0,0,0-3-1.73L340.73,418a2,2,0,0,0-1,1.74V619.84A2,2,0,0,0,342.72,621.58Z"/><polygon class="cls-10" points="328.66 406.27 423.64 350.44 352.15 309.93 255.81 363.38 328.66 406.27"/><polygon class="cls-11" points="329.34 642.29 329.34 406.27 255.81 363.38 258.19 602.36 329.34 642.29"/><path class="cls-7" d="M349,443.93,407.85,411a2,2,0,0,0,1-1.74V391.71a2,2,0,0,0-3-1.75L347,422.9a2,2,0,0,0-1,1.74v17.54A2,2,0,0,0,349,443.93Z"/><polygon class="cls-8" points="374.86 421.85 405.13 404.51 405.13 398.21 374.86 415.54 374.86 421.85"/><polygon class="cls-8" points="366.46 425.87 371.37 422.99 371.37 418.19 366.46 421.07 366.46 425.87"/><polygon class="cls-8" points="358.14 430.7 363.05 427.82 363.05 423.02 358.14 425.9 358.14 430.7"/><polygon class="cls-8" points="349.8 435.18 354.71 432.3 354.71 427.5 349.8 430.38 349.8 435.18"/><path class="cls-7" d="M349,475.57l58.85-32.94a2,2,0,0,0,1-1.74V423.35a2,2,0,0,0-3-1.74L347,454.54a2,2,0,0,0-1,1.74v17.54A2,2,0,0,0,349,475.57Z"/><polygon class="cls-8" points="374.86 453.49 405.13 436.15 405.13 429.85 374.86 447.18 374.86 453.49"/><polygon class="cls-8" points="366.46 457.51 371.37 454.63 371.37 449.84 366.46 452.72 366.46 457.51"/><polygon class="cls-8" points="358.14 462.34 363.05 459.46 363.05 454.66 358.14 457.54 358.14 462.34"/><polygon class="cls-8" points="349.8 466.82 354.71 463.94 354.71 459.14 349.8 462.02 349.8 466.82"/><path class="cls-7" d="M349,599.24l58.85-32.93a2,2,0,0,0,1-1.75V547a2,2,0,0,0-3-1.74L347,578.21a2,2,0,0,0-1,1.74v17.54A2,2,0,0,0,349,599.24Z"/><polygon class="cls-8" points="374.86 577.16 405.13 559.83 405.13 553.52 374.86 570.85 374.86 577.16"/><polygon class="cls-8" points="366.46 581.18 371.37 578.3 371.37 573.51 366.46 576.39 366.46 581.18"/><polygon class="cls-8" points="358.14 586.01 363.05 583.13 363.05 578.33 358.14 581.21 358.14 586.01"/><polygon class="cls-8" points="349.8 590.49 354.71 587.61 354.71 582.82 349.8 585.7 349.8 590.49"/><path class="cls-7" d="M367.77,517.43l24-13.59a1,1,0,0,0,.51-.87v-1.79a1,1,0,0,0-1.49-.87l-24,13.58a1,1,0,0,0-.5.87v1.8A1,1,0,0,0,367.77,517.43Z"/><path class="cls-3" d="M339.72,523.21,414,480.38a1.23,1.23,0,0,0,.61-1.07V455a1.19,1.19,0,0,0-1.78-1.07l-73.12,42.15Z"/><path class="cls-9" d="M340,500l74.43-43.18v-1.63c0-.94-.52-1.53-1.31-1.07L340,496.25Z"/><path class="cls-3" d="M339.72,572.3,414,529.48a1.26,1.26,0,0,0,.61-1.07V504.06a1.2,1.2,0,0,0-1.78-1.07l-73.12,42.16Z"/><polygon class="cls-8" points="412.7 460.3 400.77 467.45 400.77 484.16 412.86 477.18 412.7 460.3"/><polygon class="cls-8" points="398.19 468.81 386.27 475.96 386.27 492.67 398.35 485.69 398.19 468.81"/><polygon class="cls-8" points="383.33 477.4 371.4 484.56 371.4 501.26 383.49 494.28 383.33 477.4"/><polygon class="cls-8" points="368.46 486.08 356.53 493.24 356.53 509.94 368.61 502.96 368.46 486.08"/><polygon class="cls-8" points="354.26 494.51 342.33 501.66 342.33 518.36 354.42 511.39 354.26 494.51"/><polygon class="cls-8" points="412.55 507.02 400.63 514.18 400.63 530.88 412.71 523.9 412.55 507.02"/><polygon class="cls-8" points="398.05 515.53 386.12 522.69 386.12 539.39 398.2 532.41 398.05 515.53"/><polygon class="cls-8" points="383.18 524.12 371.25 531.28 371.25 547.98 383.34 541 383.18 524.12"/><polygon class="cls-8" points="368.31 532.8 356.38 539.96 356.38 556.66 368.46 549.69 368.31 532.8"/><polygon class="cls-8" points="354.11 541.23 342.18 548.39 342.18 565.09 354.27 558.11 354.11 541.23"/><g id="machine"><polygon class="cls-5" points="802.33 337.22 896.63 393.05 896.63 629.07 802.33 576.2 802.33 337.22"/><path class="cls-2" d="M883.25,608.36l-70.89-40.6a2,2,0,0,1-1-1.74V365.87a2,2,0,0,1,3-1.74l70.89,40.6a2,2,0,0,1,1,1.74V606.62A2,2,0,0,1,883.25,608.36Z"/><polygon class="cls-10" points="897.31 393.05 802.33 337.22 873.82 296.71 970.16 350.16 897.31 393.05"/><polygon class="cls-11" points="896.63 629.07 896.63 393.05 970.16 350.16 967.78 589.14 896.63 629.07"/><path class="cls-7" d="M877,430.71l-58.85-32.94a2,2,0,0,1-1-1.74V378.49a2,2,0,0,1,3-1.74l58.85,32.93a2,2,0,0,1,1,1.74V429A2,2,0,0,1,877,430.71Z"/><polygon class="cls-8" points="851.11 408.63 820.84 391.3 820.84 384.99 851.11 402.32 851.11 408.63"/><polygon class="cls-8" points="859.51 412.65 854.6 409.77 854.6 404.98 859.51 407.86 859.51 412.65"/><polygon class="cls-8" points="867.83 417.48 862.92 414.6 862.92 409.8 867.83 412.68 867.83 417.48"/><polygon class="cls-8" points="876.17 421.96 871.26 419.08 871.26 414.29 876.17 417.17 876.17 421.96"/><path class="cls-7" d="M877,462.35l-58.85-32.93a2,2,0,0,1-1-1.75V410.13a2,2,0,0,1,3-1.74l58.85,32.93a2,2,0,0,1,1,1.74V460.6A2,2,0,0,1,877,462.35Z"/><polygon class="cls-8" points="851.11 440.27 820.84 422.94 820.84 416.63 851.11 433.96 851.11 440.27"/><polygon class="cls-8" points="859.51 444.3 854.6 441.42 854.6 436.62 859.51 439.5 859.51 444.3"/><polygon class="cls-8" points="867.83 449.12 862.92 446.24 862.92 441.44 867.83 444.32 867.83 449.12"/><polygon class="cls-8" points="876.17 453.6 871.26 450.72 871.26 445.93 876.17 448.81 876.17 453.6"/><path class="cls-7" d="M858.2,504.21l-24-13.58a1,1,0,0,1-.51-.87V488a1,1,0,0,1,1.49-.87l24,13.58a1,1,0,0,1,.5.87v1.8A1,1,0,0,1,858.2,504.21Z"/><path class="cls-3" d="M886.25,510,812,467.16a1.23,1.23,0,0,1-.61-1.07V441.75a1.19,1.19,0,0,1,1.78-1.07l73.12,42.15Z"/><path class="cls-9" d="M886,486.76l-74.42-43.18V442c0-.94.51-1.53,1.3-1.07L886,483Z"/><path class="cls-3" d="M886.25,559.08,812,516.26a1.26,1.26,0,0,1-.61-1.07V490.84a1.2,1.2,0,0,1,1.78-1.07l73.12,42.16Z"/><polygon class="cls-8" points="813.27 447.08 825.2 454.24 825.2 470.94 813.12 463.96 813.27 447.08"/><polygon class="cls-8" points="827.78 455.59 839.7 462.75 839.7 479.45 827.62 472.47 827.78 455.59"/><polygon class="cls-8" points="842.64 464.18 854.57 471.34 854.57 488.04 842.48 481.06 842.64 464.18"/><polygon class="cls-8" points="857.51 472.86 869.44 480.02 869.44 496.72 857.36 489.74 857.51 472.86"/><polygon class="cls-8" points="871.71 481.29 883.64 488.44 883.64 505.14 871.56 498.17 871.71 481.29"/><polygon class="cls-8" points="813.42 493.8 825.35 500.96 825.35 517.66 813.26 510.69 813.42 493.8"/><polygon class="cls-8" points="827.93 502.31 839.85 509.47 839.85 526.17 827.77 519.2 827.93 502.31"/><polygon class="cls-8" points="842.79 510.9 854.72 518.06 854.72 534.76 842.63 527.79 842.79 510.9"/><polygon class="cls-8" points="857.66 519.59 869.59 526.74 869.59 543.44 857.51 536.47 857.66 519.59"/><polygon class="cls-8" points="871.86 528.01 883.79 535.17 883.79 551.87 871.71 544.89 871.86 528.01"/><polygon class="cls-7" points="875.99 587.18 819.41 554.36 819.41 532.24 875.99 565.06 875.99 587.18"/><polygon class="cls-12" points="760.07 572.54 760.07 577.31 816.92 609.99 878.54 575.27 878.54 571.86 819.41 537.9 760.07 572.54"/><polygon class="cls-12" points="760.07 587.11 816.92 619.99 816.92 624.55 760.07 592.29 760.07 587.11"/><polygon class="cls-10" points="762.5 588.51 762.5 578.71 816.92 609.99 816.92 619.99 762.5 588.51"/><polygon class="cls-3" points="875.99 587.18 875.99 576.66 816.92 609.99 816.92 619.99 875.99 587.18"/><polygon class="cls-12" points="762.5 578.4 819.41 544.54 875.99 576.66 816.92 609.99 762.5 578.4"/><path class="cls-7" d="M780.89,576.49l35.57,21.41a2,2,0,0,0,2.12,0l12.13-7.93a2,2,0,0,0-.05-3.38l-34.58-21.14a2,2,0,0,0-2.06,0l-13.1,7.65A2,2,0,0,0,780.89,576.49Z"/><path class="cls-7" d="M803.55,563.24l35.57,21.41a2,2,0,0,0,2.12,0l12.13-7.93a2,2,0,0,0,0-3.38l-34.59-21.14a2,2,0,0,0-2.05,0l-13.11,7.65A2,2,0,0,0,803.55,563.24Z"/><path class="cls-12" d="M877.52,585.52,816.92,620v4.57l60.93-34.34a1,1,0,0,0,.51-.9l-.09-3.38A.5.5,0,0,0,877.52,585.52Z"/><polygon class="cls-8" points="818.11 594.13 786.22 574.47 789.19 572.74 820.94 592.05 818.11 594.13"/><polygon class="cls-8" points="839.77 580.73 820.65 568.89 823.62 567.16 842.59 578.66 839.77 580.73"/><polygon class="cls-8" points="822.66 566.33 819.68 568.08 816.64 565.96 819.57 564.29 822.66 566.33"/></g><polygon class="cls-13" points="886.79 582.66 825.17 615.94 825.17 620.5 886.79 585.78 886.79 582.66"/><path class="cls-7" d="M298.76,645.35V729a2,2,0,0,0,3,1.75L401.9,675.28a2,2,0,0,0,1-1.75V590.37a2,2,0,0,0-3-1.76l-100.17,55A2,2,0,0,0,298.76,645.35Z"/><path class="cls-3" d="M447.13,506.44v187a2,2,0,0,0,3,1.73l106.35-61.57a2,2,0,0,0,1-1.73V445.37a2,2,0,0,0-3-1.73L448.13,504.7A2,2,0,0,0,447.13,506.44Z"/><path class="cls-2" d="M310.71,654.24l1,56.47a2,2,0,0,0,3,1.71l78.19-43.18a2,2,0,0,0,1-1.76V609.27a2,2,0,0,0-3-1.74l-79.19,44.94A2,2,0,0,0,310.71,654.24Z"/><polygon class="cls-12" points="651.41 554.12 651.41 588.09 673.12 575.65 673.12 542.35 651.41 554.12"/><path class="cls-4" d="M579.64,693.68s12.83,2.23,28.66-5.42l149.78,91.08s-1,0-4.31,6.64Z"/><polyline class="cls-7" points="609.51 689.34 758.09 779.34 770.68 772.88 620.81 679.41 606.17 689.34"/><path class="cls-10" d="M621.26,680.15s-.35-4.43,5.44-8.51,102-61.65,102-61.65l162.14,96L783,769a115.46,115.46,0,0,1-12.27,3.88Z"/><path class="cls-14" d="M641.62,712.58a19.3,19.3,0,1,1,11.7-11.35"/><path class="cls-14" d="M676,735.61a19.35,19.35,0,1,1,11.7-11.35"/><path class="cls-14" d="M720.78,759.4a19.27,19.27,0,1,1,12.9-16.51,19.68,19.68,0,0,1-1.2,5.16"/><polygon class="cls-15" points="513.34 719.64 613.09 781.94 681.85 743.86 582.45 680.15 513.34 719.64"/><polygon class="cls-15" points="423.38 770.53 459.13 794.41 527.89 756.33 492.49 731.04 423.38 770.53"/><polygon class="cls-7" points="445.14 768.29 449.56 771.5 499.58 741.45 495.37 738.19 445.14 768.29"/><polygon class="cls-7" points="452.59 774 457.01 777.2 487.31 758.1 483.1 754.84 452.59 774"/><polygon class="cls-4" points="674.87 655.46 774.62 717.76 843.38 679.68 743.98 615.97 674.87 655.46"/><path class="cls-12" d="M454.05,515.9V675.63A2,2,0,0,0,457,677.4l92.56-51.06a2,2,0,0,0,1-1.75V462.3a2,2,0,0,0-3-1.73l-92.51,53.6A2,2,0,0,0,454.05,515.9Z"/><path class="cls-2" d="M257.91,791.16v21.66a2,2,0,0,0,2.94,1.77l47.83-25.45a2,2,0,0,0,1.06-1.76V764.17a2,2,0,0,0-3-1.74l-47.82,27A2,2,0,0,0,257.91,791.16Z"/><path class="cls-2" d="M324.93,757.42v21.66a2,2,0,0,0,2.94,1.77L375.7,755.4a2,2,0,0,0,1.06-1.77v-23.2a2,2,0,0,0-3-1.74l-47.83,27A2,2,0,0,0,324.93,757.42Z"/><polygon class="cls-8" points="469.77 530.88 469.77 539.39 528.66 507.37 528.66 498.06 469.77 530.88"/><polygon class="cls-8" points="579.48 478.06 579.48 483.83 638.38 451.81 638.38 445.24 579.48 478.06"/><polygon class="cls-8" points="579.48 489.3 579.48 495.06 626.45 470.61 626.45 464.04 579.48 489.3"/><polygon class="cls-8" points="469.77 561.6 469.77 570.11 528.66 540.71 528.66 531.4 469.77 561.6"/><polygon class="cls-8" points="469.77 545.87 469.77 554.38 507.64 534.45 507.64 525.14 469.77 545.87"/><polygon class="cls-8" points="469.77 610.87 469.77 619.38 476.75 615.98 476.75 606.67 469.77 610.87"/><polygon class="cls-8" points="481.38 604.51 481.38 613.02 488.36 609.63 488.36 600.32 481.38 604.51"/><polygon class="cls-8" points="493.51 598.16 493.51 606.67 500.49 603.27 500.49 593.96 493.51 598.16"/><polygon class="cls-8" points="578.23 466.79 578.23 471.35 581.97 469.53 581.97 464.54 578.23 466.79"/><polygon class="cls-8" points="584.45 463.38 584.45 467.94 588.19 466.12 588.19 461.13 584.45 463.38"/><polygon class="cls-8" points="590.95 459.97 590.95 464.54 594.7 462.71 594.7 457.73 590.95 459.97"/><polygon class="cls-8" points="321.4 663.7 321.4 672.21 380.29 640.19 380.29 630.88 321.4 663.7"/><polygon class="cls-8" points="322.07 680.47 322.07 688.98 329.05 685.58 329.05 676.27 322.07 680.47"/><polygon class="cls-8" points="333.69 674.12 333.69 682.63 340.67 679.23 340.67 669.92 333.69 674.12"/><polygon class="cls-8" points="345.82 667.76 345.82 676.27 352.8 672.87 352.8 663.57 345.82 667.76"/><polygon class="cls-8" points="264.85 794.99 264.85 799.55 302.79 779.22 302.79 774.56 264.85 794.99"/><polygon class="cls-8" points="331.87 760.33 331.87 764.89 369.82 744.55 369.82 739.9 331.87 760.33"/><polygon class="cls-8" points="398.84 724.57 398.84 729.13 436.78 708.79 436.78 704.14 398.84 724.57"/><polygon class="cls-8" points="469.77 578.37 469.77 586.88 507.64 566.95 507.64 557.64 469.77 578.37"/><polygon class="cls-5" points="671.81 633.51 771.55 695.81 840.32 657.73 740.91 594.02 671.81 633.51"/><polygon class="cls-7" points="518.79 701.6 539.55 688.98 570.19 709.09 548.4 709.09 550.53 723.38 518.79 701.6"/><polygon class="cls-7" points="671.88 619.97 692.65 607.35 723.29 627.46 701.5 627.46 703.63 641.76 671.88 619.97"/><path class="cls-2" d="M930.57,610l25.32,14.54s6.81,4.18,0,8.27-95.43,54.9-95.43,54.9l4.91,3,93.55-54.82s10.89-5.76,1.4-14.46l-25-14.08Z"/><path class="cls-16" d="M415.7,706.39V688.48a3,3,0,0,0-4.46-2.63l-125.87,69.7a3,3,0,0,0-1.55,2.63v17.19"/><polyline class="cls-16" points="349.8 742.45 349.8 704.14 349.8 728.43"/><polygon class="cls-15" points="472.36 805.94 508.1 829.82 578.39 790.9 541.47 766.45 472.36 805.94"/><ellipse class="cls-8" cx="440.52" cy="774.14" rx="4.05" ry="2.71"/><ellipse class="cls-8" cx="448.28" cy="779.21" rx="4.05" ry="2.71"/><polygon class="cls-7" points="493.54 801.53 497.97 804.73 547.98 774.68 543.77 771.43 493.54 801.53"/><polygon class="cls-7" points="500.99 807.24 505.42 810.44 535.71 791.34 531.51 788.08 500.99 807.24"/><ellipse class="cls-8" cx="488.93" cy="807.38" rx="4.05" ry="2.71"/><ellipse class="cls-8" cx="496.68" cy="812.45" rx="4.05" ry="2.71"/><circle class="cls-17" cx="624.64" cy="492.63" r="12.76"/><path class="cls-18" d="M628.89,504.66a12.74,12.74,0,0,0,8-8.61l-10.38-10.38s-4.42,3.7-4.23,4.72l2,2-.68,7.05Z"/><path class="cls-19" d="M626.55,485.67v13.77h-2.89V489.22l-1.34,1.17-1.89-2.19,2.76-2.38.17-.15Z"/><path class="cls-20" d="M624.64,485.67h1.91v13.77h-1.91Z"/><polygon class="cls-11" points="584.86 554.55 584.86 610.25 598.07 616.18 598.07 560.01 584.86 554.55"/><polygon class="cls-6" points="651.41 554.12 638.2 548.67 660.46 536.47 673.12 542.35 651.41 554.12"/><polygon class="cls-2" points="638.2 548.77 638.2 580.24 651.41 588.09 651.41 554.22 638.2 548.77"/><polygon class="cls-4" points="624.4 524.59 611.19 519.14 633.45 506.94 646.11 512.82 624.4 524.59"/><polygon class="cls-4" points="624.4 524.38 624.4 601.39 646.11 589.49 646.11 513.14 624.4 524.38"/><polygon class="cls-7" points="611.19 519.14 611.19 592.47 624.4 600.32 624.4 524.59 611.19 519.14"/><polygon class="cls-10" points="598.07 560.01 598.07 616.18 619.78 603.74 619.78 548.24 598.07 560.01"/><polygon class="cls-10" points="598.07 560.01 584.86 554.55 607.13 542.35 619.78 548.24 598.07 560.01"/><polyline class="cls-21" points="528.94 520.86 569.5 500.18 569.5 463.81 640.4 424.82"/><polyline class="cls-21" points="571.08 508.29 571.08 522.43 610.83 502.53"/></svg>